<ttFont>
<head>
    <!-- Most of this table will be recalculated by the compiler -->
    <tableVersion value="1.0"/>
    <fontRevision value="1.008"/>
    <checkSumAdjustment value="0xab5c15e7"/>
    <magicNumber value="0x5f0f3cf5"/>
    <flags value="00000000 00000011"/>
    <unitsPerEm value="750"/>
    <created value="Tue Mar 17 02:09:41 2020"/>
    <modified value="Tue Mar 17 02:09:41 2020"/>
    <xMin value="-242"/>
    <yMin value="-250"/>
    <xMax value="750"/>
    <yMax value="561"/>
    <macStyle value="00000000 00000000"/>
    <lowestRecPPEM value="3"/>
    <fontDirectionHint value="2"/>
    <indexToLocFormat value="0"/>
    <glyphDataFormat value="0"/>
  </head>
        <CharString name=".notdef">
          330 0 40 370 40 hstem
          40 40 170 40 vstem
          40 0 rmoveto
          250 0 rlineto
          0 450 rlineto
          -250 0 rlineto
          210 -79 rmoveto
          0 -297 rlineto
          -65 148 rlineto
          65 149 rlineto
          -170 -290 rmoveto
          0 283 rlineto
          62 -142 rlineto
          -62 -141 rlineto
          84 192 rmoveto
          -60 137 rlineto
          119 0 rlineto
          -59 -137 rlineto
          0 -101 rmoveto
          57 -132 rlineto
          -115 0 rlineto
          58 132 rlineto
          endchar
        </CharString>
        <CharString name="a">
          240 0 70 40 70 hstem
          0 80 40 80 vstem
          120 0 rmoveto
          80 0 rlineto
          0 90 rlineto
          0 130 rlineto
          -20 -35 -40 -5 -40 0 rrcurveto
          -55 0 -45 -40 0 -50 rrcurveto
          0 -60 45 -30 55 0 rrcurveto
          7 0 7 0 6 1 rrcurveto
          -20 69 rmoveto
          -11 0 -9 9 0 11 rrcurveto
          0 11 9 9 11 0 rrcurveto
          11 0 9 -9 0 -11 rrcurveto
          0 -11 -9 -9 -11 0 rrcurveto
          endchar
        </CharString>
        <CharString name="ain-ar">
          680 -110 70 40 70 160 -20 hstem
          0 80 274 62 vstem
          90 -110 rmoveto
          445 0 rlineto
          41 70 rlineto
          -476 0 rlineto
          -11 0 -9 9 0 11 rrcurveto
          0 11 9 9 11 0 rrcurveto
          499 0 rlineto
          41 70 rlineto
          -139 0 rlineto
          -32 0 -53 47 0 31 rrcurveto
          0 29 65 38 20 12 rrcurveto
          -1 3 rlineto
          -53 -26 -93 -47 0 -48 rrcurveto
          0 -13 6 -13 16 -13 rrcurveto
          -286 0 rlineto
          -50 0 -40 -40 0 -50 rrcurveto
          0 -50 40 -40 50 0 rrcurveto
          endchar
        </CharString>
        <CharString name="ain-ar.1">
          529 -110 70 40 70 0 83 77 -20 hstemhm
          0 42 161 62 hintmask 11011000
          131 -110 rmoveto
          260 0 rlineto
          41 70 rlineto
          -273 0 rlineto
          -32 0 -22 3 -23 23 rrcurveto
          hintmask 10111000
          -31 31 rlineto
          -17 17 9 47 14 -14 rrcurveto
          hintmask 11011100
          52 -52 rlineto
          10 -10 9 -5 12 0 rrcurveto
          308 0 rlineto
          41 70 rlineto
          -139 0 rlineto
          -32 0 -53 47 0 31 rrcurveto
          0 29 65 38 20 12 rrcurveto
          -1 3 rlineto
          -53 -26 -93 -47 0 -48 rrcurveto
          0 -13 6 -13 16 -13 rrcurveto
          -49 0 rlineto
          -9 0 -5 5 -4 4 rrcurveto
          -64 64 rlineto
          hintmask 10111000
          -50 50 -44 -149 0 -49 rrcurveto
          hintmask 11011000
          0 -85 57 -19 74 -1 rrcurveto
          endchar
        </CharString>
        <CharString name="ain-ar.2">
          529 -110 70 40 70 0 83 77 -20 hstemhm
          0 42 161 62 hintmask 11011000
          131 -110 rmoveto
          45 0 rlineto
          31 0 101 47 54 23 rrcurveto
          -203 0 rlineto
          -32 0 -22 3 -23 23 rrcurveto
          hintmask 10111000
          -31 31 rlineto
          -17 17 9 47 14 -14 rrcurveto
          hintmask 11011100
          52 -52 rlineto
          10 -10 9 -5 12 0 rrcurveto
          308 0 rlineto
          41 70 rlineto
          -139 0 rlineto
          -32 0 -53 47 0 31 rrcurveto
          0 29 65 38 20 12 rrcurveto
          -1 3 rlineto
          -53 -26 -93 -47 0 -48 rrcurveto
          0 -13 6 -13 16 -13 rrcurveto
          -49 0 rlineto
          -9 0 -5 5 -4 4 rrcurveto
          -64 64 rlineto
          hintmask 10111000
          -50 50 -44 -149 0 -49 rrcurveto
          hintmask 11011000
          0 -85 57 -19 74 -1 rrcurveto
          endchar
        </CharString>
        <CharString name="ain-ar.3">
          330 -250 31 219 70 80 60 hstemhm
          0 80 -30 80 hintmask 11010000
          199 -250 rmoveto
          43 0 46 8 76 35 rrcurveto
          -49 -8 -35 -4 -26 0 rrcurveto
          -83 0 -91 36 0 90 rrcurveto
          0 67 50 26 40 0 rrcurveto
          79 0 rlineto
          41 70 rlineto
          hintmask 11101000
          -127 0 rlineto
          -21 0 -12 17 0 19 rrcurveto
          0 21 16 23 37 0 rrcurveto
          13 0 16 -3 18 -7 rrcurveto
          -14 45 -35 25 -35 0 rrcurveto
          -88 0 -30 -102 38 -63 rrcurveto
          hintmask 11010000
          -43 -29 -23 -52 0 -54 rrcurveto
          0 -104 86 -56 113 0 rrcurveto
          endchar
        </CharString>
        <CharString name="ain-ar.fina">
          304 -250 31 219 70 160 -20 hstem
          0 80 104 80 vstem
          199 -250 rmoveto
          43 0 46 8 76 35 rrcurveto
          -49 -8 -35 -4 -26 0 rrcurveto
          -83 0 -91 36 0 90 rrcurveto
          0 67 50 26 40 0 rrcurveto
          134 0 rlineto
          0 70 rlineto
          -40 0 rlineto
          0 200 rlineto
          -80 -20 rlineto
          0 -100 rlineto
          -80 80 rlineto
          -42 -71 rlineto
          89 -89 rlineto
          -1 0 rlineto
          -96 0 -54 -78 0 -82 rrcurveto
          0 -104 86 -56 113 0 rrcurveto
          endchar
        </CharString>
        <CharString name="ain-ar.init">
          330 0 70 160 -20 hstemhm
          -20 86 -62 62 hintmask 11100000
          -20 0 rmoveto
          269 0 rlineto
          41 70 rlineto
          hintmask 11010000
          -139 0 rlineto
          -32 0 -53 47 0 31 rrcurveto
          0 29 65 38 20 12 rrcurveto
          -1 3 rlineto
          -53 -26 -93 -47 0 -48 rrcurveto
          0 -13 6 -13 16 -13 rrcurveto
          hintmask 11100000
          -46 0 rlineto
          endchar
        </CharString>
        <CharString name="ain-ar.init.1">
          280 0 70 80 60 hstem
          0 80 vstem
          -20 0 rmoveto
          219 0 rlineto
          41 70 rlineto
          -127 0 rlineto
          -21 0 -12 17 0 19 rrcurveto
          0 21 16 23 37 0 rrcurveto
          13 0 16 -3 18 -7 rrcurveto
          -14 45 -35 25 -35 0 rrcurveto
          -77 0 -33 -78 19 -62 rrcurveto
          -25 0 rlineto
          endchar
        </CharString>
        <CharString name="ain-ar.medi">
          242 0 70 160 -20 hstem
          122 80 vstem
          -20 0 rmoveto
          262 0 rlineto
          0 70 rlineto
          -40 0 rlineto
          0 200 rlineto
          -80 -20 rlineto
          0 -100 rlineto
          -80 80 rlineto
          -42 -71 rlineto
          89 -89 rlineto
          -109 0 rlineto
          endchar
        </CharString>
        <CharString name="alef-ar">
          360 0 48 512 -20 hstem
          0 80 vstem
          80 140 rmoveto
          0 420 rlineto
          -80 -20 rlineto
          0 -410 rlineto
          5 -88 74 -42 79 0 rrcurveto
          60 0 63 24 39 46 rrcurveto
          -28 -12 -44 -10 -43 0 rrcurveto
          -64 0 -61 22 0 70 rrcurveto
          endchar
        </CharString>
        <CharString name="alef-ar.1">
          200 0 43 517 -20 hstem
          0 80 vstem
          80 80 rmoveto
          0 480 rlineto
          -80 -20 rlineto
          0 -460 rlineto
          0 -50 37 -30 40 0 rrcurveto
          30 0 31 16 22 34 rrcurveto
          -9 -4 -12 -3 -12 0 rrcurveto
          -24 0 -23 11 0 26 rrcurveto
          endchar
        </CharString>
        <CharString name="alef-ar.2">
          280 0 37 523 -20 hstem
          0 80 vstem
          80 100 rmoveto
          0 460 rlineto
          -80 -20 rlineto
          0 -440 rlineto
          0 -66 52 -34 61 0 rrcurveto
          42 0 47 16 38 34 rrcurveto
          -24 -8 -27 -5 -24 0 rrcurveto
          -46 0 -39 17 0 46 rrcurveto
          endchar
        </CharString>
        <CharString name="alef-ar.3">
          120 0 20 540 -20 hstem
          0 80 vstem
          -40 20 rmoveto
          10 -10 20 -10 22 0 rrcurveto
          38 0 30 30 0 50 rrcurveto
          0 480 rlineto
          -80 -20 rlineto
          0 -470 rlineto
          0 -30 -13 -20 -27 0 rrcurveto
          endchar
        </CharString>
        <CharString name="alef-ar.fina">
          120 0 70 490 -20 hstem
          0 80 vstem
          80 80 rmoveto
          0 480 rlineto
          -80 -20 rlineto
          0 -500 rlineto
          0 -25 15 -15 23 0 rrcurveto
          82 0 rlineto
          0 70 rlineto
          -30 0 rlineto
          -7 0 -3 3 0 7 rrcurveto
          endchar
        </CharString>
        <CharString name="alefHamzaabove-ar">
          360 0 48 426 29 33 25 hstem
          0 80 vstem
          80 140 rmoveto
          0 420 rlineto
          -80 -20 rlineto
          0 -410 rlineto
          5 -88 74 -42 79 0 rrcurveto
          60 0 63 24 39 46 rrcurveto
          -28 -12 -44 -10 -43 0 rrcurveto
          -64 0 -61 22 0 70 rrcurveto
          106 363 rmoveto
          -8 0 -5 7 0 8 rrcurveto
          0 9 7 9 15 0 rrcurveto
          5 0 7 -1 7 -3 rrcurveto
          -6 18 -14 11 -14 0 rrcurveto
          -32 0 -14 -33 8 -25 rrcurveto
          -11 0 rlineto
          -17 -29 rlineto
          108 0 rlineto
          17 29 rlineto
          -53 0 rlineto
          endchar
        </CharString>
        <CharString name="alefHamzabelow-ar">
          360 -107 29 33 25 20 48 512 -20 hstemhm
          0 80 hintmask 10111000
          80 140 rmoveto
          0 420 rlineto
          -80 -20 rlineto
          0 -410 rlineto
          5 -88 74 -42 79 0 rrcurveto
          60 0 63 24 39 46 rrcurveto
          -28 -12 -44 -10 -43 0 rrcurveto
          -64 0 -61 22 0 70 rrcurveto
          -3 -218 rmoveto
          -8 0 -5 7 0 8 rrcurveto
          hintmask 11111000
          0 9 7 9 15 0 rrcurveto
          5 0 7 -1 7 -3 rrcurveto
          -6 18 -14 11 -14 0 rrcurveto
          -32 0 -14 -33 8 -25 rrcurveto
          -11 0 rlineto
          -17 -29 rlineto
          108 0 rlineto
          17 29 rlineto
          hintmask 10111000
          -53 0 rlineto
          endchar
        </CharString>
        <CharString name="alefMadda-ar">
          360 0 48 512 -20 hstem
          0 80 vstem
          80 140 rmoveto
          0 420 rlineto
          -80 -20 rlineto
          0 -410 rlineto
          5 -88 74 -42 79 0 rrcurveto
          60 0 63 24 39 46 rrcurveto
          -28 -12 -44 -10 -43 0 rrcurveto
          -64 0 -61 22 0 70 rrcurveto
          endchar
        </CharString>
        <CharString name="alefMaksura-ar">
          247 -220 70 40 67 64 -21 70 83 hstem
          0 42 85 80 vstem
          -33 -220 rmoveto
          202 0 rlineto
          23 0 15 15 0 25 rrcurveto
          0 96 rlineto
          0 25 -13 16 -35 0 rrcurveto
          -32 0 -22 6 -23 23 rrcurveto
          -31 31 rlineto
          -17 17 9 47 14 -14 rrcurveto
          52 -52 rlineto
          10 -10 9 -5 12 0 rrcurveto
          16 0 36 10 10 80 rrcurveto
          -3 -15 -14 -5 -9 0 rrcurveto
          -9 0 -5 5 -4 4 rrcurveto
          -64 64 rlineto
          -50 50 -44 -149 0 -49 rrcurveto
          0 -83 55 -20 72 -2 rrcurveto
          0 -40 rlineto
          -60 0 rlineto
          -20 0 -17 5 -11 15 rrcurveto
          endchar
        </CharString>
        <CharString name="alefMaksura-ar.1">
          247 -250 70 70 67 64 -21 70 83 hstem
          0 42 85 80 vstem
          -33 -250 rmoveto
          202 0 rlineto
          23 0 15 15 0 25 rrcurveto
          0 126 rlineto
          0 25 -13 16 -35 0 rrcurveto
          -32 0 -22 6 -23 23 rrcurveto
          -31 31 rlineto
          -17 17 9 47 14 -14 rrcurveto
          52 -52 rlineto
          10 -10 9 -5 12 0 rrcurveto
          16 0 36 10 10 80 rrcurveto
          -3 -15 -14 -5 -9 0 rrcurveto
          -9 0 -5 5 -4 4 rrcurveto
          -64 64 rlineto
          -50 50 -44 -149 0 -49 rrcurveto
          0 -83 55 -20 72 -2 rrcurveto
          0 -70 rlineto
          -60 0 rlineto
          -20 0 -17 5 -11 15 rrcurveto
          endchar
        </CharString>
        <CharString name="alefMaksura-ar.2">
          242 -110 70 61 -21 70 83 hstem
          0 42 vstem
          131 -110 rmoveto
          260 0 rlineto
          41 70 rlineto
          -283 0 rlineto
          -32 0 -12 3 -23 23 rrcurveto
          -31 31 rlineto
          -17 17 9 47 14 -14 rrcurveto
          52 -52 rlineto
          10 -10 9 -5 12 0 rrcurveto
          16 0 36 10 10 80 rrcurveto
          -3 -15 -14 -5 -9 0 rrcurveto
          -9 0 -5 5 -4 4 rrcurveto
          -64 64 rlineto
          -50 50 -44 -149 0 -49 rrcurveto
          0 -85 57 -19 74 -1 rrcurveto
          endchar
        </CharString>
        <CharString name="alefMaksura-ar.3">
          242 -110 70 61 -21 70 83 hstem
          0 42 vstem
          131 -110 rmoveto
          405 0 rlineto
          41 70 rlineto
          -428 0 rlineto
          -32 0 -12 3 -23 23 rrcurveto
          -31 31 rlineto
          -17 17 9 47 14 -14 rrcurveto
          52 -52 rlineto
          10 -10 9 -5 12 0 rrcurveto
          16 0 36 10 10 80 rrcurveto
          -3 -15 -14 -5 -9 0 rrcurveto
          -9 0 -5 5 -4 4 rrcurveto
          -64 64 rlineto
          -50 50 -44 -149 0 -49 rrcurveto
          0 -85 57 -19 74 -1 rrcurveto
          endchar
        </CharString>
        <CharString name="alefMaksura-ar.4">
          242 -110 70 61 -21 70 83 hstem
          0 42 vstem
          131 -110 rmoveto
          560 0 rlineto
          41 70 rlineto
          -583 0 rlineto
          -32 0 -12 3 -23 23 rrcurveto
          -31 31 rlineto
          -17 17 9 47 14 -14 rrcurveto
          52 -52 rlineto
          10 -10 9 -5 12 0 rrcurveto
          16 0 36 10 10 80 rrcurveto
          -3 -15 -14 -5 -9 0 rrcurveto
          -9 0 -5 5 -4 4 rrcurveto
          -64 64 rlineto
          -50 50 -44 -149 0 -49 rrcurveto
          0 -85 57 -19 74 -1 rrcurveto
          endchar
        </CharString>
        <CharString name="alefMaksura-ar.5">
          242 -110 70 61 -21 70 83 hstem
          0 42 vstem
          131 -110 rmoveto
          45 0 rlineto
          31 0 101 47 54 23 rrcurveto
          -213 0 rlineto
          -32 0 -12 3 -23 23 rrcurveto
          -31 31 rlineto
          -17 17 9 47 14 -14 rrcurveto
          52 -52 rlineto
          10 -10 9 -5 12 0 rrcurveto
          16 0 36 10 10 80 rrcurveto
          -3 -15 -14 -5 -9 0 rrcurveto
          -9 0 -5 5 -4 4 rrcurveto
          -64 64 rlineto
          -50 50 -44 -149 0 -49 rrcurveto
          0 -85 57 -19 74 -1 rrcurveto
          endchar
        </CharString>
        <CharString name="alefMaksura-ar.6">
          242 -110 70 61 -21 70 83 hstem
          0 42 vstem
          131 -110 rmoveto
          46 0 rlineto
          125 0 258 36 163 18 rrcurveto
          9 16 rlineto
          -583 0 rlineto
          -32 0 -12 3 -23 23 rrcurveto
          -31 31 rlineto
          -17 17 9 47 14 -14 rrcurveto
          52 -52 rlineto
          10 -10 9 -5 12 0 rrcurveto
          16 0 36 10 10 80 rrcurveto
          -3 -15 -14 -5 -9 0 rrcurveto
          -9 0 -5 5 -4 4 rrcurveto
          -64 64 rlineto
          -50 50 -44 -149 0 -49 rrcurveto
          0 -85 57 -19 74 -1 rrcurveto
          endchar
        </CharString>
        <CharString name="alefMaksura-ar.fina">
          207 -220 70 40 67 43 70 0 83 hstemhm
          0 42 85 80 hintmask 11101100
          -33 -220 rmoveto
          202 0 rlineto
          23 0 15 15 0 25 rrcurveto
          0 96 rlineto
          0 25 -13 16 -35 0 rrcurveto
          -32 0 -22 6 -23 23 rrcurveto
          hintmask 11011100
          -31 31 rlineto
          -17 17 9 47 14 -14 rrcurveto
          hintmask 11101100
          52 -52 rlineto
          10 -10 9 -5 12 0 rrcurveto
          67 0 rlineto
          0 70 rlineto
          -31 0 rlineto
          -9 0 -5 5 -4 4 rrcurveto
          -64 64 rlineto
          hintmask 11011100
          -50 50 -44 -149 0 -49 rrcurveto
          0 -83 55 -20 72 -2 rrcurveto
          0 -40 rlineto
          -60 0 rlineto
          -20 0 -17 5 -11 15 rrcurveto
          endchar
        </CharString>
        <CharString name="alefMaksura-ar.fina.0">
          207 -220 70 40 67 43 70 0 83 hstemhm
          0 42 85 80 hintmask 11101100
          -33 -220 rmoveto
          202 0 rlineto
          23 0 15 15 0 25 rrcurveto
          0 96 rlineto
          0 25 -13 16 -35 0 rrcurveto
          -32 0 -22 6 -23 23 rrcurveto
          hintmask 11011100
          -31 31 rlineto
          -17 17 9 47 14 -14 rrcurveto
          hintmask 11101100
          52 -52 rlineto
          10 -10 9 -5 12 0 rrcurveto
          67 0 rlineto
          0 70 rlineto
          -31 0 rlineto
          -9 0 -5 5 -4 4 rrcurveto
          -64 64 rlineto
          hintmask 11011100
          -50 50 -44 -149 0 -49 rrcurveto
          0 -83 55 -20 72 -2 rrcurveto
          0 -40 rlineto
          -60 0 rlineto
          -20 0 -17 5 -11 15 rrcurveto
          endchar
        </CharString>
        <CharString name="alefMaksura-ar.fina.1">
          207 -250 70 70 67 43 70 0 83 hstemhm
          0 42 85 80 hintmask 11101100
          -33 -250 rmoveto
          202 0 rlineto
          23 0 15 15 0 25 rrcurveto
          0 126 rlineto
          0 25 -13 16 -35 0 rrcurveto
          -32 0 -22 6 -23 23 rrcurveto
          hintmask 11011100
          -31 31 rlineto
          -17 17 9 47 14 -14 rrcurveto
          hintmask 11101100
          52 -52 rlineto
          10 -10 9 -5 12 0 rrcurveto
          67 0 rlineto
          0 70 rlineto
          -31 0 rlineto
          -9 0 -5 5 -4 4 rrcurveto
          -64 64 rlineto
          hintmask 11011100
          -50 50 -44 -149 0 -49 rrcurveto
          0 -83 55 -20 72 -2 rrcurveto
          0 -70 rlineto
          -60 0 rlineto
          -20 0 -17 5 -11 15 rrcurveto
          endchar
        </CharString>
        <CharString name="alefMaksura-ar.fina.2">
          207 -110 70 40 70 0 83 hstemhm
          0 42 hintmask 11010000
          131 -110 rmoveto
          260 0 rlineto
          41 70 rlineto
          -273 0 rlineto
          -32 0 -22 3 -23 23 rrcurveto
          hintmask 10110000
          -31 31 rlineto
          -17 17 9 47 14 -14 rrcurveto
          hintmask 11010000
          52 -52 rlineto
          10 -10 9 -5 12 0 rrcurveto
          67 0 rlineto
          0 70 rlineto
          -31 0 rlineto
          -9 0 -5 5 -4 4 rrcurveto
          -64 64 rlineto
          hintmask 10110000
          -50 50 -44 -149 0 -49 rrcurveto
          hintmask 11010000
          0 -85 57 -19 74 -1 rrcurveto
          endchar
        </CharString>
        <CharString name="alefMaksura-ar.fina.3">
          207 -110 70 40 70 0 83 hstemhm
          0 42 hintmask 11010000
          131 -110 rmoveto
          405 0 rlineto
          41 70 rlineto
          -418 0 rlineto
          -32 0 -22 3 -23 23 rrcurveto
          hintmask 10110000
          -31 31 rlineto
          -17 17 9 47 14 -14 rrcurveto
          hintmask 11010000
          52 -52 rlineto
          10 -10 9 -5 12 0 rrcurveto
          67 0 rlineto
          0 70 rlineto
          -31 0 rlineto
          -9 0 -5 5 -4 4 rrcurveto
          -64 64 rlineto
          hintmask 10110000
          -50 50 -44 -149 0 -49 rrcurveto
          hintmask 11010000
          0 -85 57 -19 74 -1 rrcurveto
          endchar
        </CharString>
        <CharString name="alefMaksura-ar.fina.4">
          207 -110 70 40 70 0 83 hstemhm
          0 42 hintmask 11010000
          131 -110 rmoveto
          560 0 rlineto
          41 70 rlineto
          -573 0 rlineto
          -32 0 -22 3 -23 23 rrcurveto
          hintmask 10110000
          -31 31 rlineto
          -17 17 9 47 14 -14 rrcurveto
          hintmask 11010000
          52 -52 rlineto
          10 -10 9 -5 12 0 rrcurveto
          67 0 rlineto
          0 70 rlineto
          -31 0 rlineto
          -9 0 -5 5 -4 4 rrcurveto
          -64 64 rlineto
          hintmask 10110000
          -50 50 -44 -149 0 -49 rrcurveto
          hintmask 11010000
          0 -85 57 -19 74 -1 rrcurveto
          endchar
        </CharString>
        <CharString name="alefMaksura-ar.fina.5">
          207 -110 70 40 70 0 83 hstemhm
          0 42 hintmask 11010000
          131 -110 rmoveto
          45 0 rlineto
          31 0 101 47 54 23 rrcurveto
          -203 0 rlineto
          -32 0 -22 3 -23 23 rrcurveto
          hintmask 10110000
          -31 31 rlineto
          -17 17 9 47 14 -14 rrcurveto
          hintmask 11010000
          52 -52 rlineto
          10 -10 9 -5 12 0 rrcurveto
          67 0 rlineto
          0 70 rlineto
          -31 0 rlineto
          -9 0 -5 5 -4 4 rrcurveto
          -64 64 rlineto
          hintmask 10110000
          -50 50 -44 -149 0 -49 rrcurveto
          hintmask 11010000
          0 -85 57 -19 74 -1 rrcurveto
          endchar
        </CharString>
        <CharString name="alefMaksura-ar.fina.6">
          207 -110 70 40 70 0 83 hstemhm
          0 42 hintmask 11010000
          131 -110 rmoveto
          46 0 rlineto
          125 0 258 36 163 18 rrcurveto
          9 16 rlineto
          -573 0 rlineto
          -32 0 -22 3 -23 23 rrcurveto
          hintmask 10110000
          -31 31 rlineto
          -17 17 9 47 14 -14 rrcurveto
          hintmask 11010000
          52 -52 rlineto
          10 -10 9 -5 12 0 rrcurveto
          67 0 rlineto
          0 70 rlineto
          -31 0 rlineto
          -9 0 -5 5 -4 4 rrcurveto
          -64 64 rlineto
          hintmask 10110000
          -50 50 -44 -149 0 -49 rrcurveto
          hintmask 11010000
          0 -85 57 -19 74 -1 rrcurveto
          endchar
        </CharString>
        <CharString name="alefMaksura-ar.fina.tooth">
          280 -220 70 40 70 hstem
          0 80 116 84 vstem
          -40 -220 rmoveto
          299 0 rlineto
          6 0 15 0 0 21 rrcurveto
          0 139 -70 20 -44 0 rrcurveto
          -76 0 rlineto
          -7 0 -3 3 0 7 rrcurveto
          0 80 rlineto
          -80 0 rlineto
          0 -120 rlineto
          0 -25 15 -15 23 0 rrcurveto
          118 0 rlineto
          22 0 18 -18 0 -22 rrcurveto
          -196 0 rlineto
          endchar
        </CharString>
        <CharString name="alefWasla-ar">
          360 0 48 512 -20 hstem
          0 80 vstem
          80 140 rmoveto
          0 420 rlineto
          -80 -20 rlineto
          0 -410 rlineto
          5 -88 74 -42 79 0 rrcurveto
          60 0 63 24 39 46 rrcurveto
          -28 -12 -44 -10 -43 0 rrcurveto
          -64 0 -61 22 0 70 rrcurveto
          endchar
        </CharString>
        <CharString name="b">
          240 0 70 40 70 380 -20 hstem
          0 80 40 80 vstem
          0 290 rmoveto
          0 -70 rlineto
          0 -130 rlineto
          0 -60 35 -30 65 0 rrcurveto
          55 0 45 30 0 60 rrcurveto
          0 50 -45 40 -55 0 rrcurveto
          -7 0 -6 0 -7 1 rrcurveto
          0 379 rlineto
          -80 -20 rlineto
          100 -470 rmoveto
          -11 0 -9 9 0 11 rrcurveto
          0 11 9 9 11 0 rrcurveto
          11 0 9 -9 0 -11 rrcurveto
          0 -11 -9 -9 -11 0 rrcurveto
          endchar
        </CharString>
        <CharString name="beh-ar">
          600 0 70 160 -20 hstem
          480 80 vstem
          0 0 rmoveto
          539 0 rlineto
          6 0 15 0 0 11 rrcurveto
          0 219 rlineto
          -80 -20 rlineto
          0 -140 rlineto
          -380 0 rlineto
          -22 0 -16 7 -10 13 rrcurveto
          198 -214 rmoveto
          47 79 rlineto
          -17 10 rlineto
          -47 -79 rlineto
          endchar
        </CharString>
        <CharString name="behDotless-ar">
          600 0 70 160 -20 hstem
          480 80 vstem
          0 0 rmoveto
          539 0 rlineto
          6 0 15 0 0 11 rrcurveto
          0 219 rlineto
          -80 -20 rlineto
          0 -140 rlineto
          -380 0 rlineto
          -22 0 -16 7 -10 13 rrcurveto
          endchar
        </CharString>
        <CharString name="behDotless-ar.fina">
          600 0 70 160 -20 hstem
          480 80 vstem
          0 0 rmoveto
          600 0 rlineto
          0 70 rlineto
          -22 0 -18 18 0 22 rrcurveto
          0 120 rlineto
          -80 -20 rlineto
          0 -140 rlineto
          -380 0 rlineto
          -22 0 -16 7 -10 13 rrcurveto
          endchar
        </CharString>
        <CharString name="behDotless-ar.fina.1">
          600 0 70 hstem
          0 600 vstem
          0 0 rmoveto
          600 0 rlineto
          0 70 rlineto
          -47 0 rlineto
          -51 140 rlineto
          -68 -46 rlineto
          34 -94 rlineto
          -368 0 rlineto
          -22 0 -16 7 -10 13 rrcurveto
          endchar
        </CharString>
        <CharString name="behDotless-ar.init">
          120 0 70 160 -20 hstem
          0 80 vstem
          -20 0 rmoveto
          79 0 rlineto
          6 0 15 0 0 11 rrcurveto
          0 219 rlineto
          -80 -20 rlineto
          0 -140 rlineto
          -20 0 rlineto
          endchar
        </CharString>
        <CharString name="behDotless-ar.init.hah">
          80 0 25 hstem
          0 80 vstem
          -20 0 rmoveto
          57 0 43 30 0 40 rrcurveto
          0 90 rlineto
          -80 -20 rlineto
          0 -70 rlineto
          0 -19 0 -26 -20 0 rrcurveto
          endchar
        </CharString>
        <CharString name="behDotless-ar.medi">
          120 0 70 160 -20 hstem
          0 80 vstem
          -20 0 rmoveto
          140 0 rlineto
          0 70 rlineto
          -22 0 -18 18 0 22 rrcurveto
          0 120 rlineto
          -80 -20 rlineto
          0 -140 rlineto
          -20 0 rlineto
          endchar
        </CharString>
        <CharString name="behDotless-ar.medi.1">
          150 0 70 hstem
          -20 170 vstem
          -20 0 rmoveto
          170 0 rlineto
          0 70 rlineto
          -40 0 rlineto
          -70 70 rlineto
          -40 -70 rlineto
          -20 0 rlineto
          endchar
        </CharString>
        <CharString name="behDotless-ar.medi.high">
          120 0 70 hstem
          0 80 vstem
          -20 0 rmoveto
          140 0 rlineto
          0 70 rlineto
          -22 0 -18 18 0 22 rrcurveto
          0 160 rlineto
          -80 -20 rlineto
          0 -180 rlineto
          -20 0 rlineto
          endchar
        </CharString>
        <CharString name="behDotless-ar.medi.high.1">
          120 0 70 170 -20 hstem
          0 80 vstem
          -20 0 rmoveto
          140 0 rlineto
          0 70 rlineto
          -22 0 -18 18 0 22 rrcurveto
          0 150 rlineto
          -80 -20 rlineto
          0 -170 rlineto
          -20 0 rlineto
          endchar
        </CharString>
        <CharString name="behDotless-ar.medi.yeh">
          120 0 70 160 -20 hstem
          0 80 vstem
          80 80 rmoveto
          0 150 rlineto
          -80 -20 rlineto
          0 -210 rlineto
          120 0 rlineto
          0 70 rlineto
          -30 0 rlineto
          -7 0 -3 3 0 7 rrcurveto
          endchar
        </CharString>
        <CharString name="c">
          180 0 70 40 70 hstemhm
          0 80 -80 140 hintmask 11010000
          90 0 rmoveto
          50 0 rlineto
          0 70 rlineto
          hintmask 11100000
          -40 0 rlineto
          -11 0 -9 9 0 11 rrcurveto
          0 11 9 9 11 0 rrcurveto
          hintmask 11010000
          40 0 rlineto
          0 70 rlineto
          hintmask 11100000
          -50 0 rlineto
          -50 0 -40 -40 0 -50 rrcurveto
          hintmask 11010000
          0 -50 40 -40 50 0 rrcurveto
          endchar
        </CharString>
        <CharString name="d">
          240 0 70 40 70 380 -20 hstem
          0 80 40 80 vstem
          100 0 rmoveto
          65 0 35 30 0 60 rrcurveto
          0 130 rlineto
          0 340 rlineto
          -80 -20 rlineto
          0 -359 rlineto
          -7 -1 -6 0 -7 0 rrcurveto
          -55 0 -45 -40 0 -50 rrcurveto
          0 -60 45 -30 55 0 rrcurveto
          0 70 rmoveto
          -11 0 -9 9 0 11 rrcurveto
          0 11 9 9 11 0 rrcurveto
          11 0 9 -9 0 -11 rrcurveto
          0 -11 -9 -9 -11 0 rrcurveto
          endchar
        </CharString>
        <CharString name="dad-ar">
          740 -250 70 180 70 40 70 hstem
          70 80 466 84 vstem
          -130 -250 rmoveto
          242 0 rlineto
          23 0 15 15 0 25 rrcurveto
          0 210 rlineto
          529 0 rlineto
          6 0 15 0 0 21 rrcurveto
          0 139 -70 20 -44 0 rrcurveto
          -436 0 rlineto
          -80 80 rlineto
          -40 -70 rlineto
          40 -40 rlineto
          0 -330 rlineto
          -100 0 rlineto
          -20 0 -17 5 -11 15 rrcurveto
          228 230 rmoveto
          0 40 rlineto
          426 0 rlineto
          22 0 18 -18 0 -22 rrcurveto
          -466 0 rlineto
          230 185 rmoveto
          47 79 rlineto
          -17 10 rlineto
          -47 -79 rlineto
          endchar
        </CharString>
        <CharString name="dal-ar">
          600 0 70 40 70 hstem
          476 84 vstem
          0 0 rmoveto
          539 0 rlineto
          6 0 15 0 0 21 rrcurveto
          0 139 -70 20 -44 0 rrcurveto
          -326 0 rlineto
          27 70 rlineto
          -3 0 rlineto
          -80 -140 rlineto
          372 0 rlineto
          22 0 18 -18 0 -22 rrcurveto
          -436 0 rlineto
          endchar
        </CharString>
        <CharString name="dal-ar.fina">
          600 0 70 40 70 hstemhm
          0 600 -124 124 hintmask 11100000
          0 0 rmoveto
          hintmask 11010000
          600 0 rlineto
          0 70 rlineto
          -43 0 rlineto
          -15 95 -58 15 -38 0 rrcurveto
          -326 0 rlineto
          27 70 rlineto
          -3 0 rlineto
          -80 -140 rlineto
          372 0 rlineto
          22 0 18 -18 0 -22 rrcurveto
          -436 0 rlineto
          endchar
        </CharString>
        <CharString name="ddal-ar">
          600 0 70 40 70 75 21 14 24 hstemhm
          231 25 73 25 122 84 hintmask 11101110
          0 0 rmoveto
          539 0 rlineto
          6 0 15 0 0 21 rrcurveto
          0 139 -70 20 -44 0 rrcurveto
          -326 0 rlineto
          27 70 rlineto
          -3 0 rlineto
          -80 -140 rlineto
          372 0 rlineto
          22 0 18 -18 0 -22 rrcurveto
          -436 0 rlineto
          166 185 rmoveto
          142 0 rlineto
          4 0 2 0 0 6 rrcurveto
          hintmask 11111110
          0 44 -21 9 -14 0 rrcurveto
          -63 0 rlineto
          hintmask 11101110
          0 56 rlineto
          -25 -6 rlineto
          0 -88 rlineto
          -13 0 rlineto
          38 0 rmoveto
          hintmask 11111110
          0 14 rlineto
          59 0 rlineto
          4 0 4 -1 2 -3 rrcurveto
          3 -2 1 -4 0 -4 rrcurveto
          hintmask 11101110
          -73 0 rlineto
          endchar
        </CharString>
        <CharString name="dotabove-ar">
          0 21 -21 hstem
          0 64 vstem
          17 0 rmoveto
          47 79 rlineto
          -17 10 rlineto
          -47 -79 rlineto
          endchar
        </CharString>
        <CharString name="dotabove-ar.alt1">
          0 0 58 hstem
          0 58 vstem
          29 0 rmoveto
          16 0 13 13 0 16 rrcurveto
          0 16 -13 13 -16 0 rrcurveto
          -16 0 -13 -13 0 -16 rrcurveto
          0 -16 13 -13 16 0 rrcurveto
          endchar
        </CharString>
        <CharString name="dotbelow-ar">
          0 21 -21 hstem
          0 64 vstem
          17 0 rmoveto
          47 79 rlineto
          -17 10 rlineto
          -47 -79 rlineto
          endchar
        </CharString>
        <CharString name="dotbelow-ar.alt1">
          0 0 58 hstem
          0 58 vstem
          29 0 rmoveto
          16 0 13 13 0 16 rrcurveto
          0 16 -13 13 -16 0 rrcurveto
          -16 0 -13 -13 0 -16 rrcurveto
          0 -16 13 -13 16 0 rrcurveto
          endchar
        </CharString>
        <CharString name="e">
          240 0 70 -49 -21 90 10 -10 90 -80 80 hstemhm
          0 80 -80 83 -83 100 hintmask 01100100
          80 90 rmoveto
          120 0 rlineto
          hintmask 01010100
          0 50 -45 40 -55 0 rrcurveto
          -55 0 -45 -40 0 -50 rrcurveto
          hintmask 01100001
          0 -60 45 -30 55 0 rrcurveto
          hintmask 10100001
          0 70 rlineto
          hintmask 01100100
          -11 0 -9 9 0 11 rrcurveto
          hintmask 01100010
          37 10 rmoveto
          -34 0 rlineto
          hintmask 01001010
          hintmask 01100010
          3 6 7 4 7 0 7 0 7 -4 3 -6 50 flex
          endchar
        </CharString>
        <CharString name="eight">
          250 0 70 70 70 70 70 hstem
          0 70 70 70 vstem
          210 350 rmoveto
          -210 0 rlineto
          0 -350 rlineto
          210 0 rlineto
          -140 70 rmoveto
          0 70 rlineto
          70 0 rlineto
          0 -70 rlineto
          -70 0 rlineto
          70 140 rmoveto
          -70 0 rlineto
          0 70 rlineto
          70 0 rlineto
          0 -70 rlineto
          endchar
        </CharString>
        <CharString name="eight-ar">
          250 21 -21 280 70 hstem
          0 70 70 70 vstem
          0 350 rmoveto
          0 -350 rlineto
          70 0 rlineto
          0 280 rlineto
          70 0 rlineto
          0 -280 rlineto
          70 0 rlineto
          0 350 rlineto
          endchar
        </CharString>
        <CharString name="eight-ar.1">
          346 21 -21 hstem
          0 306 vstem
          153 238 rmoveto
          87 -238 rlineto
          66 23 rlineto
          -120 327 rlineto
          -66 0 rlineto
          -120 -327 rlineto
          66 -23 rlineto
          87 238 rlineto
          endchar
        </CharString>
        <CharString name="eight-ar.2">
          366 21 -21 hstem
          0 326 vstem
          163 185 rmoveto
          85 -185 rlineto
          78 0 rlineto
          -163 350 rlineto
          -163 -350 rlineto
          77 0 rlineto
          86 185 rlineto
          endchar
        </CharString>
        <CharString name="eight-persian">
          250 21 -21 280 70 hstem
          0 70 70 70 vstem
          0 350 rmoveto
          0 -350 rlineto
          70 0 rlineto
          0 280 rlineto
          70 0 rlineto
          0 -280 rlineto
          70 0 rlineto
          0 350 rlineto
          endchar
        </CharString>
        <CharString name="empty">
          0 endchar
        </CharString>
        <CharString name="f">
          120 0 20 330 70 80 60 hstemhm
          -25 80 -55 80 hintmask 11101000
          -40 20 rmoveto
          10 -10 20 -10 22 0 rrcurveto
          38 0 30 30 0 50 rrcurveto
          0 270 rlineto
          35 0 rlineto
          41 70 rlineto
          hintmask 11110000
          -68 0 rlineto
          -21 0 -12 17 0 19 rrcurveto
          0 21 16 23 37 0 rrcurveto
          13 0 16 -3 18 -7 rrcurveto
          -14 45 -35 25 -35 0 rrcurveto
          -77 0 -33 -78 19 -62 rrcurveto
          hintmask 11101000
          -25 0 rlineto
          0 -70 rlineto
          45 0 rlineto
          0 -280 rlineto
          0 -30 -13 -20 -27 0 rrcurveto
          endchar
        </CharString>
        <CharString name="feh-ar">
          613 0 70 40 70 40 70 hstem
          360 80 52 81 vstem
          0 0 rmoveto
          536 0 rlineto
          24 0 13 37 0 65 rrcurveto
          0 77 -19 111 -93 0 rrcurveto
          -56 0 -45 -40 0 -50 rrcurveto
          0 -50 45 -40 55 0 rrcurveto
          10 0 10 1 10 3 rrcurveto
          2 -7 0 -8 0 -7 rrcurveto
          0 -7 0 -8 -2 -7 rrcurveto
          -390 0 rlineto
          -22 0 -16 7 -10 13 rrcurveto
          408 245 rmoveto
          47 79 rlineto
          -17 10 rlineto
          -47 -79 rlineto
          17 -165 rmoveto
          -11 0 -9 9 0 11 rrcurveto
          0 11 9 9 11 0 rrcurveto
          11 0 9 -9 0 -11 rrcurveto
          0 -11 -9 -9 -11 0 rrcurveto
          endchar
        </CharString>
        <CharString name="fehDotless-ar">
          613 0 70 40 70 40 70 hstem
          360 80 52 81 vstem
          0 0 rmoveto
          536 0 rlineto
          24 0 13 37 0 65 rrcurveto
          0 77 -19 111 -93 0 rrcurveto
          -56 0 -45 -40 0 -50 rrcurveto
          0 -50 45 -40 55 0 rrcurveto
          10 0 10 1 10 3 rrcurveto
          2 -7 0 -8 0 -7 rrcurveto
          0 -7 0 -8 -2 -7 rrcurveto
          -390 0 rlineto
          -22 0 -16 7 -10 13 rrcurveto
          408 90 rmoveto
          -11 0 -9 9 0 11 rrcurveto
          0 11 9 9 11 0 rrcurveto
          11 0 9 -9 0 -11 rrcurveto
          0 -11 -9 -9 -11 0 rrcurveto
          endchar
        </CharString>
        <CharString name="fehDotless-ar.1">
          600 0 70 40 70 40 70 hstem
          360 80 40 80 vstem
          460 110 rmoveto
          7 0 7 1 6 1 rrcurveto
          0 -42 rlineto
          -380 0 rlineto
          -22 0 -16 7 -10 13 rrcurveto
          -52 -90 rlineto
          539 0 rlineto
          6 0 15 0 0 11 rrcurveto
          0 189 rlineto
          0 50 -45 40 -55 0 rrcurveto
          -55 0 -45 -40 0 -50 rrcurveto
          0 -50 45 -40 55 0 rrcurveto
          0 70 rmoveto
          -11 0 -9 9 0 11 rrcurveto
          0 11 9 9 11 0 rrcurveto
          11 0 9 -9 0 -11 rrcurveto
          0 -11 -9 -9 -11 0 rrcurveto
          endchar
        </CharString>
        <CharString name="fehDotless-ar.2">
          653 0 70 40 70 40 70 hstem
          400 80 52 81 vstem
          0 0 rmoveto
          576 0 rlineto
          24 0 13 37 0 65 rrcurveto
          0 77 -19 111 -93 0 rrcurveto
          -56 0 -45 -40 0 -50 rrcurveto
          0 -50 45 -40 55 0 rrcurveto
          10 0 10 1 10 3 rrcurveto
          2 -7 0 -8 0 -7 rrcurveto
          0 -7 0 -8 -2 -7 rrcurveto
          -430 0 rlineto
          -22 0 -16 7 -10 13 rrcurveto
          448 90 rmoveto
          -11 0 -9 9 0 11 rrcurveto
          0 11 9 9 11 0 rrcurveto
          11 0 9 -9 0 -11 rrcurveto
          0 -11 -9 -9 -11 0 rrcurveto
          endchar
        </CharString>
        <CharString name="fehDotless-ar.3">
          640 0 70 40 70 40 70 hstem
          400 80 40 80 vstem
          500 110 rmoveto
          7 0 7 1 6 1 rrcurveto
          0 -42 rlineto
          -420 0 rlineto
          -22 0 -16 7 -10 13 rrcurveto
          -52 -90 rlineto
          579 0 rlineto
          6 0 15 0 0 11 rrcurveto
          0 189 rlineto
          0 50 -45 40 -55 0 rrcurveto
          -55 0 -45 -40 0 -50 rrcurveto
          0 -50 45 -40 55 0 rrcurveto
          0 70 rmoveto
          -11 0 -9 9 0 11 rrcurveto
          0 11 9 9 11 0 rrcurveto
          11 0 9 -9 0 -11 rrcurveto
          0 -11 -9 -9 -11 0 rrcurveto
          endchar
        </CharString>
        <CharString name="fehDotless-ar.fina">
          613 0 70 40 70 40 70 hstem
          360 80 52 81 vstem
          0 0 rmoveto
          613 0 rlineto
          0 70 rlineto
          -41 0 rlineto
          1 10 0 10 0 12 rrcurveto
          0 77 -19 111 -93 0 rrcurveto
          -56 0 -45 -40 0 -50 rrcurveto
          0 -50 45 -40 55 0 rrcurveto
          10 0 10 1 10 3 rrcurveto
          2 -7 0 -8 0 -7 rrcurveto
          0 -7 0 -8 -2 -7 rrcurveto
          -390 0 rlineto
          -22 0 -16 7 -10 13 rrcurveto
          408 90 rmoveto
          -11 0 -9 9 0 11 rrcurveto
          0 11 9 9 11 0 rrcurveto
          11 0 9 -9 0 -11 rrcurveto
          0 -11 -9 -9 -11 0 rrcurveto
          endchar
        </CharString>
        <CharString name="fehDotless-ar.fina.1">
          600 0 70 40 70 40 70 hstem
          360 80 40 80 vstem
          460 110 rmoveto
          7 0 7 1 6 1 rrcurveto
          0 -42 rlineto
          -380 0 rlineto
          -22 0 -16 7 -10 13 rrcurveto
          -52 -90 rlineto
          600 0 rlineto
          0 70 rlineto
          -40 0 rlineto
          0 130 rlineto
          0 50 -45 40 -55 0 rrcurveto
          -55 0 -45 -40 0 -50 rrcurveto
          0 -50 45 -40 55 0 rrcurveto
          0 70 rmoveto
          -11 0 -9 9 0 11 rrcurveto
          0 11 9 9 11 0 rrcurveto
          11 0 9 -9 0 -11 rrcurveto
          0 -11 -9 -9 -11 0 rrcurveto
          endchar
        </CharString>
        <CharString name="fehDotless-ar.fina.2">
          653 0 70 40 70 40 70 hstem
          400 80 52 81 vstem
          0 0 rmoveto
          653 0 rlineto
          0 70 rlineto
          -41 0 rlineto
          1 10 0 10 0 12 rrcurveto
          0 77 -19 111 -93 0 rrcurveto
          -56 0 -45 -40 0 -50 rrcurveto
          0 -50 45 -40 55 0 rrcurveto
          10 0 10 1 10 3 rrcurveto
          2 -7 0 -8 0 -7 rrcurveto
          0 -7 0 -8 -2 -7 rrcurveto
          -430 0 rlineto
          -22 0 -16 7 -10 13 rrcurveto
          448 90 rmoveto
          -11 0 -9 9 0 11 rrcurveto
          0 11 9 9 11 0 rrcurveto
          11 0 9 -9 0 -11 rrcurveto
          0 -11 -9 -9 -11 0 rrcurveto
          endchar
        </CharString>
        <CharString name="fehDotless-ar.fina.3">
          640 0 70 40 70 40 70 hstem
          400 80 40 80 vstem
          500 110 rmoveto
          7 0 7 1 6 1 rrcurveto
          0 -42 rlineto
          -420 0 rlineto
          -22 0 -16 7 -10 13 rrcurveto
          -52 -90 rlineto
          640 0 rlineto
          0 70 rlineto
          -40 0 rlineto
          0 130 rlineto
          0 50 -45 40 -55 0 rrcurveto
          -55 0 -45 -40 0 -50 rrcurveto
          0 -50 45 -40 55 0 rrcurveto
          0 70 rmoveto
          -11 0 -9 9 0 11 rrcurveto
          0 11 9 9 11 0 rrcurveto
          11 0 9 -9 0 -11 rrcurveto
          0 -11 -9 -9 -11 0 rrcurveto
          endchar
        </CharString>
        <CharString name="fehDotless-ar.init">
          253 0 70 40 70 40 70 hstem
          0 80 52 81 vstem
          -20 0 rmoveto
          196 0 rlineto
          24 0 13 37 0 65 rrcurveto
          0 77 -19 111 -93 0 rrcurveto
          -56 0 -45 -40 0 -50 rrcurveto
          0 -50 45 -40 55 0 rrcurveto
          10 0 10 1 10 3 rrcurveto
          2 -7 0 -8 0 -7 rrcurveto
          0 -7 0 -8 -2 -7 rrcurveto
          -150 0 rlineto
          120 110 rmoveto
          -11 0 -9 9 0 11 rrcurveto
          0 11 9 9 11 0 rrcurveto
          11 0 9 -9 0 -11 rrcurveto
          0 -11 -9 -9 -11 0 rrcurveto
          endchar
        </CharString>
        <CharString name="fehDotless-ar.init.1">
          240 0 70 40 70 40 70 hstem
          0 80 40 80 vstem
          -20 0 rmoveto
          199 0 rlineto
          6 0 15 0 0 11 rrcurveto
          0 189 rlineto
          0 50 -45 40 -55 0 rrcurveto
          -55 0 -45 -40 0 -50 rrcurveto
          0 -50 45 -40 55 0 rrcurveto
          7 0 7 1 6 1 rrcurveto
          0 -42 rlineto
          -140 0 rlineto
          120 110 rmoveto
          -11 0 -9 9 0 11 rrcurveto
          0 11 9 9 11 0 rrcurveto
          11 0 9 -9 0 -11 rrcurveto
          0 -11 -9 -9 -11 0 rrcurveto
          endchar
        </CharString>
        <CharString name="fehDotless-ar.medi">
          248 0 70 170 70 hstem
          -1 78 49 80 vstem
          -20 0 rmoveto
          268 0 rlineto
          0 70 rlineto
          -42 0 rlineto
          0 137 rlineto
          0 57 -46 46 -57 0 rrcurveto
          -57 0 -47 -46 0 -57 rrcurveto
          0 -28 15 -26 19 -19 rrcurveto
          62 -64 rlineto
          -115 0 rlineto
          146 83 rmoveto
          -40 41 rlineto
          -5 5 -4 7 0 8 rrcurveto
          0 14 8 12 15 0 rrcurveto
          14 0 12 -12 0 -14 rrcurveto
          0 -61 rlineto
          endchar
        </CharString>
        <CharString name="fehDotless-ar.medi.1">
          240 0 70 40 70 40 70 hstem
          0 80 40 80 vstem
          -20 0 rmoveto
          260 0 rlineto
          0 70 rlineto
          -40 0 rlineto
          0 130 rlineto
          0 50 -45 40 -55 0 rrcurveto
          -55 0 -45 -40 0 -50 rrcurveto
          0 -50 45 -40 55 0 rrcurveto
          7 0 7 1 6 1 rrcurveto
          0 -42 rlineto
          -140 0 rlineto
          120 110 rmoveto
          -11 0 -9 9 0 11 rrcurveto
          0 11 9 9 11 0 rrcurveto
          11 0 9 -9 0 -11 rrcurveto
          0 -11 -9 -9 -11 0 rrcurveto
          endchar
        </CharString>
        <CharString name="fehDotmovedbelow-ar">
          613 0 70 40 70 40 70 hstem
          360 80 52 81 vstem
          0 0 rmoveto
          536 0 rlineto
          24 0 13 37 0 65 rrcurveto
          0 77 -19 111 -93 0 rrcurveto
          -56 0 -45 -40 0 -50 rrcurveto
          0 -50 45 -40 55 0 rrcurveto
          10 0 10 1 10 3 rrcurveto
          2 -7 0 -8 0 -7 rrcurveto
          0 -7 0 -8 -2 -7 rrcurveto
          -390 0 rlineto
          -22 0 -16 7 -10 13 rrcurveto
          405 -214 rmoveto
          47 79 rlineto
          -17 10 rlineto
          -47 -79 rlineto
          20 294 rmoveto
          -11 0 -9 9 0 11 rrcurveto
          0 11 9 9 11 0 rrcurveto
          11 0 9 -9 0 -11 rrcurveto
          0 -11 -9 -9 -11 0 rrcurveto
          endchar
        </CharString>
        <CharString name="five">
          250 0 70 70 70 70 70 hstem
          0 70 70 70 vstem
          0 0 rmoveto
          210 0 rlineto
          0 210 rlineto
          -140 0 rlineto
          0 70 rlineto
          140 0 rlineto
          0 70 rlineto
          -210 0 rlineto
          0 -210 rlineto
          140 0 rlineto
          0 -70 rlineto
          -140 0 rlineto
          endchar
        </CharString>
        <CharString name="five-ar">
          250 0 70 210 70 hstem
          0 70 70 70 vstem
          0 350 rmoveto
          0 -350 rlineto
          210 0 rlineto
          0 350 rlineto
          -140 -280 rmoveto
          0 210 rlineto
          70 0 rlineto
          0 -210 rlineto
          -70 0 rlineto
          endchar
        </CharString>
        <CharString name="five-persian">
          250 0 70 210 70 hstem
          0 70 70 70 vstem
          0 350 rmoveto
          0 -350 rlineto
          210 0 rlineto
          0 350 rlineto
          -140 -280 rmoveto
          0 210 rlineto
          70 0 rlineto
          0 -210 rlineto
          -70 0 rlineto
          endchar
        </CharString>
        <CharString name="four">
          250 21 -21 189 70 hstem
          0 70 70 70 vstem
          70 350 rmoveto
          -70 0 rlineto
          0 -161 rlineto
          140 0 rlineto
          0 -189 rlineto
          70 0 rlineto
          0 350 rlineto
          -70 0 rlineto
          0 -91 rlineto
          -70 0 rlineto
          endchar
        </CharString>
        <CharString name="four-ar">
          350 0 70 70 70 70 70 hstemhm
          0 70 50 70 -70 190 hintmask 11111000
          120 350 rmoveto
          0 -140 rlineto
          -50 0 rlineto
          0 140 rlineto
          -70 0 rlineto
          0 -350 rlineto
          hintmask 11110100
          310 0 rlineto
          0 70 rlineto
          -240 0 rlineto
          0 70 rlineto
          240 0 rlineto
          0 70 rlineto
          hintmask 11111000
          -120 0 rlineto
          0 70 rlineto
          hintmask 11110100
          120 0 rlineto
          0 70 rlineto
          endchar
        </CharString>
        <CharString name="four-ar.1">
          350 21 -21 140 70 70 70 hstem
          0 70 50 70 vstem
          120 350 rmoveto
          0 -140 rlineto
          -50 0 rlineto
          0 140 rlineto
          -70 0 rlineto
          0 -350 rlineto
          70 0 rlineto
          0 140 rlineto
          240 0 rlineto
          0 70 rlineto
          -120 0 rlineto
          0 70 rlineto
          120 0 rlineto
          0 70 rlineto
          endchar
        </CharString>
        <CharString name="four-ar.2">
          250 0 70 70 70 70 70 hstemhm
          0 70 -70 210 hintmask 11110000
          0 350 rmoveto
          0 -350 rlineto
          hintmask 11101000
          210 0 rlineto
          0 70 rlineto
          hintmask 11110000
          -140 0 rlineto
          0 70 rlineto
          hintmask 11101000
          140 0 rlineto
          0 70 rlineto
          hintmask 11110000
          -140 0 rlineto
          0 70 rlineto
          hintmask 11101000
          140 0 rlineto
          0 70 rlineto
          endchar
        </CharString>
        <CharString name="four-ar.osf">
          350 0 70 70 70 70 70 hstemhm
          0 70 50 70 -70 190 hintmask 11111000
          120 350 rmoveto
          0 -140 rlineto
          -50 0 rlineto
          0 140 rlineto
          -70 0 rlineto
          0 -350 rlineto
          hintmask 11110100
          310 0 rlineto
          0 70 rlineto
          -240 0 rlineto
          0 70 rlineto
          240 0 rlineto
          0 70 rlineto
          hintmask 11111000
          -120 0 rlineto
          0 70 rlineto
          hintmask 11110100
          120 0 rlineto
          0 70 rlineto
          endchar
        </CharString>
        <CharString name="four-ar.osf.1">
          350 140 70 70 70 hstem
          0 70 50 70 vstem
          120 350 rmoveto
          0 -140 rlineto
          -50 0 rlineto
          0 140 rlineto
          -70 0 rlineto
          0 -460 rlineto
          70 0 rlineto
          0 250 rlineto
          240 0 rlineto
          0 70 rlineto
          -120 0 rlineto
          0 70 rlineto
          120 0 rlineto
          0 70 rlineto
          endchar
        </CharString>
        <CharString name="four-ar.osf.2">
          250 0 70 70 70 70 70 hstemhm
          0 70 -70 210 hintmask 11110000
          0 350 rmoveto
          0 -350 rlineto
          hintmask 11101000
          210 0 rlineto
          0 70 rlineto
          hintmask 11110000
          -140 0 rlineto
          0 70 rlineto
          hintmask 11101000
          140 0 rlineto
          0 70 rlineto
          hintmask 11110000
          -140 0 rlineto
          0 70 rlineto
          hintmask 11101000
          140 0 rlineto
          0 70 rlineto
          endchar
        </CharString>
        <CharString name="four-persian">
          350 0 70 70 70 70 70 hstemhm
          0 70 50 70 -70 190 hintmask 11111000
          120 350 rmoveto
          0 -140 rlineto
          -50 0 rlineto
          0 140 rlineto
          -70 0 rlineto
          0 -350 rlineto
          hintmask 11110100
          310 0 rlineto
          0 70 rlineto
          -240 0 rlineto
          0 70 rlineto
          240 0 rlineto
          0 70 rlineto
          hintmask 11111000
          -120 0 rlineto
          0 70 rlineto
          hintmask 11110100
          120 0 rlineto
          0 70 rlineto
          endchar
        </CharString>
        <CharString name="four-persian.urdu">
          320 21 -21 280 70 hstem
          0 70 50 70 vstem
          120 189 rmoveto
          70 0 rlineto
          0 91 rlineto
          90 0 rlineto
          0 70 rlineto
          -280 0 rlineto
          0 -350 rlineto
          70 0 rlineto
          0 280 rlineto
          50 0 rlineto
          endchar
        </CharString>
        <CharString name="g">
          240 -250 70 180 70 40 70 hstem
          0 80 40 80 vstem
          -50 -250 rmoveto
          212 0 rlineto
          23 0 15 15 0 25 rrcurveto
          0 300 rlineto
          0 130 rlineto
          -20 -35 -40 -5 -40 0 rrcurveto
          -55 0 -45 -40 0 -50 rrcurveto
          0 -60 45 -30 55 0 rrcurveto
          7 0 7 0 6 1 rrcurveto
          0 -181 rlineto
          -70 0 rlineto
          -20 0 -17 5 -11 15 rrcurveto
          98 230 rmoveto
          -11 0 -9 9 0 11 rrcurveto
          0 11 9 9 11 0 rrcurveto
          11 0 9 -9 0 -11 rrcurveto
          0 -11 -9 -9 -11 0 rrcurveto
          endchar
        </CharString>
        <CharString name="g.1">
          240 -250 70 180 70 40 70 hstem
          0 80 40 80 vstem
          -50 -250 rmoveto
          212 0 rlineto
          23 0 15 15 0 25 rrcurveto
          0 300 rlineto
          0 50 -45 40 -55 0 rrcurveto
          -55 0 -45 -40 0 -50 rrcurveto
          0 -60 45 -30 55 0 rrcurveto
          7 0 7 0 6 1 rrcurveto
          0 -181 rlineto
          -70 0 rlineto
          -20 0 -17 5 -11 15 rrcurveto
          98 230 rmoveto
          -11 0 -9 9 0 11 rrcurveto
          0 11 9 9 11 0 rrcurveto
          11 0 9 -9 0 -11 rrcurveto
          0 -11 -9 -9 -11 0 rrcurveto
          endchar
        </CharString>
        <CharString name="gaf-ar">
          640 0 70 40 70 380 -20 hstem
          40 80 396 84 vstem
          116 0 rmoveto
          463 0 rlineto
          6 0 15 0 0 21 rrcurveto
          0 139 -70 20 -44 0 rrcurveto
          -366 0 rlineto
          0 380 rlineto
          -80 -20 rlineto
          0 -430 rlineto
          436 0 rlineto
          22 0 18 -18 0 -22 rrcurveto
          -476 0 rlineto
          -40 -70 rlineto
          116 0 rlineto
          endchar
        </CharString>
        <CharString name="ghain-ar">
          680 -110 70 40 70 160 -20 30 -20 hstemhm
          0 80 274 62 hintmask 11011100
          90 -110 rmoveto
          445 0 rlineto
          41 70 rlineto
          -476 0 rlineto
          -11 0 -9 9 0 11 rrcurveto
          0 11 9 9 11 0 rrcurveto
          499 0 rlineto
          41 70 rlineto
          -139 0 rlineto
          -32 0 -53 47 0 31 rrcurveto
          hintmask 11101100
          0 29 65 38 20 12 rrcurveto
          -1 3 rlineto
          -53 -26 -93 -47 0 -48 rrcurveto
          0 -13 6 -13 16 -13 rrcurveto
          -286 0 rlineto
          -50 0 -40 -40 0 -50 rrcurveto
          hintmask 11011100
          0 -50 40 -40 50 0 rrcurveto
          309 340 rmoveto
          47 79 rlineto
          -17 10 rlineto
          -47 -79 rlineto
          endchar
        </CharString>
        <CharString name="h">
          240 21 -21 110 70 380 -20 hstem
          0 80 40 80 vstem
          80 39 rmoveto
          0 51 rlineto
          0 11 9 9 11 0 rrcurveto
          11 0 9 -9 0 -11 rrcurveto
          0 -110 rlineto
          80 20 rlineto
          0 90 rlineto
          0 50 -45 40 -55 0 rrcurveto
          -7 0 -6 0 -7 1 rrcurveto
          0 379 rlineto
          -80 -20 rlineto
          0 -560 rlineto
          80 20 rlineto
          0 39 rlineto
          endchar
        </CharString>
        <CharString name="h.1">
          240 0 180 -70 70 380 -20 hstemhm
          0 80 40 80 hintmask 10111000
          0 0 rmoveto
          80 0 rlineto
          hintmask 01111000
          0 90 rlineto
          0 11 9 9 11 0 rrcurveto
          11 0 9 -9 0 -11 rrcurveto
          hintmask 10111000
          0 -90 rlineto
          80 0 rlineto
          0 90 rlineto
          0 50 -45 40 -55 0 rrcurveto
          -7 0 -6 0 -7 1 rrcurveto
          0 379 rlineto
          -80 -20 rlineto
          endchar
        </CharString>
        <CharString name="hah-ar">
          640 -110 70 40 70 hstem
          0 80 vstem
          90 -110 rmoveto
          405 0 rlineto
          41 70 rlineto
          -436 0 rlineto
          -11 0 -9 9 0 11 rrcurveto
          0 11 9 9 11 0 rrcurveto
          459 0 rlineto
          41 70 rlineto
          -137 0 rlineto
          -58 0 -61 65 -61 75 rrcurveto
          -43 -70 rlineto
          19 -28 28 -29 15 -13 rrcurveto
          -212 0 rlineto
          -50 0 -40 -40 0 -50 rrcurveto
          0 -50 40 -40 50 0 rrcurveto
          endchar
        </CharString>
        <CharString name="hah-ar.1">
          660 -110 70 40 70 hstem
          0 80 vstem
          90 -110 rmoveto
          425 0 rlineto
          41 70 rlineto
          -456 0 rlineto
          -11 0 -9 9 0 11 rrcurveto
          0 11 9 9 11 0 rrcurveto
          479 0 rlineto
          41 70 rlineto
          -157 0 rlineto
          -58 0 -61 65 -61 75 rrcurveto
          -43 -70 rlineto
          19 -28 28 -29 15 -13 rrcurveto
          -212 0 rlineto
          -50 0 -40 -40 0 -50 rrcurveto
          0 -50 40 -40 50 0 rrcurveto
          endchar
        </CharString>
        <CharString name="hah-ar.2">
          680 -110 70 40 70 hstem
          0 80 vstem
          90 -110 rmoveto
          445 0 rlineto
          41 70 rlineto
          -476 0 rlineto
          -11 0 -9 9 0 11 rrcurveto
          0 11 9 9 11 0 rrcurveto
          499 0 rlineto
          41 70 rlineto
          -177 0 rlineto
          -58 0 -61 65 -61 75 rrcurveto
          -43 -70 rlineto
          19 -28 28 -29 15 -13 rrcurveto
          -212 0 rlineto
          -50 0 -40 -40 0 -50 rrcurveto
          0 -50 40 -40 50 0 rrcurveto
          endchar
        </CharString>
        <CharString name="hah-ar.3">
          490 -250 31 219 70 hstem
          0 80 vstem
          199 -250 rmoveto
          43 0 46 8 76 35 rrcurveto
          -49 -8 -35 -4 -26 0 rrcurveto
          -83 0 -91 36 0 90 rrcurveto
          0 67 50 26 40 0 rrcurveto
          239 0 rlineto
          41 70 rlineto
          -137 0 rlineto
          -58 0 -61 65 -61 75 rrcurveto
          -43 -70 rlineto
          19 -28 28 -29 15 -13 rrcurveto
          -2 0 rlineto
          -96 0 -54 -78 0 -82 rrcurveto
          0 -104 86 -56 113 0 rrcurveto
          endchar
        </CharString>
        <CharString name="hah-ar.4">
          607 -110 70 40 70 0 83 hstemhm
          0 42 hintmask 11010000
          131 -110 rmoveto
          331 0 rlineto
          41 70 rlineto
          -344 0 rlineto
          -32 0 -22 3 -23 23 rrcurveto
          hintmask 10110000
          -31 31 rlineto
          -17 17 9 47 14 -14 rrcurveto
          hintmask 11010000
          52 -52 rlineto
          10 -10 9 -5 12 0 rrcurveto
          386 0 rlineto
          41 70 rlineto
          -137 0 rlineto
          -58 0 -61 65 -61 75 rrcurveto
          -43 -70 rlineto
          19 -28 28 -29 15 -13 rrcurveto
          -93 0 rlineto
          -9 0 -5 5 -4 4 rrcurveto
          -64 64 rlineto
          hintmask 10110000
          -50 50 -44 -149 0 -49 rrcurveto
          hintmask 11010000
          0 -85 57 -19 74 -1 rrcurveto
          endchar
        </CharString>
        <CharString name="hah-ar.5">
          627 -110 70 40 70 0 83 hstemhm
          0 42 hintmask 11010000
          131 -110 rmoveto
          351 0 rlineto
          41 70 rlineto
          -364 0 rlineto
          -32 0 -22 3 -23 23 rrcurveto
          hintmask 10110000
          -31 31 rlineto
          -17 17 9 47 14 -14 rrcurveto
          hintmask 11010000
          52 -52 rlineto
          10 -10 9 -5 12 0 rrcurveto
          406 0 rlineto
          41 70 rlineto
          -157 0 rlineto
          -58 0 -61 65 -61 75 rrcurveto
          -43 -70 rlineto
          19 -28 28 -29 15 -13 rrcurveto
          -93 0 rlineto
          -9 0 -5 5 -4 4 rrcurveto
          -64 64 rlineto
          hintmask 10110000
          -50 50 -44 -149 0 -49 rrcurveto
          hintmask 11010000
          0 -85 57 -19 74 -1 rrcurveto
          endchar
        </CharString>
        <CharString name="hah-ar.fina">
          311 -250 31 219 70 160 -20 hstem
          0 80 vstem
          312 -160 rmoveto
          59 57 rlineto
          -59 103 rlineto
          59 0 rlineto
          0 70 rlineto
          -100 0 rlineto
          -92 160 rlineto
          -59 -57 rlineto
          59 -103 rlineto
          -29 0 rlineto
          -96 0 -54 -78 0 -82 rrcurveto
          0 -104 86 -56 113 0 rrcurveto
          43 0 46 8 76 35 rrcurveto
          -49 -8 -35 -4 -26 0 rrcurveto
          -83 0 -91 36 0 90 rrcurveto
          0 67 50 26 40 0 rrcurveto
          50 0 rlineto
          endchar
        </CharString>
        <CharString name="hah-ar.fina.1">
          490 -250 31 219 70 hstem
          0 80 vstem
          199 -250 rmoveto
          43 0 46 8 76 35 rrcurveto
          -49 -8 -35 -4 -26 0 rrcurveto
          -83 0 -91 36 0 90 rrcurveto
          0 67 50 26 40 0 rrcurveto
          239 0 rlineto
          41 70 rlineto
          -137 0 rlineto
          -58 0 -61 65 -61 75 rrcurveto
          -43 -70 rlineto
          19 -28 28 -29 15 -13 rrcurveto
          -2 0 rlineto
          -96 0 -54 -78 0 -82 rrcurveto
          0 -104 86 -56 113 0 rrcurveto
          endchar
        </CharString>
        <CharString name="hah-ar.init">
          400 0 70 hstem
          -20 380 vstem
          -20 0 rmoveto
          339 0 rlineto
          41 70 rlineto
          -137 0 rlineto
          -58 0 -61 65 -61 75 rrcurveto
          -43 -70 rlineto
          19 -28 28 -29 15 -13 rrcurveto
          -82 0 rlineto
          endchar
        </CharString>
        <CharString name="hah-ar.init.1">
          420 0 70 hstem
          -20 400 vstem
          -20 0 rmoveto
          359 0 rlineto
          41 70 rlineto
          -157 0 rlineto
          -58 0 -61 65 -61 75 rrcurveto
          -43 -70 rlineto
          19 -28 28 -29 15 -13 rrcurveto
          -82 0 rlineto
          endchar
        </CharString>
        <CharString name="hah-ar.init.2">
          440 0 70 hstem
          -20 420 vstem
          -20 0 rmoveto
          379 0 rlineto
          41 70 rlineto
          -177 0 rlineto
          -58 0 -61 65 -61 75 rrcurveto
          -43 -70 rlineto
          19 -28 28 -29 15 -13 rrcurveto
          -82 0 rlineto
          endchar
        </CharString>
        <CharString name="hah-ar.medi">
          191 0 70 160 -20 hstem
          -20 271 vstem
          192 -160 rmoveto
          59 57 rlineto
          -59 103 rlineto
          59 0 rlineto
          0 70 rlineto
          -100 0 rlineto
          -92 160 rlineto
          -59 -57 rlineto
          59 -103 rlineto
          -79 0 rlineto
          0 -70 rlineto
          100 0 rlineto
          19 0 rlineto
          endchar
        </CharString>
        <CharString name="hah-ar.medi.1">
          400 0 70 hstem
          -20 380 vstem
          -20 0 rmoveto
          339 0 rlineto
          41 70 rlineto
          -137 0 rlineto
          -58 0 -61 65 -61 75 rrcurveto
          -43 -70 rlineto
          19 -28 28 -29 15 -13 rrcurveto
          -82 0 rlineto
          endchar
        </CharString>
        <CharString name="hah-ar.medi.2">
          420 0 70 hstem
          -20 400 vstem
          -20 0 rmoveto
          359 0 rlineto
          41 70 rlineto
          -157 0 rlineto
          -58 0 -61 65 -61 75 rrcurveto
          -43 -70 rlineto
          19 -28 28 -29 15 -13 rrcurveto
          -82 0 rlineto
          endchar
        </CharString>
        <CharString name="hah-ar.medi.3">
          440 0 70 hstem
          -20 420 vstem
          -20 0 rmoveto
          379 0 rlineto
          41 70 rlineto
          -177 0 rlineto
          -58 0 -61 65 -61 75 rrcurveto
          -43 -70 rlineto
          19 -28 28 -29 15 -13 rrcurveto
          -82 0 rlineto
          endchar
        </CharString>
        <CharString name="hamza-ar">
          296 0 50 57 43 hstem
          85 56 vstem
          165 50 rmoveto
          -15 0 -9 12 0 14 rrcurveto
          0 15 12 16 26 0 rrcurveto
          10 0 11 -2 13 -5 rrcurveto
          -10 32 -25 18 -25 0 rrcurveto
          -55 0 -23 -56 13 -44 rrcurveto
          -19 0 rlineto
          -29 -50 rlineto
          186 0 rlineto
          30 50 rlineto
          -91 0 rlineto
          endchar
        </CharString>
        <CharString name="hamzaabove-ar">
          0 0 29 33 25 hstem
          0 125 vstem
          72 29 rmoveto
          -8 0 -5 7 0 8 rrcurveto
          0 9 7 9 15 0 rrcurveto
          5 0 7 -1 7 -3 rrcurveto
          -6 18 -14 11 -14 0 rrcurveto
          -32 0 -14 -33 8 -25 rrcurveto
          -11 0 rlineto
          -17 -29 rlineto
          108 0 rlineto
          17 29 rlineto
          -53 0 rlineto
          endchar
        </CharString>
        <CharString name="hamzabelow-ar">
          0 0 29 33 25 hstem
          0 125 vstem
          72 29 rmoveto
          -8 0 -5 7 0 8 rrcurveto
          0 9 7 9 15 0 rrcurveto
          5 0 7 -1 7 -3 rrcurveto
          -6 18 -14 11 -14 0 rrcurveto
          -32 0 -14 -33 8 -25 rrcurveto
          -11 0 rlineto
          -17 -29 rlineto
          108 0 rlineto
          17 29 rlineto
          -53 0 rlineto
          endchar
        </CharString>
        <CharString name="heh-ar">
          240 0 70 40 70 hstem
          0 80 40 80 vstem
          100 0 rmoveto
          65 0 35 30 0 60 rrcurveto
          0 130 rlineto
          -20 -35 -40 -5 -40 0 rrcurveto
          -55 0 -45 -40 0 -50 rrcurveto
          0 -60 45 -30 55 0 rrcurveto
          0 70 rmoveto
          -11 0 -9 9 0 11 rrcurveto
          0 11 9 9 11 0 rrcurveto
          11 0 9 -9 0 -11 rrcurveto
          0 -11 -9 -9 -11 0 rrcurveto
          endchar
        </CharString>
        <CharString name="heh-ar.1">
          240 0 70 40 70 hstem
          0 80 40 80 vstem
          100 0 rmoveto
          65 0 35 30 0 60 rrcurveto
          0 130 rlineto
          0 110 rlineto
          -80 -20 rlineto
          0 -129 rlineto
          -7 -1 -6 0 -7 0 rrcurveto
          -55 0 -45 -40 0 -50 rrcurveto
          0 -60 45 -30 55 0 rrcurveto
          0 70 rmoveto
          -11 0 -9 9 0 11 rrcurveto
          0 11 9 9 11 0 rrcurveto
          11 0 9 -9 0 -11 rrcurveto
          0 -11 -9 -9 -11 0 rrcurveto
          endchar
        </CharString>
        <CharString name="heh-ar.2">
          240 0 70 40 70 380 -20 hstem
          0 80 40 80 vstem
          100 0 rmoveto
          65 0 35 30 0 60 rrcurveto
          0 130 rlineto
          0 340 rlineto
          -80 -20 rlineto
          0 -359 rlineto
          -7 -1 -6 0 -7 0 rrcurveto
          -55 0 -45 -40 0 -50 rrcurveto
          0 -60 45 -30 55 0 rrcurveto
          0 70 rmoveto
          -11 0 -9 9 0 11 rrcurveto
          0 11 9 9 11 0 rrcurveto
          11 0 9 -9 0 -11 rrcurveto
          0 -11 -9 -9 -11 0 rrcurveto
          endchar
        </CharString>
        <CharString name="heh-ar.fina">
          240 0 70 40 70 hstem
          0 80 40 80 vstem
          100 0 rmoveto
          140 0 rlineto
          0 70 rlineto
          -40 0 rlineto
          0 20 rlineto
          0 130 rlineto
          -20 -35 -40 -5 -40 0 rrcurveto
          -55 0 -45 -40 0 -50 rrcurveto
          0 -60 45 -30 55 0 rrcurveto
          0 70 rmoveto
          -11 0 -9 9 0 11 rrcurveto
          0 11 9 9 11 0 rrcurveto
          11 0 9 -9 0 -11 rrcurveto
          0 -11 -9 -9 -11 0 rrcurveto
          endchar
        </CharString>
        <CharString name="heh-ar.fina.1">
          240 0 70 40 70 hstem
          0 80 40 80 vstem
          100 0 rmoveto
          140 0 rlineto
          0 70 rlineto
          -40 0 rlineto
          0 20 rlineto
          0 130 rlineto
          0 110 rlineto
          -80 -20 rlineto
          0 -129 rlineto
          -7 -1 -6 0 -7 0 rrcurveto
          -55 0 -45 -40 0 -50 rrcurveto
          0 -60 45 -30 55 0 rrcurveto
          0 70 rmoveto
          -11 0 -9 9 0 11 rrcurveto
          0 11 9 9 11 0 rrcurveto
          11 0 9 -9 0 -11 rrcurveto
          0 -11 -9 -9 -11 0 rrcurveto
          endchar
        </CharString>
        <CharString name="heh-ar.fina.2">
          240 0 70 40 70 380 -20 hstem
          0 80 40 80 vstem
          100 0 rmoveto
          140 0 rlineto
          0 70 rlineto
          -40 0 rlineto
          0 20 rlineto
          0 130 rlineto
          0 340 rlineto
          -80 -20 rlineto
          0 -359 rlineto
          -7 -1 -6 0 -7 0 rrcurveto
          -55 0 -45 -40 0 -50 rrcurveto
          0 -60 45 -30 55 0 rrcurveto
          0 70 rmoveto
          -11 0 -9 9 0 11 rrcurveto
          0 11 9 9 11 0 rrcurveto
          11 0 9 -9 0 -11 rrcurveto
          0 -11 -9 -9 -11 0 rrcurveto
          endchar
        </CharString>
        <CharString name="heh-ar.init">
          240 -110 70 40 70 40 70 hstem
          0 80 40 80 vstem
          100 -110 rmoveto
          65 0 35 30 0 60 rrcurveto
          0 235 rlineto
          -20 -35 -40 0 -40 0 rrcurveto
          -55 0 -45 -40 0 -50 rrcurveto
          0 -7 1 -7 1 -6 rrcurveto
          -52 0 rlineto
          0 -70 rlineto
          52 0 rlineto
          -1 -6 -1 -7 0 -7 rrcurveto
          0 -60 45 -30 55 0 rrcurveto
          0 180 rmoveto
          -11 0 -9 9 0 11 rrcurveto
          0 11 9 9 11 0 rrcurveto
          11 0 9 -9 0 -11 rrcurveto
          0 -11 -9 -9 -11 0 rrcurveto
          0 -110 rmoveto
          -11 0 -9 9 0 11 rrcurveto
          0 11 9 9 11 0 rrcurveto
          11 0 9 -9 0 -11 rrcurveto
          0 -11 -9 -9 -11 0 rrcurveto
          endchar
        </CharString>
        <CharString name="heh-ar.init.1">
          240 -110 70 40 70 40 70 51 -20 hstem
          0 80 40 80 vstem
          100 -110 rmoveto
          65 0 35 30 0 60 rrcurveto
          0 235 rlineto
          0 36 rlineto
          -80 -20 rlineto
          0 -51 rlineto
          -20 0 rlineto
          -55 0 -45 -40 0 -50 rrcurveto
          0 -7 1 -7 1 -6 rrcurveto
          -52 0 rlineto
          0 -70 rlineto
          52 0 rlineto
          -1 -6 -1 -7 0 -7 rrcurveto
          0 -60 45 -30 55 0 rrcurveto
          0 180 rmoveto
          -11 0 -9 9 0 11 rrcurveto
          0 11 9 9 11 0 rrcurveto
          11 0 9 -9 0 -11 rrcurveto
          0 -11 -9 -9 -11 0 rrcurveto
          0 -110 rmoveto
          -11 0 -9 9 0 11 rrcurveto
          0 11 9 9 11 0 rrcurveto
          11 0 9 -9 0 -11 rrcurveto
          0 -11 -9 -9 -11 0 rrcurveto
          endchar
        </CharString>
        <CharString name="heh-ar.init.2">
          240 0 70 40 20 40 70 hstemhm
          -20 220 -200 80 40 80 hintmask 11110000
          -20 0 rmoveto
          hintmask 11101100
          199 0 rlineto
          6 0 15 0 0 11 rrcurveto
          0 29 rlineto
          0 235 rlineto
          -20 -35 -40 0 -40 0 rrcurveto
          -55 0 -45 -40 0 -50 rrcurveto
          0 -11 2 -10 4 -9 rrcurveto
          -4 -9 -2 -10 0 -11 rrcurveto
          0 -7 1 -7 1 -6 rrcurveto
          hintmask 11110000
          -22 0 rlineto
          hintmask 11101100
          120 60 rmoveto
          -11 0 -9 9 0 11 rrcurveto
          0 11 9 9 11 0 rrcurveto
          11 0 9 -9 0 -11 rrcurveto
          0 -11 -9 -9 -11 0 rrcurveto
          0 -60 rmoveto
          -11 0 -9 9 0 11 rrcurveto
          0 11 9 9 11 0 rrcurveto
          11 0 9 -9 0 -11 rrcurveto
          0 -11 -9 -9 -11 0 rrcurveto
          endchar
        </CharString>
        <CharString name="heh-ar.init.3">
          240 0 70 40 20 40 70 hstem
          0 80 40 80 vstem
          -20 0 rmoveto
          199 0 rlineto
          6 0 15 0 0 11 rrcurveto
          0 29 rlineto
          0 235 rlineto
          0 35 rlineto
          -80 -20 rlineto
          0 -50 rlineto
          -20 0 rlineto
          -55 0 -45 -40 0 -50 rrcurveto
          0 -11 2 -10 4 -9 rrcurveto
          -4 -9 -2 -10 0 -11 rrcurveto
          0 -7 1 -7 1 -6 rrcurveto
          -22 0 rlineto
          120 60 rmoveto
          -11 0 -9 9 0 11 rrcurveto
          0 11 9 9 11 0 rrcurveto
          11 0 9 -9 0 -11 rrcurveto
          0 -11 -9 -9 -11 0 rrcurveto
          0 -60 rmoveto
          -11 0 -9 9 0 11 rrcurveto
          0 11 9 9 11 0 rrcurveto
          11 0 9 -9 0 -11 rrcurveto
          0 -11 -9 -9 -11 0 rrcurveto
          endchar
        </CharString>
        <CharString name="heh-ar.init.4">
          240 0 70 36 8 36 70 hstemhm
          -20 220 -202 82 -82 202 -80 80 hintmask 11110000
          -20 0 rmoveto
          hintmask 11101010
          199 0 rlineto
          6 0 15 0 0 11 rrcurveto
          0 9 rlineto
          0 235 rlineto
          -20 -35 -20 0 -40 0 rrcurveto
          hintmask 11100100
          -65 0 -57 -32 0 -72 rrcurveto
          0 -18 4 -16 6 -12 rrcurveto
          hintmask 11110000
          -28 0 rlineto
          hintmask 11101010
          100 44 rmoveto
          2 20 17 16 21 0 rrcurveto
          -2 -20 -17 -16 -21 0 rrcurveto
          40 -44 rmoveto
          -21 0 -17 16 -2 20 rrcurveto
          21 0 17 -16 2 -20 rrcurveto
          endchar
        </CharString>
        <CharString name="heh-ar.init.5">
          240 0 70 36 8 36 70 hstem
          -2 82 40 80 vstem
          -20 0 rmoveto
          199 0 rlineto
          6 0 15 0 0 11 rrcurveto
          0 9 rlineto
          0 235 rlineto
          0 35 rlineto
          -80 -20 rlineto
          0 -50 rlineto
          -65 0 -57 -32 0 -72 rrcurveto
          0 -18 4 -16 6 -12 rrcurveto
          -28 0 rlineto
          100 44 rmoveto
          2 20 17 16 21 0 rrcurveto
          -2 -20 -17 -16 -21 0 rrcurveto
          40 -44 rmoveto
          -21 0 -17 16 -2 20 rrcurveto
          21 0 17 -16 2 -20 rrcurveto
          endchar
        </CharString>
        <CharString name="heh-ar.init.6">
          240 0 70 160 -20 hstemhm
          -20 220 -200 200 -80 80 hintmask 11100000
          -20 0 rmoveto
          hintmask 11001000
          199 0 rlineto
          6 0 15 0 0 11 rrcurveto
          0 9 rlineto
          0 245 rlineto
          -16 -28 -24 -7 -40 0 rrcurveto
          hintmask 11010000
          -74 0 -46 -40 0 -63 rrcurveto
          0 -23 6 -20 6 -14 rrcurveto
          hintmask 11100000
          -32 0 rlineto
          hintmask 11001000
          109 90 rmoveto
          31 -30 rlineto
          -40 -10 rlineto
          31 -50 rmoveto
          -31 30 rlineto
          40 10 rlineto
          -9 -40 rlineto
          endchar
        </CharString>
        <CharString name="heh-ar.init.7">
          240 0 70 160 -20 hstem
          120 80 vstem
          -20 0 rmoveto
          199 0 rlineto
          6 0 15 0 0 11 rrcurveto
          0 9 rlineto
          0 245 rlineto
          0 35 rlineto
          -80 -20 rlineto
          0 -50 rlineto
          -74 0 -46 -40 0 -63 rrcurveto
          0 -23 6 -20 6 -14 rrcurveto
          -32 0 rlineto
          109 90 rmoveto
          31 -30 rlineto
          -40 -10 rlineto
          31 -50 rmoveto
          -31 30 rlineto
          40 10 rlineto
          -9 -40 rlineto
          endchar
        </CharString>
        <CharString name="heh-ar.medi">
          240 -110 70 40 70 40 70 hstem
          0 80 40 80 vstem
          100 -110 rmoveto
          65 0 35 30 0 60 rrcurveto
          0 20 rlineto
          40 0 rlineto
          0 70 rlineto
          -40 0 rlineto
          0 145 rlineto
          -20 -35 -40 0 -40 0 rrcurveto
          -55 0 -45 -40 0 -50 rrcurveto
          0 -7 1 -7 1 -6 rrcurveto
          -52 0 rlineto
          0 -70 rlineto
          52 0 rlineto
          -1 -6 -1 -7 0 -7 rrcurveto
          0 -60 45 -30 55 0 rrcurveto
          0 180 rmoveto
          -11 0 -9 9 0 11 rrcurveto
          0 11 9 9 11 0 rrcurveto
          11 0 9 -9 0 -11 rrcurveto
          0 -11 -9 -9 -11 0 rrcurveto
          0 -110 rmoveto
          -11 0 -9 9 0 11 rrcurveto
          0 11 9 9 11 0 rrcurveto
          11 0 9 -9 0 -11 rrcurveto
          0 -11 -9 -9 -11 0 rrcurveto
          endchar
        </CharString>
        <CharString name="heh-ar.medi.1">
          240 -110 70 40 70 40 70 51 -20 hstem
          0 80 40 80 vstem
          100 -110 rmoveto
          65 0 35 30 0 60 rrcurveto
          0 20 rlineto
          40 0 rlineto
          0 70 rlineto
          -40 0 rlineto
          0 145 rlineto
          0 36 rlineto
          -80 -20 rlineto
          0 -51 rlineto
          -20 0 rlineto
          -55 0 -45 -40 0 -50 rrcurveto
          0 -7 1 -7 1 -6 rrcurveto
          -52 0 rlineto
          0 -70 rlineto
          52 0 rlineto
          -1 -6 -1 -7 0 -7 rrcurveto
          0 -60 45 -30 55 0 rrcurveto
          0 180 rmoveto
          -11 0 -9 9 0 11 rrcurveto
          0 11 9 9 11 0 rrcurveto
          11 0 9 -9 0 -11 rrcurveto
          0 -11 -9 -9 -11 0 rrcurveto
          0 -110 rmoveto
          -11 0 -9 9 0 11 rrcurveto
          0 11 9 9 11 0 rrcurveto
          11 0 9 -9 0 -11 rrcurveto
          0 -11 -9 -9 -11 0 rrcurveto
          endchar
        </CharString>
        <CharString name="heh-ar.medi.2">
          240 0 70 40 20 40 70 hstem
          0 80 40 80 vstem
          -20 0 rmoveto
          260 0 rlineto
          0 70 rlineto
          -40 0 rlineto
          0 205 rlineto
          -20 -35 -40 0 -40 0 rrcurveto
          -55 0 -45 -40 0 -50 rrcurveto
          0 -11 2 -10 4 -9 rrcurveto
          -4 -9 -2 -10 0 -11 rrcurveto
          0 -7 1 -7 1 -6 rrcurveto
          -22 0 rlineto
          120 60 rmoveto
          -11 0 -9 9 0 11 rrcurveto
          0 11 9 9 11 0 rrcurveto
          11 0 9 -9 0 -11 rrcurveto
          0 -11 -9 -9 -11 0 rrcurveto
          0 -60 rmoveto
          -11 0 -9 9 0 11 rrcurveto
          0 11 9 9 11 0 rrcurveto
          11 0 9 -9 0 -11 rrcurveto
          0 -11 -9 -9 -11 0 rrcurveto
          endchar
        </CharString>
        <CharString name="heh-ar.medi.3">
          240 0 70 40 20 40 70 hstem
          0 80 40 80 vstem
          -20 0 rmoveto
          260 0 rlineto
          0 70 rlineto
          -40 0 rlineto
          0 205 rlineto
          0 35 rlineto
          -80 -20 rlineto
          0 -50 rlineto
          -20 0 rlineto
          -55 0 -45 -40 0 -50 rrcurveto
          0 -11 2 -10 4 -9 rrcurveto
          -4 -9 -2 -10 0 -11 rrcurveto
          0 -7 1 -7 1 -6 rrcurveto
          -22 0 rlineto
          120 60 rmoveto
          -11 0 -9 9 0 11 rrcurveto
          0 11 9 9 11 0 rrcurveto
          11 0 9 -9 0 -11 rrcurveto
          0 -11 -9 -9 -11 0 rrcurveto
          0 -60 rmoveto
          -11 0 -9 9 0 11 rrcurveto
          0 11 9 9 11 0 rrcurveto
          11 0 9 -9 0 -11 rrcurveto
          0 -11 -9 -9 -11 0 rrcurveto
          endchar
        </CharString>
        <CharString name="heh-ar.medi.4">
          240 0 70 36 8 36 70 hstemhm
          -2 82 -82 202 -80 80 hintmask 11110100
          -20 0 rmoveto
          260 0 rlineto
          0 70 rlineto
          -40 0 rlineto
          0 185 rlineto
          -20 -35 -20 0 -40 0 rrcurveto
          hintmask 11101000
          -65 0 -57 -32 0 -72 rrcurveto
          0 -18 4 -16 6 -12 rrcurveto
          -28 0 rlineto
          hintmask 11110100
          100 44 rmoveto
          2 20 17 16 21 0 rrcurveto
          -2 -20 -17 -16 -21 0 rrcurveto
          40 -44 rmoveto
          -21 0 -17 16 -2 20 rrcurveto
          21 0 17 -16 2 -20 rrcurveto
          endchar
        </CharString>
        <CharString name="heh-ar.medi.5">
          240 0 70 36 8 36 70 hstem
          -2 82 40 80 vstem
          -20 0 rmoveto
          260 0 rlineto
          0 70 rlineto
          -40 0 rlineto
          0 185 rlineto
          0 35 rlineto
          -80 -20 rlineto
          0 -50 rlineto
          -65 0 -57 -32 0 -72 rrcurveto
          0 -18 4 -16 6 -12 rrcurveto
          -28 0 rlineto
          100 44 rmoveto
          2 20 17 16 21 0 rrcurveto
          -2 -20 -17 -16 -21 0 rrcurveto
          40 -44 rmoveto
          -21 0 -17 16 -2 20 rrcurveto
          21 0 17 -16 2 -20 rrcurveto
          endchar
        </CharString>
        <CharString name="heh-ar.medi.6">
          240 0 70 160 -20 hstemhm
          -20 220 -200 200 -80 80 hintmask 11100000
          -20 0 rmoveto
          hintmask 11001000
          260 0 rlineto
          0 70 rlineto
          -40 0 rlineto
          0 195 rlineto
          -16 -28 -24 -7 -40 0 rrcurveto
          hintmask 11010000
          -74 0 -46 -40 0 -63 rrcurveto
          0 -23 6 -20 6 -14 rrcurveto
          hintmask 11100000
          -32 0 rlineto
          hintmask 11001000
          109 90 rmoveto
          31 -30 rlineto
          -40 -10 rlineto
          31 -50 rmoveto
          -31 30 rlineto
          40 10 rlineto
          -9 -40 rlineto
          endchar
        </CharString>
        <CharString name="heh-ar.medi.7">
          240 0 70 160 -20 hstem
          120 80 vstem
          -20 0 rmoveto
          260 0 rlineto
          0 70 rlineto
          -40 0 rlineto
          0 195 rlineto
          0 35 rlineto
          -80 -20 rlineto
          0 -50 rlineto
          -74 0 -46 -40 0 -63 rrcurveto
          0 -23 6 -20 6 -14 rrcurveto
          -32 0 rlineto
          109 90 rmoveto
          31 -30 rlineto
          -40 -10 rlineto
          31 -50 rmoveto
          -31 30 rlineto
          40 10 rlineto
          -9 -40 rlineto
          endchar
        </CharString>
        <CharString name="hehDoachashmee-ar">
          240 -110 70 40 70 40 70 hstem
          0 80 40 80 vstem
          100 -110 rmoveto
          65 0 35 30 0 60 rrcurveto
          0 235 rlineto
          -20 -35 -40 0 -40 0 rrcurveto
          -55 0 -45 -40 0 -50 rrcurveto
          0 -7 1 -7 1 -6 rrcurveto
          -52 0 rlineto
          0 -70 rlineto
          52 0 rlineto
          -1 -6 -1 -7 0 -7 rrcurveto
          0 -60 45 -30 55 0 rrcurveto
          0 180 rmoveto
          -11 0 -9 9 0 11 rrcurveto
          0 11 9 9 11 0 rrcurveto
          11 0 9 -9 0 -11 rrcurveto
          0 -11 -9 -9 -11 0 rrcurveto
          0 -110 rmoveto
          -11 0 -9 9 0 11 rrcurveto
          0 11 9 9 11 0 rrcurveto
          11 0 9 -9 0 -11 rrcurveto
          0 -11 -9 -9 -11 0 rrcurveto
          endchar
        </CharString>
        <CharString name="hehgoal-ar">
          240 0 70 40 70 hstem
          0 80 40 80 vstem
          100 0 rmoveto
          65 0 35 30 0 60 rrcurveto
          0 130 rlineto
          -20 -35 -40 -5 -40 0 rrcurveto
          -55 0 -45 -40 0 -50 rrcurveto
          0 -60 45 -30 55 0 rrcurveto
          0 70 rmoveto
          -11 0 -9 9 0 11 rrcurveto
          0 11 9 9 11 0 rrcurveto
          11 0 9 -9 0 -11 rrcurveto
          0 -11 -9 -9 -11 0 rrcurveto
          endchar
        </CharString>
        <CharString name="hehgoalHamzaabove-ar">
          240 0 70 40 70 55 29 33 25 hstem
          0 80 40 80 vstem
          100 0 rmoveto
          65 0 35 30 0 60 rrcurveto
          0 130 rlineto
          -20 -35 -40 -5 -40 0 rrcurveto
          -55 0 -45 -40 0 -50 rrcurveto
          0 -60 45 -30 55 0 rrcurveto
          13 264 rmoveto
          -8 0 -5 7 0 8 rrcurveto
          0 9 7 9 15 0 rrcurveto
          5 0 7 -1 7 -3 rrcurveto
          -6 18 -14 11 -14 0 rrcurveto
          -32 0 -14 -33 8 -25 rrcurveto
          -11 0 rlineto
          -17 -29 rlineto
          108 0 rlineto
          17 29 rlineto
          -53 0 rlineto
          -13 -194 rmoveto
          -11 0 -9 9 0 11 rrcurveto
          0 11 9 9 11 0 rrcurveto
          11 0 9 -9 0 -11 rrcurveto
          0 -11 -9 -9 -11 0 rrcurveto
          endchar
        </CharString>
        <CharString name="i">
          200 0 43 195 -20 hstem
          0 80 vstem
          80 80 rmoveto
          0 120 rlineto
          -80 -20 rlineto
          0 -100 rlineto
          0 -50 37 -30 40 0 rrcurveto
          30 0 31 16 22 34 rrcurveto
          -9 -4 -12 -3 -12 0 rrcurveto
          -24 0 -23 11 0 26 rrcurveto
          0 159 rmoveto
          0 20 rlineto
          -80 -21 rlineto
          0 -20 rlineto
          endchar
        </CharString>
        <CharString name="j">
          120 -250 20 468 -20 hstem
          0 80 vstem
          -40 -230 rmoveto
          10 -10 20 -10 22 0 rrcurveto
          38 0 30 30 0 50 rrcurveto
          0 370 rlineto
          -80 -20 rlineto
          0 -360 rlineto
          0 -30 -13 -20 -27 0 rrcurveto
          120 469 rmoveto
          0 20 rlineto
          -80 -21 rlineto
          0 -20 rlineto
          endchar
        </CharString>
        <CharString name="jeem-ar">
          640 -110 70 40 70 hstem
          0 80 vstem
          90 -110 rmoveto
          405 0 rlineto
          41 70 rlineto
          -436 0 rlineto
          -11 0 -9 9 0 11 rrcurveto
          0 11 9 9 11 0 rrcurveto
          459 0 rlineto
          41 70 rlineto
          -137 0 rlineto
          -58 0 -61 65 -61 75 rrcurveto
          -43 -70 rlineto
          19 -28 28 -29 15 -13 rrcurveto
          -212 0 rlineto
          -50 0 -40 -40 0 -50 rrcurveto
          0 -50 40 -40 50 0 rrcurveto
          180 -124 rmoveto
          47 79 rlineto
          -17 10 rlineto
          -47 -79 rlineto
          endchar
        </CharString>
        <CharString name="jeh-ar">
          312 -110 70 40 140 -119 -21 hstemhm
          213 84 hintmask 10110000
          -63 -110 rmoveto
          339 0 rlineto
          6 0 15 0 0 21 rrcurveto
          hintmask 11010000
          0 139 -69 43 -147 47 rrcurveto
          -81 -140 rlineto
          173 0 rlineto
          22 0 18 -18 0 -22 rrcurveto
          -236 0 rlineto
          79 255 rmoveto
          47 79 rlineto
          -17 10 rlineto
          -47 -79 rlineto
          63 -10 rmoveto
          47 79 rlineto
          -17 10 rlineto
          -47 -79 rlineto
          63 -10 rmoveto
          47 79 rlineto
          -17 10 rlineto
          -47 -79 rlineto
          endchar
        </CharString>
        <CharString name="k">
          260 21 -21 110 70 80 60 240 -20 hstemhm
          0 80 40 80 -60 80 hintmask 11111100
          80 39 rmoveto
          0 51 rlineto
          0 11 9 9 11 0 rrcurveto
          11 0 9 -9 0 -11 rrcurveto
          0 -110 rlineto
          80 20 rlineto
          0 90 rlineto
          0 16 -5 15 -8 13 rrcurveto
          hintmask 11111010
          62 58 -27 128 -98 0 rrcurveto
          -15 0 -15 -5 -14 -9 rrcurveto
          0 254 rlineto
          -80 -20 rlineto
          0 -560 rlineto
          80 20 rlineto
          hintmask 11111100
          0 39 rlineto
          0 142 rmoveto
          0 79 rlineto
          7 0 rlineto
          hintmask 11111010
          37 0 16 -23 0 -21 rrcurveto
          0 -19 -12 -17 -21 0 rrcurveto
          -7 0 rlineto
          hintmask 11111100
          -7 0 -6 0 -7 1 rrcurveto
          endchar
        </CharString>
        <CharString name="k.1">
          260 0 180 -70 70 80 60 240 -20 hstemhm
          0 80 40 80 -60 80 hintmask 10111100
          0 0 rmoveto
          80 0 rlineto
          hintmask 01111100
          0 90 rlineto
          0 11 9 9 11 0 rrcurveto
          11 0 9 -9 0 -11 rrcurveto
          hintmask 10111100
          0 -90 rlineto
          80 0 rlineto
          0 90 rlineto
          0 16 -5 15 -8 13 rrcurveto
          hintmask 10111010
          62 58 -27 128 -98 0 rrcurveto
          -15 0 -15 -5 -14 -9 rrcurveto
          0 254 rlineto
          -80 -20 rlineto
          80 -359 rmoveto
          0 79 rlineto
          7 0 rlineto
          37 0 16 -23 0 -21 rrcurveto
          0 -19 -12 -17 -21 0 rrcurveto
          -7 0 rlineto
          -7 0 -6 0 -7 1 rrcurveto
          endchar
        </CharString>
        <CharString name="kaf-ar">
          640 0 70 40 70 380 -20 hstem
          40 80 396 84 vstem
          116 0 rmoveto
          463 0 rlineto
          6 0 15 0 0 21 rrcurveto
          0 139 -70 20 -44 0 rrcurveto
          -366 0 rlineto
          0 380 rlineto
          -80 -20 rlineto
          0 -430 rlineto
          436 0 rlineto
          22 0 18 -18 0 -22 rrcurveto
          -476 0 rlineto
          -40 -70 rlineto
          116 0 rlineto
          endchar
        </CharString>
        <CharString name="kaf-ar.1">
          640 0 70 40 70 380 -20 hstem
          111 78 327 84 vstem
          62 110 rmoveto
          414 0 rlineto
          22 0 18 -18 0 -22 rrcurveto
          -476 0 rlineto
          -40 -70 rlineto
          579 0 rlineto
          6 0 15 0 0 21 rrcurveto
          0 139 -70 20 -44 0 rrcurveto
          -360 0 rlineto
          41 74 22 88 0 101 rrcurveto
          0 37 -3 39 -6 41 rrcurveto
          -80 -80 rlineto
          7 -40 4 -42 0 -43 rrcurveto
          0 -83 -15 -85 -34 -77 rrcurveto
          endchar
        </CharString>
        <CharString name="kaf-ar.2">
          640 0 70 40 70 hstem
          516 84 vstem
          116 0 rmoveto
          463 0 rlineto
          6 0 15 0 0 21 rrcurveto
          0 139 -70 20 -44 0 rrcurveto
          -366 0 rlineto
          27 70 rlineto
          -3 0 rlineto
          -80 -140 rlineto
          412 0 rlineto
          22 0 18 -18 0 -22 rrcurveto
          -476 0 rlineto
          -40 -70 rlineto
          116 0 rlineto
          endchar
        </CharString>
        <CharString name="kaf-ar.fina">
          640 0 70 40 70 380 -20 hstem
          40 80 396 124 vstem
          116 0 rmoveto
          524 0 rlineto
          0 70 rlineto
          -43 0 rlineto
          -15 95 -58 15 -38 0 rrcurveto
          -366 0 rlineto
          0 380 rlineto
          -80 -20 rlineto
          0 -430 rlineto
          436 0 rlineto
          22 0 18 -18 0 -22 rrcurveto
          -476 0 rlineto
          -40 -70 rlineto
          116 0 rlineto
          endchar
        </CharString>
        <CharString name="kaf-ar.fina.1">
          640 0 70 40 70 380 -20 hstem
          111 78 327 124 vstem
          62 110 rmoveto
          414 0 rlineto
          22 0 18 -18 0 -22 rrcurveto
          -476 0 rlineto
          -40 -70 rlineto
          640 0 rlineto
          0 70 rlineto
          -43 0 rlineto
          -15 95 -58 15 -38 0 rrcurveto
          -360 0 rlineto
          41 74 22 88 0 101 rrcurveto
          0 37 -3 39 -6 41 rrcurveto
          -80 -80 rlineto
          7 -40 4 -42 0 -43 rrcurveto
          0 -83 -15 -85 -34 -77 rrcurveto
          endchar
        </CharString>
        <CharString name="kaf-ar.fina.2">
          640 0 70 40 70 hstemhm
          0 640 -124 124 hintmask 11100000
          116 0 rmoveto
          hintmask 11010000
          524 0 rlineto
          0 70 rlineto
          -43 0 rlineto
          -15 95 -58 15 -38 0 rrcurveto
          -366 0 rlineto
          27 70 rlineto
          -3 0 rlineto
          -80 -140 rlineto
          412 0 rlineto
          22 0 18 -18 0 -22 rrcurveto
          -476 0 rlineto
          -40 -70 rlineto
          hintmask 11100000
          116 0 rlineto
          endchar
        </CharString>
        <CharString name="kaf-ar.init">
          580 0 70 40 70 hstem
          456 84 vstem
          -20 0 rmoveto
          539 0 rlineto
          6 0 15 0 0 21 rrcurveto
          0 139 -70 20 -44 0 rrcurveto
          -370 0 rlineto
          27 70 rlineto
          -3 0 rlineto
          -80 -140 rlineto
          416 0 rlineto
          22 0 18 -18 0 -22 rrcurveto
          -476 0 rlineto
          endchar
        </CharString>
        <CharString name="kaf-ar.init.1">
          600 0 70 40 70 380 -20 hstem
          73 77 326 84 vstem
          22 110 rmoveto
          414 0 rlineto
          22 0 18 -18 0 -22 rrcurveto
          -494 0 rlineto
          0 -70 rlineto
          557 0 rlineto
          6 0 15 0 0 21 rrcurveto
          0 139 -70 20 -44 0 rrcurveto
          -360 0 rlineto
          62 111 14 132 -22 137 rrcurveto
          -80 -80 rlineto
          25 -125 -11 -134 -52 -111 rrcurveto
          endchar
        </CharString>
        <CharString name="kaf-ar.init.2">
          600 0 70 40 70 380 -20 hstem
          0 80 396 84 vstem
          -20 0 rmoveto
          559 0 rlineto
          6 0 15 0 0 21 rrcurveto
          0 139 -70 20 -44 0 rrcurveto
          -366 0 rlineto
          0 380 rlineto
          -80 -20 rlineto
          0 -430 rlineto
          436 0 rlineto
          22 0 18 -18 0 -22 rrcurveto
          -496 0 rlineto
          endchar
        </CharString>
        <CharString name="kaf-ar.medi">
          580 0 70 40 70 hstemhm
          -20 600 -124 124 hintmask 11100000
          -20 0 rmoveto
          hintmask 11010000
          600 0 rlineto
          0 70 rlineto
          -43 0 rlineto
          -15 95 -58 15 -38 0 rrcurveto
          -370 0 rlineto
          27 70 rlineto
          -3 0 rlineto
          -80 -140 rlineto
          416 0 rlineto
          22 0 18 -18 0 -22 rrcurveto
          -476 0 rlineto
          endchar
        </CharString>
        <CharString name="kaf-ar.medi.1">
          600 0 70 40 70 380 -20 hstem
          0 80 396 124 vstem
          -20 0 rmoveto
          620 0 rlineto
          0 70 rlineto
          -43 0 rlineto
          -15 95 -58 15 -38 0 rrcurveto
          -366 0 rlineto
          0 380 rlineto
          -80 -20 rlineto
          0 -430 rlineto
          436 0 rlineto
          22 0 18 -18 0 -22 rrcurveto
          -496 0 rlineto
          endchar
        </CharString>
        <CharString name="kaf-ar.medi.2">
          600 0 70 40 70 380 -20 hstem
          73 77 326 124 vstem
          22 110 rmoveto
          414 0 rlineto
          22 0 18 -18 0 -22 rrcurveto
          -494 0 rlineto
          0 -70 rlineto
          618 0 rlineto
          0 70 rlineto
          -43 0 rlineto
          -15 95 -58 15 -38 0 rrcurveto
          -360 0 rlineto
          62 111 14 132 -22 137 rrcurveto
          -80 -80 rlineto
          25 -125 -11 -134 -52 -111 rrcurveto
          endchar
        </CharString>
        <CharString name="kashida-ar.medi">
          80 0 70 hstem
          -20 100 vstem
          -20 0 rmoveto
          100 0 rlineto
          0 70 rlineto
          -100 0 rlineto
          endchar
        </CharString>
        <CharString name="keheh-ar">
          640 0 70 40 70 380 -20 hstem
          40 80 396 84 vstem
          116 0 rmoveto
          463 0 rlineto
          6 0 15 0 0 21 rrcurveto
          0 139 -70 20 -44 0 rrcurveto
          -366 0 rlineto
          0 380 rlineto
          -80 -20 rlineto
          0 -430 rlineto
          436 0 rlineto
          22 0 18 -18 0 -22 rrcurveto
          -476 0 rlineto
          -40 -70 rlineto
          116 0 rlineto
          endchar
        </CharString>
        <CharString name="khah-ar">
          640 -110 70 40 70 172 -20 hstem
          0 80 vstem
          90 -110 rmoveto
          405 0 rlineto
          41 70 rlineto
          -436 0 rlineto
          -11 0 -9 9 0 11 rrcurveto
          0 11 9 9 11 0 rrcurveto
          459 0 rlineto
          41 70 rlineto
          -137 0 rlineto
          -58 0 -61 65 -61 75 rrcurveto
          -43 -70 rlineto
          19 -28 28 -29 15 -13 rrcurveto
          -212 0 rlineto
          -50 0 -40 -40 0 -50 rrcurveto
          0 -50 40 -40 50 0 rrcurveto
          419 273 rmoveto
          47 79 rlineto
          -17 10 rlineto
          -47 -79 rlineto
          endchar
        </CharString>
        <CharString name="l">
          200 0 43 517 -20 hstem
          0 80 vstem
          80 80 rmoveto
          0 480 rlineto
          -80 -20 rlineto
          0 -460 rlineto
          0 -50 37 -30 40 0 rrcurveto
          30 0 31 16 22 34 rrcurveto
          -9 -4 -12 -3 -12 0 rrcurveto
          -24 0 -23 11 0 26 rrcurveto
          endchar
        </CharString>
        <CharString name="lam-ar">
          190 -250 70 740 -20 hstem
          70 80 vstem
          -130 -250 rmoveto
          242 0 rlineto
          23 0 15 15 0 25 rrcurveto
          0 770 rlineto
          -80 -20 rlineto
          0 -720 rlineto
          -100 0 rlineto
          -20 0 -17 5 -11 15 rrcurveto
          endchar
        </CharString>
        <CharString name="lam-ar.fina">
          190 -250 70 180 70 490 -20 hstem
          70 80 vstem
          -130 -250 rmoveto
          242 0 rlineto
          23 0 15 15 0 25 rrcurveto
          0 210 rlineto
          40 0 rlineto
          0 70 rlineto
          -22 0 -18 18 0 22 rrcurveto
          0 450 rlineto
          -80 -20 rlineto
          0 -720 rlineto
          -100 0 rlineto
          -20 0 -17 5 -11 15 rrcurveto
          endchar
        </CharString>
        <CharString name="lam-ar.init">
          120 0 70 490 -20 hstem
          0 80 vstem
          -20 0 rmoveto
          62 0 rlineto
          23 0 15 15 0 25 rrcurveto
          0 520 rlineto
          -80 -20 rlineto
          0 -470 rlineto
          -20 0 rlineto
          endchar
        </CharString>
        <CharString name="lam-ar.init.hah">
          80 0 25 hstem
          0 80 vstem
          -20 0 rmoveto
          57 0 43 30 0 40 rrcurveto
          0 380 rlineto
          -80 -20 rlineto
          0 -360 rlineto
          0 -19 0 -26 -20 0 rrcurveto
          endchar
        </CharString>
        <CharString name="lam-ar.init.hah2">
          80 0 25 hstem
          0 80 vstem
          -20 0 rmoveto
          57 0 43 30 0 40 rrcurveto
          0 270 rlineto
          -80 -20 rlineto
          0 -250 rlineto
          0 -19 0 -26 -20 0 rrcurveto
          endchar
        </CharString>
        <CharString name="lam-ar.init.lellah">
          120 0 70 hstem
          0 80 vstem
          -20 0 rmoveto
          62 0 rlineto
          23 0 15 15 0 25 rrcurveto
          0 490 rlineto
          -80 -20 rlineto
          0 -440 rlineto
          -20 0 rlineto
          endchar
        </CharString>
        <CharString name="lam-ar.init.short">
          120 0 70 hstem
          0 80 vstem
          -20 0 rmoveto
          62 0 rlineto
          23 0 15 15 0 25 rrcurveto
          0 410 rlineto
          -80 -20 rlineto
          0 -360 rlineto
          -20 0 rlineto
          endchar
        </CharString>
        <CharString name="lam-ar.init.short2">
          120 0 70 hstem
          0 80 vstem
          -20 0 rmoveto
          62 0 rlineto
          23 0 15 15 0 25 rrcurveto
          0 300 rlineto
          -80 -20 rlineto
          0 -250 rlineto
          -20 0 rlineto
          endchar
        </CharString>
        <CharString name="lam-ar.medi">
          120 0 70 490 -20 hstem
          0 80 vstem
          -20 0 rmoveto
          140 0 rlineto
          0 70 rlineto
          -22 0 -18 18 0 22 rrcurveto
          0 450 rlineto
          -80 -20 rlineto
          0 -470 rlineto
          -20 0 rlineto
          endchar
        </CharString>
        <CharString name="lam-ar.medi.lellah">
          120 0 70 hstem
          0 80 vstem
          -20 0 rmoveto
          140 0 rlineto
          0 70 rlineto
          -22 0 -18 18 0 22 rrcurveto
          0 390 rlineto
          -80 -20 rlineto
          0 -410 rlineto
          -20 0 rlineto
          endchar
        </CharString>
        <CharString name="lam-ar.medi.short">
          120 0 70 hstem
          0 80 vstem
          -20 0 rmoveto
          140 0 rlineto
          0 70 rlineto
          -22 0 -18 18 0 22 rrcurveto
          0 340 rlineto
          -80 -20 rlineto
          0 -360 rlineto
          -20 0 rlineto
          endchar
        </CharString>
        <CharString name="lam-ar.medi.short2">
          120 0 70 hstem
          0 80 vstem
          -20 0 rmoveto
          140 0 rlineto
          0 70 rlineto
          -22 0 -18 18 0 22 rrcurveto
          0 230 rlineto
          -80 -20 rlineto
          0 -250 rlineto
          -20 0 rlineto
          endchar
        </CharString>
        <CharString name="lam-ar.medi.yeh">
          120 0 70 490 -20 hstem
          0 80 vstem
          80 80 rmoveto
          0 480 rlineto
          -80 -20 rlineto
          0 -540 rlineto
          120 0 rlineto
          0 70 rlineto
          -30 0 rlineto
          -7 0 -3 3 0 7 rrcurveto
          endchar
        </CharString>
        <CharString name="lam_alef-ar">
          360 0 70 490 -20 hstemhm
          -40 362 -92 92 hintmask 11100000
          0 0 rmoveto
          320 0 rlineto
          -114 197 rlineto
          hintmask 11010000
          65 109 39 134 12 120 rrcurveto
          -92 -40 rlineto
          -4 -101 -17 -84 -35 -81 rrcurveto
          -154 266 rlineto
          -60 -57 rlineto
          169 -294 rlineto
          hintmask 11100000
          -33 -54 -42 -55 -54 -60 rrcurveto
          156 123 rmoveto
          31 -53 rlineto
          -81 0 rlineto
          18 16 16 18 16 19 rrcurveto
          endchar
        </CharString>
        <CharString name="lam_alef-ar.1">
          255 0 70 490 -20 hstem
          0 80 55 80 vstem
          0 0 rmoveto
          215 0 rlineto
          0 100 rlineto
          0 29 -13 31 -30 22 rrcurveto
          -92 66 rlineto
          0 312 rlineto
          -80 -20 rlineto
          0 -234 rlineto
          -213 154 rlineto
          -29 -77 rlineto
          242 -175 rlineto
          80 -58 rmoveto
          46 -33 rlineto
          4 -4 5 -5 0 -8 rrcurveto
          0 -30 rlineto
          -55 0 rlineto
          0 80 rlineto
          endchar
        </CharString>
        <CharString name="lam_alef-ar.2">
          320 0 60 500 -20 hstem
          40 80 40 80 vstem
          0 0 rmoveto
          280 0 rlineto
          -108 142 rlineto
          68 68 rlineto
          0 350 rlineto
          -80 -20 rlineto
          0 -330 rlineto
          -20 -26 rlineto
          -20 26 rlineto
          0 350 rlineto
          -80 -20 rlineto
          0 -330 rlineto
          68 -68 rlineto
          32 -32 rmoveto
          40 -40 rlineto
          -17 -13 -46 0 -17 13 rrcurveto
          40 40 rlineto
          endchar
        </CharString>
        <CharString name="lam_alef-ar.3">
          320 0 60 500 -20 hstem
          40 80 40 80 vstem
          0 0 rmoveto
          280 0 rlineto
          -108 142 rlineto
          68 68 rlineto
          0 350 rlineto
          -80 -20 rlineto
          0 -330 rlineto
          -20 -26 rlineto
          -20 26 rlineto
          0 320 rlineto
          -80 -20 rlineto
          0 -300 rlineto
          68 -68 rlineto
          32 -32 rmoveto
          40 -40 rlineto
          -17 -13 -46 0 -17 13 rrcurveto
          40 40 rlineto
          endchar
        </CharString>
        <CharString name="lam_alef-ar.4">
          400 0 70 490 -20 hstem
          80 80 40 80 vstem
          0 0 rmoveto
          360 0 rlineto
          -46 34 -62 54 -42 52 rrcurveto
          41 41 rlineto
          13 13 16 18 0 23 rrcurveto
          0 325 rlineto
          -80 -20 rlineto
          0 -305 rlineto
          0 -16 -8 -18 -12 -21 rrcurveto
          -12 21 -8 18 0 16 rrcurveto
          0 325 rlineto
          -80 -20 rlineto
          0 -305 rlineto
          0 -18 16 -23 13 -13 rrcurveto
          41 -41 rlineto
          -42 -52 -62 -54 -46 -34 rrcurveto
          180 110 rmoveto
          40 -40 rlineto
          -80 0 rlineto
          40 40 rlineto
          endchar
        </CharString>
        <CharString name="lam_alef-ar.5">
          400 0 70 490 -20 hstem
          80 80 40 80 vstem
          0 0 rmoveto
          360 0 rlineto
          -46 34 -62 54 -42 52 rrcurveto
          41 41 rlineto
          13 13 16 18 0 23 rrcurveto
          0 325 rlineto
          -80 -20 rlineto
          0 -305 rlineto
          0 -16 -8 -18 -12 -21 rrcurveto
          -12 21 -8 18 0 16 rrcurveto
          0 295 rlineto
          -80 -20 rlineto
          0 -275 rlineto
          0 -18 16 -23 13 -13 rrcurveto
          41 -41 rlineto
          -42 -52 -62 -54 -46 -34 rrcurveto
          180 110 rmoveto
          40 -40 rlineto
          -80 0 rlineto
          40 40 rlineto
          endchar
        </CharString>
        <CharString name="lam_alef-ar.fina">
          360 0 70 490 -20 hstemhm
          -40 400 -130 92 hintmask 11100000
          0 0 rmoveto
          360 0 rlineto
          0 70 rlineto
          -80 0 rlineto
          -74 127 rlineto
          hintmask 11010000
          65 109 39 134 12 120 rrcurveto
          -92 -40 rlineto
          -4 -101 -17 -84 -35 -81 rrcurveto
          -154 266 rlineto
          -60 -57 rlineto
          169 -294 rlineto
          hintmask 11100000
          -33 -54 -42 -55 -54 -60 rrcurveto
          156 123 rmoveto
          31 -53 rlineto
          -81 0 rlineto
          18 16 16 18 16 19 rrcurveto
          endchar
        </CharString>
        <CharString name="lam_alef-ar.fina.1">
          255 0 70 490 -20 hstem
          0 80 55 80 vstem
          0 0 rmoveto
          255 0 rlineto
          0 70 rlineto
          -40 0 rlineto
          0 30 rlineto
          0 29 -13 31 -30 22 rrcurveto
          -92 66 rlineto
          0 312 rlineto
          -80 -20 rlineto
          0 -234 rlineto
          -213 154 rlineto
          -29 -77 rlineto
          242 -175 rlineto
          80 -58 rmoveto
          46 -33 rlineto
          4 -4 5 -5 0 -8 rrcurveto
          0 -30 rlineto
          -55 0 rlineto
          0 80 rlineto
          endchar
        </CharString>
        <CharString name="lam_alef-ar.fina.2">
          320 0 60 -60 70 490 -20 hstemhm
          40 80 40 80 hintmask 10111000
          0 0 rmoveto
          320 0 rlineto
          hintmask 01111000
          0 70 rlineto
          -93 0 rlineto
          -55 72 rlineto
          68 68 rlineto
          0 350 rlineto
          -80 -20 rlineto
          0 -330 rlineto
          -20 -26 rlineto
          -20 26 rlineto
          0 350 rlineto
          -80 -20 rlineto
          0 -330 rlineto
          68 -68 rlineto
          32 -32 rmoveto
          40 -40 rlineto
          hintmask 10111000
          -17 -13 -46 0 -17 13 rrcurveto
          hintmask 01111000
          40 40 rlineto
          endchar
        </CharString>
        <CharString name="lam_alef-ar.fina.3">
          320 0 60 -60 70 490 -20 hstemhm
          40 80 40 80 hintmask 10111000
          0 0 rmoveto
          320 0 rlineto
          hintmask 01111000
          0 70 rlineto
          -93 0 rlineto
          -55 72 rlineto
          68 68 rlineto
          0 350 rlineto
          -80 -20 rlineto
          0 -330 rlineto
          -20 -26 rlineto
          -20 26 rlineto
          0 320 rlineto
          -80 -20 rlineto
          0 -300 rlineto
          68 -68 rlineto
          32 -32 rmoveto
          40 -40 rlineto
          hintmask 10111000
          -17 -13 -46 0 -17 13 rrcurveto
          hintmask 01111000
          40 40 rlineto
          endchar
        </CharString>
        <CharString name="lam_alef-ar.fina.4">
          400 0 70 490 -20 hstem
          80 80 40 80 vstem
          0 0 rmoveto
          400 0 rlineto
          0 70 rlineto
          -124 0 rlineto
          -24 22 -23 24 -19 24 rrcurveto
          41 41 rlineto
          13 13 16 18 0 23 rrcurveto
          0 325 rlineto
          -80 -20 rlineto
          0 -305 rlineto
          0 -16 -8 -18 -12 -21 rrcurveto
          -12 21 -8 18 0 16 rrcurveto
          0 325 rlineto
          -80 -20 rlineto
          0 -305 rlineto
          0 -18 16 -23 13 -13 rrcurveto
          41 -41 rlineto
          -42 -52 -62 -54 -46 -34 rrcurveto
          180 110 rmoveto
          40 -40 rlineto
          -80 0 rlineto
          40 40 rlineto
          endchar
        </CharString>
        <CharString name="lam_alef-ar.fina.5">
          400 0 70 490 -20 hstem
          80 80 40 80 vstem
          0 0 rmoveto
          400 0 rlineto
          0 70 rlineto
          -124 0 rlineto
          -24 22 -23 24 -19 24 rrcurveto
          41 41 rlineto
          13 13 16 18 0 23 rrcurveto
          0 325 rlineto
          -80 -20 rlineto
          0 -305 rlineto
          0 -16 -8 -18 -12 -21 rrcurveto
          -12 21 -8 18 0 16 rrcurveto
          0 295 rlineto
          -80 -20 rlineto
          0 -275 rlineto
          0 -18 16 -23 13 -13 rrcurveto
          41 -41 rlineto
          -42 -52 -62 -54 -46 -34 rrcurveto
          180 110 rmoveto
          40 -40 rlineto
          -80 0 rlineto
          40 40 rlineto
          endchar
        </CharString>
        <CharString name="m">
          360 21 -21 110 70 hstem
          0 80 40 80 40 80 vstem
          cntrmask 00111000
          80 39 rmoveto
          0 51 rlineto
          0 11 9 9 11 0 rrcurveto
          11 0 9 -9 0 -11 rrcurveto
          0 -110 rlineto
          80 20 rlineto
          0 90 rlineto
          0 11 9 9 11 0 rrcurveto
          11 0 9 -9 0 -11 rrcurveto
          0 -110 rlineto
          80 20 rlineto
          0 90 rlineto
          0 50 -45 40 -55 0 rrcurveto
          -22 0 -21 -7 -17 -11 rrcurveto
          -17 11 -21 7 -22 0 rrcurveto
          -40 0 -40 5 -20 35 rrcurveto
          0 -240 rlineto
          80 20 rlineto
          0 39 rlineto
          endchar
        </CharString>
        <CharString name="m.1">
          360 0 180 -70 70 hstemhm
          0 80 40 80 40 80 hintmask 10111000
          120 0 rmoveto
          80 0 rlineto
          hintmask 01111000
          0 90 rlineto
          0 11 9 9 11 0 rrcurveto
          11 0 9 -9 0 -11 rrcurveto
          hintmask 10111000
          0 -90 rlineto
          80 0 rlineto
          0 90 rlineto
          0 50 -45 40 -55 0 rrcurveto
          -22 0 -21 -7 -17 -11 rrcurveto
          -17 11 -21 7 -22 0 rrcurveto
          -40 0 -40 5 -20 35 rrcurveto
          0 -220 rlineto
          80 0 rlineto
          hintmask 01111000
          0 90 rlineto
          0 11 9 9 11 0 rrcurveto
          11 0 9 -9 0 -11 rrcurveto
          endchar
        </CharString>
        <CharString name="meem-ar">
          440 0 70 -70 180 -70 70 hstemhm
          200 80 40 80 hintmask 10111000
          0 0 rmoveto
          300 0 rlineto
          65 0 35 30 0 60 rrcurveto
          hintmask 01011000
          0 50 -45 40 -55 0 rrcurveto
          -55 0 -45 -40 0 -50 rrcurveto
          hintmask 10111000
          0 -7 1 -7 1 -6 rrcurveto
          -102 0 rlineto
          -20 0 -17 5 -11 15 rrcurveto
          248 -20 rmoveto
          -11 0 -9 9 0 11 rrcurveto
          0 11 9 9 11 0 rrcurveto
          11 0 9 -9 0 -11 rrcurveto
          0 -11 -9 -9 -11 0 rrcurveto
          endchar
        </CharString>
        <CharString name="meem-ar.1">
          280 0 70 -70 180 -70 70 hstemhm
          40 80 40 80 hintmask 10111000
          0 0 rmoveto
          140 0 rlineto
          65 0 35 30 0 60 rrcurveto
          hintmask 01011000
          0 50 -45 40 -55 0 rrcurveto
          -55 0 -45 -40 0 -50 rrcurveto
          hintmask 10111000
          0 -40 -5 -30 -35 -20 rrcurveto
          140 70 rmoveto
          -11 0 -9 9 0 11 rrcurveto
          0 11 9 9 11 0 rrcurveto
          11 0 9 -9 0 -11 rrcurveto
          0 -11 -9 -9 -11 0 rrcurveto
          endchar
        </CharString>
        <CharString name="meem-ar.2">
          278 -40 70 -9 -21 70 70 hstemhm
          158 80 hintmask 10110000
          138 -40 rmoveto
          65 0 35 30 0 60 rrcurveto
          0 50 -45 40 -55 0 rrcurveto
          -52 0 -43 -36 -5 -46 rrcurveto
          hintmask 01110000
          -3 -24 -10 -20 -25 -14 rrcurveto
          52 0 rlineto
          hintmask 10110000
          17 -27 32 -13 37 0 rrcurveto
          0 70 rmoveto
          -11 0 -9 9 0 11 rrcurveto
          0 11 9 9 11 0 rrcurveto
          11 0 9 -9 0 -11 rrcurveto
          0 -11 -9 -9 -11 0 rrcurveto
          endchar
        </CharString>
        <CharString name="meem-ar.fina">
          440 0 70 -70 180 -70 70 hstemhm
          200 80 40 80 -80 120 hintmask 10111000
          0 0 rmoveto
          hintmask 10110100
          440 0 rlineto
          0 70 rlineto
          hintmask 10111000
          -41 0 rlineto
          hintmask 01011000
          0 6 1 7 0 7 rrcurveto
          0 50 -45 40 -55 0 rrcurveto
          -55 0 -45 -40 0 -50 rrcurveto
          hintmask 10111000
          0 -7 1 -7 1 -6 rrcurveto
          -102 0 rlineto
          -20 0 -17 5 -11 15 rrcurveto
          248 -20 rmoveto
          -11 0 -9 9 0 11 rrcurveto
          0 11 9 9 11 0 rrcurveto
          11 0 9 -9 0 -11 rrcurveto
          0 -11 -9 -9 -11 0 rrcurveto
          endchar
        </CharString>
        <CharString name="meem-ar.fina.1">
          280 0 70 -70 180 -70 70 hstemhm
          40 80 40 80 -80 120 hintmask 10111000
          0 0 rmoveto
          hintmask 10110100
          280 0 rlineto
          0 70 rlineto
          hintmask 10111000
          -41 0 rlineto
          hintmask 01011000
          0 6 1 7 0 7 rrcurveto
          0 50 -45 40 -55 0 rrcurveto
          -55 0 -45 -40 0 -50 rrcurveto
          hintmask 10111000
          0 -40 -5 -30 -35 -20 rrcurveto
          140 70 rmoveto
          -11 0 -9 9 0 11 rrcurveto
          0 11 9 9 11 0 rrcurveto
          11 0 9 -9 0 -11 rrcurveto
          0 -11 -9 -9 -11 0 rrcurveto
          endchar
        </CharString>
        <CharString name="meem-ar.fina.2">
          278 -40 70 -30 70 0 70 hstemhm
          158 120 hintmask 10010000
          138 -40 rmoveto
          hintmask 01010000
          43 0 30 13 16 27 rrcurveto
          51 0 rlineto
          0 70 rlineto
          -43 0 rlineto
          hintmask 00110000
          -10 40 -39 30 -48 0 rrcurveto
          -52 0 -43 -36 -5 -46 rrcurveto
          hintmask 01010000
          -3 -24 -10 -20 -25 -14 rrcurveto
          52 0 rlineto
          hintmask 10010000
          17 -27 32 -13 37 0 rrcurveto
          hintmask 10110000
          0 70 rmoveto
          -11 0 -9 9 0 11 rrcurveto
          0 11 9 9 11 0 rrcurveto
          11 0 9 -9 0 -11 rrcurveto
          0 -11 -9 -9 -11 0 rrcurveto
          endchar
        </CharString>
        <CharString name="meem-ar.init">
          240 0 70 -70 180 -70 70 hstemhm
          -20 100 -80 80 40 80 hintmask 10110100
          -20 0 rmoveto
          120 0 rlineto
          65 0 35 30 0 60 rrcurveto
          hintmask 01001100
          0 50 -45 40 -55 0 rrcurveto
          -55 0 -45 -40 0 -50 rrcurveto
          hintmask 10101100
          0 -7 1 -7 1 -6 rrcurveto
          hintmask 10110100
          -22 0 rlineto
          hintmask 10101100
          120 0 rmoveto
          -11 0 -9 9 0 11 rrcurveto
          0 11 9 9 11 0 rrcurveto
          11 0 9 -9 0 -11 rrcurveto
          0 -11 -9 -9 -11 0 rrcurveto
          endchar
        </CharString>
        <CharString name="meem-ar.medi">
          240 0 70 40 70 hstemhm
          -20 100 -80 80 40 80 -80 120 hintmask 11100100
          -20 0 rmoveto
          260 0 rlineto
          0 70 rlineto
          hintmask 11011000
          -41 0 rlineto
          0 6 1 7 0 7 rrcurveto
          0 50 -45 40 -55 0 rrcurveto
          -55 0 -45 -40 0 -50 rrcurveto
          0 -7 1 -7 1 -6 rrcurveto
          hintmask 11101000
          -22 0 rlineto
          hintmask 11011000
          120 0 rmoveto
          -11 0 -9 9 0 11 rrcurveto
          0 11 9 9 11 0 rrcurveto
          11 0 9 -9 0 -11 rrcurveto
          0 -11 -9 -9 -11 0 rrcurveto
          endchar
        </CharString>
        <CharString name="meem-ar.medi.1">
          240 -40 70 -30 70 0 70 hstemhm
          -20 100 40 120 hintmask 10011000
          100 -40 rmoveto
          hintmask 01011000
          43 0 30 13 16 27 rrcurveto
          51 0 rlineto
          0 70 rlineto
          -43 0 rlineto
          hintmask 00111000
          -10 40 -39 30 -48 0 rrcurveto
          hintmask 01011000
          -48 0 -39 -30 -11 -40 rrcurveto
          -22 0 rlineto
          0 -70 rlineto
          31 0 rlineto
          hintmask 10011000
          16 -27 30 -13 43 0 rrcurveto
          hintmask 10111000
          0 70 rmoveto
          -11 0 -9 8 0 11 rrcurveto
          0 2 rlineto
          0 11 9 8 11 0 rrcurveto
          11 0 9 -9 0 -11 rrcurveto
          0 -11 -9 -9 -11 0 rrcurveto
          endchar
        </CharString>
        <CharString name="n">
          240 21 -21 110 70 hstem
          0 80 40 80 vstem
          80 39 rmoveto
          0 51 rlineto
          0 11 9 9 11 0 rrcurveto
          11 0 9 -9 0 -11 rrcurveto
          0 -110 rlineto
          80 20 rlineto
          0 90 rlineto
          0 50 -45 40 -55 0 rrcurveto
          -40 0 -40 5 -20 35 rrcurveto
          0 -240 rlineto
          80 20 rlineto
          0 39 rlineto
          endchar
        </CharString>
        <CharString name="n.1">
          240 0 180 -70 70 hstemhm
          0 80 40 80 hintmask 10110000
          0 0 rmoveto
          80 0 rlineto
          hintmask 01110000
          0 90 rlineto
          0 11 9 9 11 0 rrcurveto
          11 0 9 -9 0 -11 rrcurveto
          hintmask 10110000
          0 -90 rlineto
          80 0 rlineto
          0 90 rlineto
          0 50 -45 40 -55 0 rrcurveto
          -40 0 -40 5 -20 35 rrcurveto
          endchar
        </CharString>
        <CharString name="nine">
          250 0 70 70 70 70 70 hstem
          0 70 70 70 vstem
          0 70 rmoveto
          0 -70 rlineto
          210 0 rlineto
          0 350 rlineto
          -210 0 rlineto
          0 -210 rlineto
          140 0 rlineto
          0 -70 rlineto
          0 210 rmoveto
          0 -70 rlineto
          -70 0 rlineto
          0 70 rlineto
          70 0 rlineto
          endchar
        </CharString>
        <CharString name="nine-ar">
          250 21 -21 140 70 70 70 hstem
          0 70 70 70 vstem
          210 350 rmoveto
          -210 0 rlineto
          0 -210 rlineto
          140 0 rlineto
          0 -140 rlineto
          70 0 rlineto
          -70 280 rmoveto
          0 -70 rlineto
          -70 0 rlineto
          0 70 rlineto
          70 0 rlineto
          endchar
        </CharString>
        <CharString name="nine-ar.osf">
          250 140 70 70 70 hstem
          0 70 70 70 vstem
          210 350 rmoveto
          -210 0 rlineto
          0 -210 rlineto
          140 0 rlineto
          0 -250 rlineto
          70 0 rlineto
          -70 390 rmoveto
          0 -70 rlineto
          -70 0 rlineto
          0 70 rlineto
          70 0 rlineto
          endchar
        </CharString>
        <CharString name="nine-persian">
          250 21 -21 140 70 70 70 hstem
          0 70 70 70 vstem
          210 350 rmoveto
          -210 0 rlineto
          0 -210 rlineto
          140 0 rlineto
          0 -140 rlineto
          70 0 rlineto
          -70 280 rmoveto
          0 -70 rlineto
          -70 0 rlineto
          0 70 rlineto
          70 0 rlineto
          endchar
        </CharString>
        <CharString name="noon-ar">
          190 -250 70 hstem
          70 80 vstem
          -130 -250 rmoveto
          242 0 rlineto
          23 0 15 15 0 25 rrcurveto
          0 270 rlineto
          -80 80 rlineto
          -40 -70 rlineto
          40 -40 rlineto
          0 -210 rlineto
          -100 0 rlineto
          -20 0 -17 5 -11 15 rrcurveto
          158 365 rmoveto
          47 79 rlineto
          -17 10 rlineto
          -47 -79 rlineto
          endchar
        </CharString>
        <CharString name="noonghunna-ar">
          190 -250 70 hstem
          70 80 vstem
          -130 -250 rmoveto
          242 0 rlineto
          23 0 15 15 0 25 rrcurveto
          0 270 rlineto
          -80 80 rlineto
          -40 -70 rlineto
          40 -40 rlineto
          0 -210 rlineto
          -100 0 rlineto
          -20 0 -17 5 -11 15 rrcurveto
          endchar
        </CharString>
        <CharString name="noonghunna-ar.fina">
          190 -250 70 180 70 hstem
          70 80 vstem
          -130 -250 rmoveto
          242 0 rlineto
          23 0 15 15 0 25 rrcurveto
          0 210 rlineto
          40 0 rlineto
          0 70 rlineto
          -50 0 rlineto
          -70 70 rlineto
          -40 -70 rlineto
          40 -40 rlineto
          0 -210 rlineto
          -100 0 rlineto
          -20 0 -17 5 -11 15 rrcurveto
          endchar
        </CharString>
        <CharString name="o">
          240 0 70 40 70 hstem
          0 80 40 80 vstem
          100 0 rmoveto
          65 0 35 30 0 60 rrcurveto
          0 50 -45 40 -55 0 rrcurveto
          -55 0 -45 -40 0 -50 rrcurveto
          0 -60 45 -30 55 0 rrcurveto
          0 70 rmoveto
          -11 0 -9 9 0 11 rrcurveto
          0 11 9 9 11 0 rrcurveto
          11 0 9 -9 0 -11 rrcurveto
          0 -11 -9 -9 -11 0 rrcurveto
          endchar
        </CharString>
        <CharString name="one">
          110 21 -21 hstem
          0 70 vstem
          0 350 rmoveto
          0 -350 rlineto
          70 0 rlineto
          0 350 rlineto
          endchar
        </CharString>
        <CharString name="one-ar">
          110 21 -21 hstem
          0 70 vstem
          0 350 rmoveto
          0 -350 rlineto
          70 0 rlineto
          0 350 rlineto
          endchar
        </CharString>
        <CharString name="one-ar.osf">
          110 -110 460 hstem
          0 70 vstem
          0 350 rmoveto
          0 -460 rlineto
          70 0 rlineto
          0 460 rlineto
          endchar
        </CharString>
        <CharString name="one-persian">
          110 21 -21 hstem
          0 70 vstem
          0 350 rmoveto
          0 -350 rlineto
          70 0 rlineto
          0 350 rlineto
          endchar
        </CharString>
        <CharString name="p">
          240 -229 -21 250 70 40 70 hstem
          0 80 40 80 vstem
          0 90 rmoveto
          0 -130 rlineto
          0 -70 rlineto
          0 -140 rlineto
          80 20 rlineto
          0 120 rlineto
          0 109 rlineto
          7 1 6 0 7 0 rrcurveto
          55 0 45 40 0 50 rrcurveto
          0 60 -45 30 -55 0 rrcurveto
          -40 0 -40 5 -20 35 rrcurveto
          100 -110 rmoveto
          11 0 9 -9 0 -11 rrcurveto
          0 -11 -9 -9 -11 0 rrcurveto
          -11 0 -9 9 0 11 rrcurveto
          0 11 9 9 11 0 rrcurveto
          endchar
        </CharString>
        <CharString name="p.1">
          240 -229 -21 250 70 40 70 hstem
          0 80 40 80 vstem
          100 180 rmoveto
          -65 0 -35 -30 0 -60 rrcurveto
          0 -130 rlineto
          0 -70 rlineto
          0 -140 rlineto
          80 20 rlineto
          0 120 rlineto
          0 109 rlineto
          7 1 6 0 7 0 rrcurveto
          55 0 45 40 0 50 rrcurveto
          0 60 -45 30 -55 0 rrcurveto
          0 -70 rmoveto
          11 0 9 -9 0 -11 rrcurveto
          0 -11 -9 -9 -11 0 rrcurveto
          -11 0 -9 9 0 11 rrcurveto
          0 11 9 9 11 0 rrcurveto
          endchar
        </CharString>
        <CharString name="peh-ar">
          600 0 70 160 -20 hstem
          480 80 vstem
          0 0 rmoveto
          539 0 rlineto
          6 0 15 0 0 11 rrcurveto
          0 219 rlineto
          -80 -20 rlineto
          0 -140 rlineto
          -380 0 rlineto
          -22 0 -16 7 -10 13 rrcurveto
          210 -214 rmoveto
          47 79 rlineto
          -17 10 rlineto
          -47 -79 rlineto
          63 -10 rmoveto
          47 79 rlineto
          -17 10 rlineto
          -47 -79 rlineto
          63 -10 rmoveto
          47 79 rlineto
          -17 10 rlineto
          -47 -79 rlineto
          endchar
        </CharString>
        <CharString name="q">
          240 -229 -21 250 70 40 70 hstem
          0 80 40 80 vstem
          200 90 rmoveto
          0 130 rlineto
          -20 -35 -40 -5 -40 0 rrcurveto
          -55 0 -45 -30 0 -60 rrcurveto
          0 -50 45 -40 55 0 rrcurveto
          7 0 6 0 7 -1 rrcurveto
          0 -249 rlineto
          80 20 rlineto
          0 190 rlineto
          0 130 rlineto
          -100 20 rmoveto
          11 0 9 -9 0 -11 rrcurveto
          0 -11 -9 -9 -11 0 rrcurveto
          -11 0 -9 9 0 11 rrcurveto
          0 11 9 9 11 0 rrcurveto
          endchar
        </CharString>
        <CharString name="q.1">
          240 -229 -21 250 70 40 70 hstem
          0 80 40 80 vstem
          100 180 rmoveto
          -55 0 -45 -30 0 -60 rrcurveto
          0 -50 45 -40 55 0 rrcurveto
          7 0 6 0 7 -1 rrcurveto
          0 -249 rlineto
          80 20 rlineto
          0 190 rlineto
          0 130 rlineto
          0 60 -35 30 -65 0 rrcurveto
          0 -70 rmoveto
          11 0 9 -9 0 -11 rrcurveto
          0 -11 -9 -9 -11 0 rrcurveto
          -11 0 -9 9 0 11 rrcurveto
          0 11 9 9 11 0 rrcurveto
          endchar
        </CharString>
        <CharString name="qaf-ar">
          296 -250 70 40 70 70 70 40 70 65 -20 hstemhm
          0 80 40 80 -28 84 hintmask 11111110
          -64 -250 rmoveto
          hintmask 11111101
          299 0 rlineto
          6 0 15 0 0 21 rrcurveto
          0 139 -70 20 -44 0 rrcurveto
          -51 0 rlineto
          hintmask 11111110
          88 97 rlineto
          14 15 7 21 0 27 rrcurveto
          0 50 -45 40 -55 0 rrcurveto
          -55 0 -45 -40 0 -50 rrcurveto
          0 -60 45 -30 55 0 rrcurveto
          11 0 10 1 9 1 rrcurveto
          -130 -142 rlineto
          hintmask 11111101
          132 0 rlineto
          22 0 18 -18 0 -22 rrcurveto
          -196 0 rlineto
          hintmask 11111110
          124 250 rmoveto
          -11 0 -9 9 0 11 rrcurveto
          0 11 9 9 11 0 rrcurveto
          11 0 9 -9 0 -11 rrcurveto
          0 -11 -9 -9 -11 0 rrcurveto
          -38 165 rmoveto
          47 79 rlineto
          -17 10 rlineto
          -47 -79 rlineto
          63 -10 rmoveto
          47 79 rlineto
          -17 10 rlineto
          -47 -79 rlineto
          endchar
        </CharString>
        <CharString name="qafDotabove-ar">
          296 -250 70 40 70 70 70 40 70 65 -20 hstemhm
          0 80 40 80 -28 84 hintmask 11111110
          -64 -250 rmoveto
          hintmask 11111101
          299 0 rlineto
          6 0 15 0 0 21 rrcurveto
          0 139 -70 20 -44 0 rrcurveto
          -51 0 rlineto
          hintmask 11111110
          88 97 rlineto
          14 15 7 21 0 27 rrcurveto
          0 50 -45 40 -55 0 rrcurveto
          -55 0 -45 -40 0 -50 rrcurveto
          0 -60 45 -30 55 0 rrcurveto
          11 0 10 1 9 1 rrcurveto
          -130 -142 rlineto
          hintmask 11111101
          132 0 rlineto
          22 0 18 -18 0 -22 rrcurveto
          -196 0 rlineto
          124 415 rmoveto
          47 79 rlineto
          -17 10 rlineto
          -47 -79 rlineto
          hintmask 11111110
          17 -175 rmoveto
          -11 0 -9 9 0 11 rrcurveto
          0 11 9 9 11 0 rrcurveto
          11 0 9 -9 0 -11 rrcurveto
          0 -11 -9 -9 -11 0 rrcurveto
          endchar
        </CharString>
        <CharString name="qafDotless-ar">
          296 -250 70 40 70 70 70 40 70 hstemhm
          0 80 40 80 -28 84 hintmask 11111100
          -64 -250 rmoveto
          hintmask 11111010
          299 0 rlineto
          6 0 15 0 0 21 rrcurveto
          0 139 -70 20 -44 0 rrcurveto
          -51 0 rlineto
          hintmask 11111100
          88 97 rlineto
          14 15 7 21 0 27 rrcurveto
          0 50 -45 40 -55 0 rrcurveto
          -55 0 -45 -40 0 -50 rrcurveto
          0 -60 45 -30 55 0 rrcurveto
          11 0 10 1 9 1 rrcurveto
          -130 -142 rlineto
          hintmask 11111010
          132 0 rlineto
          22 0 18 -18 0 -22 rrcurveto
          -196 0 rlineto
          hintmask 11111100
          124 250 rmoveto
          -11 0 -9 9 0 11 rrcurveto
          0 11 9 9 11 0 rrcurveto
          11 0 9 -9 0 -11 rrcurveto
          0 -11 -9 -9 -11 0 rrcurveto
          endchar
        </CharString>
        <CharString name="qafDotless-ar.fina">
          256 -250 70 40 70 70 70 40 70 hstemhm
          0 80 40 80 -28 84 hintmask 11111100
          100 0 rmoveto
          27 0 rlineto
          -127 -140 rlineto
          hintmask 11111010
          132 0 rlineto
          22 0 18 -18 0 -22 rrcurveto
          -196 0 rlineto
          -40 -70 rlineto
          299 0 rlineto
          6 0 15 0 0 21 rrcurveto
          0 139 -70 20 -44 0 rrcurveto
          -51 0 rlineto
          hintmask 11111100
          64 70 rlineto
          101 0 rlineto
          0 70 rlineto
          -57 0 rlineto
          1 6 0 7 0 7 rrcurveto
          0 50 -45 40 -55 0 rrcurveto
          -55 0 -45 -40 0 -50 rrcurveto
          0 -60 45 -30 55 0 rrcurveto
          0 70 rmoveto
          -11 0 -9 9 0 11 rrcurveto
          0 11 9 9 11 0 rrcurveto
          11 0 9 -9 0 -11 rrcurveto
          0 -11 -9 -9 -11 0 rrcurveto
          endchar
        </CharString>
        <CharString name="r">
          217 21 -21 110 70 hstem
          0 80 vstem
          177 148 rmoveto
          -19 19 -27 13 -31 0 rrcurveto
          -40 0 -40 5 -20 35 rrcurveto
          0 -240 rlineto
          80 20 rlineto
          0 90 rlineto
          0 11 9 9 11 0 rrcurveto
          7 0 7 -4 3 -6 rrcurveto
          endchar
        </CharString>
        <CharString name="r.1">
          217 -229 -21 360 70 hstem
          0 80 vstem
          177 148 rmoveto
          -19 19 -27 13 -31 0 rrcurveto
          -40 0 -40 5 -20 35 rrcurveto
          0 -470 rlineto
          80 20 rlineto
          0 320 rlineto
          0 11 9 9 11 0 rrcurveto
          7 0 7 -4 3 -6 rrcurveto
          endchar
        </CharString>
        <CharString name="r.2">
          217 0 180 -70 70 hstemhm
          0 80 hintmask 01100000
          177 148 rmoveto
          -19 19 -27 13 -31 0 rrcurveto
          -40 0 -40 5 -20 35 rrcurveto
          hintmask 10100000
          0 -220 rlineto
          80 0 rlineto
          hintmask 01100000
          0 90 rlineto
          0 11 9 9 11 0 rrcurveto
          7 0 7 -4 3 -6 rrcurveto
          endchar
        </CharString>
        <CharString name="reh-ar">
          312 -110 70 40 140 -119 -21 hstemhm
          213 84 hintmask 10110000
          -63 -110 rmoveto
          339 0 rlineto
          6 0 15 0 0 21 rrcurveto
          hintmask 11010000
          0 139 -69 43 -147 47 rrcurveto
          -81 -140 rlineto
          173 0 rlineto
          22 0 18 -18 0 -22 rrcurveto
          -236 0 rlineto
          endchar
        </CharString>
        <CharString name="reh-ar.1">
          312 -110 70 40 105 hstem
          213 84 vstem
          -63 -110 rmoveto
          339 0 rlineto
          6 0 15 0 0 21 rrcurveto
          0 139 -68 46 -168 9 rrcurveto
          -61 -105 rlineto
          173 0 rlineto
          22 0 18 -18 0 -22 rrcurveto
          -236 0 rlineto
          endchar
        </CharString>
        <CharString name="reh-ar.2">
          400 0 70 hstem
          276 84 vstem
          0 0 rmoveto
          339 0 rlineto
          6 0 15 0 0 21 rrcurveto
          0 139 -69 43 -147 47 rrcurveto
          -80 -140 rlineto
          172 0 rlineto
          22 0 18 -18 0 -22 rrcurveto
          -236 0 rlineto
          endchar
        </CharString>
        <CharString name="reh-ar.3">
          400 0 70 40 105 hstem
          276 84 vstem
          0 0 rmoveto
          339 0 rlineto
          6 0 15 0 0 21 rrcurveto
          0 139 -68 46 -168 9 rrcurveto
          -60 -105 rlineto
          172 0 rlineto
          22 0 18 -18 0 -22 rrcurveto
          -236 0 rlineto
          endchar
        </CharString>
        <CharString name="reh-ar.fina">
          283 -110 70 40 70 hstem
          213 70 vstem
          -63 -110 rmoveto
          339 0 rlineto
          6 0 15 0 0 21 rrcurveto
          0 36 -5 30 -9 24 rrcurveto
          0 69 rlineto
          -50 0 rlineto
          -35 29 -51 20 -66 21 rrcurveto
          -81 -140 rlineto
          173 0 rlineto
          22 0 18 -18 0 -22 rrcurveto
          -236 0 rlineto
          endchar
        </CharString>
        <CharString name="reh-ar.fina.1">
          283 -110 70 40 70 hstem
          213 70 vstem
          -63 -110 rmoveto
          339 0 rlineto
          6 0 15 0 0 21 rrcurveto
          0 36 -4 29 -10 25 rrcurveto
          0 69 rlineto
          -61 0 rlineto
          -37 21 -53 10 -71 4 rrcurveto
          -61 -105 rlineto
          173 0 rlineto
          22 0 18 -18 0 -22 rrcurveto
          -236 0 rlineto
          endchar
        </CharString>
        <CharString name="rreh-ar">
          312 -110 70 40 140 -119 -21 215 21 14 24 hstemhm
          68 25 73 25 22 84 hintmask 10110101
          -63 -110 rmoveto
          339 0 rlineto
          6 0 15 0 0 21 rrcurveto
          hintmask 11010101
          0 139 -69 43 -147 47 rrcurveto
          -81 -140 rlineto
          173 0 rlineto
          22 0 18 -18 0 -22 rrcurveto
          -236 0 rlineto
          66 255 rmoveto
          hintmask 10110111
          142 0 rlineto
          4 0 2 0 0 6 rrcurveto
          hintmask 10111111
          0 44 -21 9 -14 0 rrcurveto
          -63 0 rlineto
          hintmask 10110101
          0 56 rlineto
          -25 -6 rlineto
          0 -88 rlineto
          -13 0 rlineto
          38 0 rmoveto
          hintmask 10111111
          0 14 rlineto
          59 0 rlineto
          4 0 4 -1 2 -3 rrcurveto
          3 -2 1 -4 0 -4 rrcurveto
          hintmask 10110101
          -73 0 rlineto
          endchar
        </CharString>
        <CharString name="s">
          238 0 71 39 70 hstem
          0 198 vstem
          0 71 rmoveto
          9 -48 41 -23 49 0 rrcurveto
          58 0 34 24 7 47 rrcurveto
          -146 39 rlineto
          144 0 rlineto
          -10 40 -40 30 -47 0 rrcurveto
          -48 0 -40 -30 -10 -41 rrcurveto
          141 -38 rlineto
          endchar
        </CharString>
        <CharString name="sad-ar">
          740 -250 70 180 70 40 70 hstem
          70 80 466 84 vstem
          -130 -250 rmoveto
          242 0 rlineto
          23 0 15 15 0 25 rrcurveto
          0 210 rlineto
          529 0 rlineto
          6 0 15 0 0 21 rrcurveto
          0 139 -70 20 -44 0 rrcurveto
          -436 0 rlineto
          -80 80 rlineto
          -40 -70 rlineto
          40 -40 rlineto
          0 -330 rlineto
          -100 0 rlineto
          -20 0 -17 5 -11 15 rrcurveto
          228 230 rmoveto
          0 40 rlineto
          426 0 rlineto
          22 0 18 -18 0 -22 rrcurveto
          -466 0 rlineto
          endchar
        </CharString>
        <CharString name="sad-ar.1">
          740 -250 70 180 70 40 70 50 -20 hstem
          70 80 466 84 vstem
          -130 -250 rmoveto
          242 0 rlineto
          23 0 15 15 0 25 rrcurveto
          0 210 rlineto
          529 0 rlineto
          6 0 15 0 0 21 rrcurveto
          0 139 -70 20 -44 0 rrcurveto
          -436 0 rlineto
          0 70 rlineto
          -80 -20 rlineto
          0 -410 rlineto
          -100 0 rlineto
          -20 0 -17 5 -11 15 rrcurveto
          228 230 rmoveto
          0 40 rlineto
          426 0 rlineto
          22 0 18 -18 0 -22 rrcurveto
          -466 0 rlineto
          endchar
        </CharString>
        <CharString name="sad-ar.fina">
          740 -250 70 180 70 40 70 hstem
          70 80 466 124 vstem
          -130 -250 rmoveto
          242 0 rlineto
          23 0 15 15 0 25 rrcurveto
          0 210 rlineto
          590 0 rlineto
          0 70 rlineto
          -43 0 rlineto
          -15 95 -58 15 -38 0 rrcurveto
          -436 0 rlineto
          -80 80 rlineto
          -40 -70 rlineto
          40 -40 rlineto
          0 -330 rlineto
          -100 0 rlineto
          -20 0 -17 5 -11 15 rrcurveto
          228 230 rmoveto
          0 40 rlineto
          426 0 rlineto
          22 0 18 -18 0 -22 rrcurveto
          -466 0 rlineto
          endchar
        </CharString>
        <CharString name="sad-ar.fina.1">
          740 -250 70 180 70 40 70 50 -20 hstem
          70 80 466 124 vstem
          -130 -250 rmoveto
          242 0 rlineto
          23 0 15 15 0 25 rrcurveto
          0 210 rlineto
          590 0 rlineto
          0 70 rlineto
          -43 0 rlineto
          -15 95 -58 15 -38 0 rrcurveto
          -436 0 rlineto
          0 70 rlineto
          -80 -20 rlineto
          0 -410 rlineto
          -100 0 rlineto
          -20 0 -17 5 -11 15 rrcurveto
          228 230 rmoveto
          0 40 rlineto
          426 0 rlineto
          22 0 18 -18 0 -22 rrcurveto
          -466 0 rlineto
          endchar
        </CharString>
        <CharString name="sad-ar.init">
          670 0 70 40 70 50 -20 hstem
          0 80 466 84 vstem
          46 0 rmoveto
          563 0 rlineto
          6 0 15 0 0 21 rrcurveto
          0 139 -70 20 -44 0 rrcurveto
          -436 0 rlineto
          0 70 rlineto
          -80 -20 rlineto
          0 -160 rlineto
          -20 0 rlineto
          0 -70 rlineto
          66 0 rlineto
          34 110 rmoveto
          426 0 rlineto
          22 0 18 -18 0 -22 rrcurveto
          -466 0 rlineto
          0 40 rlineto
          endchar
        </CharString>
        <CharString name="sad-ar.medi">
          670 0 70 40 70 50 -20 hstem
          0 80 466 124 vstem
          46 0 rmoveto
          624 0 rlineto
          0 70 rlineto
          -43 0 rlineto
          -15 95 -58 15 -38 0 rrcurveto
          -436 0 rlineto
          0 70 rlineto
          -80 -20 rlineto
          0 -160 rlineto
          -20 0 rlineto
          0 -70 rlineto
          66 0 rlineto
          34 110 rmoveto
          426 0 rlineto
          22 0 18 -18 0 -22 rrcurveto
          -466 0 rlineto
          0 40 rlineto
          endchar
        </CharString>
        <CharString name="seen-ar">
          430 -250 70 180 70 170 -20 hstem
          70 80 40 80 40 80 vstem
          -130 -250 rmoveto
          242 0 rlineto
          23 0 15 15 0 25 rrcurveto
          0 210 rlineto
          219 0 rlineto
          6 0 15 0 0 11 rrcurveto
          0 259 rlineto
          -80 -20 rlineto
          0 -180 rlineto
          -22 0 -18 18 0 22 rrcurveto
          0 130 rlineto
          -80 -20 rlineto
          0 -150 rlineto
          -22 0 -18 18 0 22 rrcurveto
          0 100 rlineto
          -80 -20 rlineto
          0 -370 rlineto
          -100 0 rlineto
          -20 0 -17 5 -11 15 rrcurveto
          endchar
        </CharString>
        <CharString name="seen-ar.1">
          430 -250 70 180 70 160 -20 30 -20 hstemhm
          70 80 40 80 40 80 hintmask 11011110
          -130 -250 rmoveto
          242 0 rlineto
          23 0 15 15 0 25 rrcurveto
          0 210 rlineto
          219 0 rlineto
          6 0 15 0 0 11 rrcurveto
          0 279 rlineto
          -80 -20 rlineto
          0 -200 rlineto
          -22 0 -18 18 0 22 rrcurveto
          0 150 rlineto
          -80 -20 rlineto
          0 -170 rlineto
          -22 0 -18 18 0 22 rrcurveto
          hintmask 11101110
          0 120 rlineto
          -80 -20 rlineto
          0 -390 rlineto
          -100 0 rlineto
          -20 0 -17 5 -11 15 rrcurveto
          endchar
        </CharString>
        <CharString name="seen-ar.2">
          430 -250 70 180 70 160 -20 hstem
          70 80 40 80 40 80 vstem
          -130 -250 rmoveto
          242 0 rlineto
          23 0 15 15 0 25 rrcurveto
          0 210 rlineto
          219 0 rlineto
          6 0 15 0 0 11 rrcurveto
          0 299 rlineto
          -80 -20 rlineto
          0 -220 rlineto
          -22 0 -18 18 0 22 rrcurveto
          0 170 rlineto
          -80 -20 rlineto
          0 -190 rlineto
          -22 0 -18 18 0 22 rrcurveto
          0 140 rlineto
          -80 -20 rlineto
          0 -410 rlineto
          -100 0 rlineto
          -20 0 -17 5 -11 15 rrcurveto
          endchar
        </CharString>
        <CharString name="seen-ar.3">
          430 -250 70 180 70 160 -20 hstem
          70 80 40 80 40 80 vstem
          -130 -250 rmoveto
          242 0 rlineto
          23 0 15 15 0 25 rrcurveto
          0 210 rlineto
          219 0 rlineto
          6 0 15 0 0 11 rrcurveto
          0 219 rlineto
          -80 -20 rlineto
          0 -140 rlineto
          -22 0 -18 18 0 22 rrcurveto
          0 120 rlineto
          -80 -20 rlineto
          0 -140 rlineto
          -22 0 -18 18 0 22 rrcurveto
          0 120 rlineto
          -80 -20 rlineto
          0 -390 rlineto
          -100 0 rlineto
          -20 0 -17 5 -11 15 rrcurveto
          endchar
        </CharString>
        <CharString name="seen-ar.4">
          430 -250 70 180 70 160 -20 hstem
          70 80 40 80 40 80 vstem
          -130 -250 rmoveto
          242 0 rlineto
          23 0 15 15 0 25 rrcurveto
          0 210 rlineto
          219 0 rlineto
          6 0 15 0 0 11 rrcurveto
          0 239 rlineto
          -80 -20 rlineto
          0 -160 rlineto
          -22 0 -18 18 0 22 rrcurveto
          0 140 rlineto
          -80 -20 rlineto
          0 -160 rlineto
          -22 0 -18 18 0 22 rrcurveto
          0 140 rlineto
          -80 -20 rlineto
          0 -410 rlineto
          -100 0 rlineto
          -20 0 -17 5 -11 15 rrcurveto
          endchar
        </CharString>
        <CharString name="seen-ar.5">
          430 -250 70 180 70 hstem
          70 80 40 80 40 80 vstem
          -130 -250 rmoveto
          242 0 rlineto
          23 0 15 15 0 25 rrcurveto
          0 210 rlineto
          219 0 rlineto
          6 0 15 0 0 11 rrcurveto
          0 259 rlineto
          -80 -20 rlineto
          0 -180 rlineto
          -22 0 -18 18 0 22 rrcurveto
          0 160 rlineto
          -80 -20 rlineto
          0 -180 rlineto
          -22 0 -18 18 0 22 rrcurveto
          0 160 rlineto
          -80 -20 rlineto
          0 -430 rlineto
          -100 0 rlineto
          -20 0 -17 5 -11 15 rrcurveto
          endchar
        </CharString>
        <CharString name="seen-ar.6">
          370 -250 70 180 70 hstem
          70 80 100 80 vstem
          -130 -250 rmoveto
          242 0 rlineto
          23 0 15 15 0 25 rrcurveto
          0 210 rlineto
          159 0 rlineto
          6 0 15 0 0 11 rrcurveto
          0 166 rlineto
          -80 -20 rlineto
          0 -87 rlineto
          -70 70 rlineto
          -40 -70 rlineto
          -70 70 rlineto
          -40 -70 rlineto
          40 -40 rlineto
          0 -210 rlineto
          -100 0 rlineto
          -20 0 -17 5 -11 15 rrcurveto
          endchar
        </CharString>
        <CharString name="seen-ar.fina">
          430 -250 70 180 70 170 -20 hstem
          70 80 40 80 40 80 vstem
          -130 -250 rmoveto
          242 0 rlineto
          23 0 15 15 0 25 rrcurveto
          0 210 rlineto
          280 0 rlineto
          0 70 rlineto
          -22 0 -18 18 0 22 rrcurveto
          0 160 rlineto
          -80 -20 rlineto
          0 -180 rlineto
          -22 0 -18 18 0 22 rrcurveto
          0 130 rlineto
          -80 -20 rlineto
          0 -150 rlineto
          -22 0 -18 18 0 22 rrcurveto
          0 100 rlineto
          -80 -20 rlineto
          0 -370 rlineto
          -100 0 rlineto
          -20 0 -17 5 -11 15 rrcurveto
          endchar
        </CharString>
        <CharString name="seen-ar.fina.1">
          430 -250 70 180 70 160 -20 30 -20 hstemhm
          70 80 40 80 40 80 hintmask 11011110
          -130 -250 rmoveto
          242 0 rlineto
          23 0 15 15 0 25 rrcurveto
          0 210 rlineto
          280 0 rlineto
          0 70 rlineto
          -22 0 -18 18 0 22 rrcurveto
          0 180 rlineto
          -80 -20 rlineto
          0 -200 rlineto
          -22 0 -18 18 0 22 rrcurveto
          0 150 rlineto
          -80 -20 rlineto
          0 -170 rlineto
          -22 0 -18 18 0 22 rrcurveto
          hintmask 11101110
          0 120 rlineto
          -80 -20 rlineto
          0 -390 rlineto
          -100 0 rlineto
          -20 0 -17 5 -11 15 rrcurveto
          endchar
        </CharString>
        <CharString name="seen-ar.fina.2">
          430 -250 70 180 70 160 -20 hstem
          70 80 40 80 40 80 vstem
          -130 -250 rmoveto
          242 0 rlineto
          23 0 15 15 0 25 rrcurveto
          0 210 rlineto
          280 0 rlineto
          0 70 rlineto
          -22 0 -18 18 0 22 rrcurveto
          0 200 rlineto
          -80 -20 rlineto
          0 -220 rlineto
          -22 0 -18 18 0 22 rrcurveto
          0 170 rlineto
          -80 -20 rlineto
          0 -190 rlineto
          -22 0 -18 18 0 22 rrcurveto
          0 140 rlineto
          -80 -20 rlineto
          0 -410 rlineto
          -100 0 rlineto
          -20 0 -17 5 -11 15 rrcurveto
          endchar
        </CharString>
        <CharString name="seen-ar.fina.3">
          430 -250 70 180 70 160 -20 hstem
          70 80 40 80 40 80 vstem
          -130 -250 rmoveto
          242 0 rlineto
          23 0 15 15 0 25 rrcurveto
          0 210 rlineto
          280 0 rlineto
          0 70 rlineto
          -22 0 -18 18 0 22 rrcurveto
          0 120 rlineto
          -80 -20 rlineto
          0 -140 rlineto
          -22 0 -18 18 0 22 rrcurveto
          0 120 rlineto
          -80 -20 rlineto
          0 -140 rlineto
          -22 0 -18 18 0 22 rrcurveto
          0 120 rlineto
          -80 -20 rlineto
          0 -390 rlineto
          -100 0 rlineto
          -20 0 -17 5 -11 15 rrcurveto
          endchar
        </CharString>
        <CharString name="seen-ar.fina.4">
          430 -250 70 180 70 160 -20 hstem
          70 80 40 80 40 80 vstem
          -130 -250 rmoveto
          242 0 rlineto
          23 0 15 15 0 25 rrcurveto
          0 210 rlineto
          280 0 rlineto
          0 70 rlineto
          -22 0 -18 18 0 22 rrcurveto
          0 140 rlineto
          -80 -20 rlineto
          0 -160 rlineto
          -22 0 -18 18 0 22 rrcurveto
          0 140 rlineto
          -80 -20 rlineto
          0 -160 rlineto
          -22 0 -18 18 0 22 rrcurveto
          0 140 rlineto
          -80 -20 rlineto
          0 -410 rlineto
          -100 0 rlineto
          -20 0 -17 5 -11 15 rrcurveto
          endchar
        </CharString>
        <CharString name="seen-ar.fina.5">
          430 -250 70 180 70 hstem
          70 80 40 80 40 80 vstem
          -130 -250 rmoveto
          242 0 rlineto
          23 0 15 15 0 25 rrcurveto
          0 210 rlineto
          280 0 rlineto
          0 70 rlineto
          -22 0 -18 18 0 22 rrcurveto
          0 160 rlineto
          -80 -20 rlineto
          0 -180 rlineto
          -22 0 -18 18 0 22 rrcurveto
          0 160 rlineto
          -80 -20 rlineto
          0 -180 rlineto
          -22 0 -18 18 0 22 rrcurveto
          0 160 rlineto
          -80 -20 rlineto
          0 -430 rlineto
          -100 0 rlineto
          -20 0 -17 5 -11 15 rrcurveto
          endchar
        </CharString>
        <CharString name="seen-ar.init">
          360 0 70 170 -20 hstem
          0 80 40 80 40 80 vstem
          -20 0 rmoveto
          319 0 rlineto
          6 0 15 0 0 11 rrcurveto
          0 259 rlineto
          -80 -20 rlineto
          0 -180 rlineto
          -22 0 -18 18 0 22 rrcurveto
          0 130 rlineto
          -80 -20 rlineto
          0 -150 rlineto
          -22 0 -18 18 0 22 rrcurveto
          0 100 rlineto
          -80 -20 rlineto
          0 -120 rlineto
          -20 0 rlineto
          endchar
        </CharString>
        <CharString name="seen-ar.init.1">
          360 0 70 160 -20 30 -20 hstemhm
          0 80 40 80 40 80 hintmask 10111100
          -20 0 rmoveto
          319 0 rlineto
          6 0 15 0 0 11 rrcurveto
          0 279 rlineto
          -80 -20 rlineto
          0 -200 rlineto
          -22 0 -18 18 0 22 rrcurveto
          0 150 rlineto
          -80 -20 rlineto
          0 -170 rlineto
          -22 0 -18 18 0 22 rrcurveto
          hintmask 11011100
          0 120 rlineto
          -80 -20 rlineto
          0 -140 rlineto
          -20 0 rlineto
          endchar
        </CharString>
        <CharString name="seen-ar.init.2">
          360 0 70 160 -20 hstem
          0 80 40 80 40 80 vstem
          -20 0 rmoveto
          319 0 rlineto
          6 0 15 0 0 11 rrcurveto
          0 299 rlineto
          -80 -20 rlineto
          0 -220 rlineto
          -22 0 -18 18 0 22 rrcurveto
          0 170 rlineto
          -80 -20 rlineto
          0 -190 rlineto
          -22 0 -18 18 0 22 rrcurveto
          0 140 rlineto
          -80 -20 rlineto
          0 -160 rlineto
          -20 0 rlineto
          endchar
        </CharString>
        <CharString name="seen-ar.init.3">
          360 0 70 160 -20 hstem
          0 80 40 80 40 80 vstem
          -20 0 rmoveto
          319 0 rlineto
          6 0 15 0 0 11 rrcurveto
          0 219 rlineto
          -80 -20 rlineto
          0 -140 rlineto
          -22 0 -18 18 0 22 rrcurveto
          0 120 rlineto
          -80 -20 rlineto
          0 -140 rlineto
          -22 0 -18 18 0 22 rrcurveto
          0 120 rlineto
          -80 -20 rlineto
          0 -140 rlineto
          -20 0 rlineto
          endchar
        </CharString>
        <CharString name="seen-ar.init.4">
          360 0 70 160 -20 hstem
          0 80 40 80 40 80 vstem
          -20 0 rmoveto
          319 0 rlineto
          6 0 15 0 0 11 rrcurveto
          0 239 rlineto
          -80 -20 rlineto
          0 -160 rlineto
          -22 0 -18 18 0 22 rrcurveto
          0 140 rlineto
          -80 -20 rlineto
          0 -160 rlineto
          -22 0 -18 18 0 22 rrcurveto
          0 140 rlineto
          -80 -20 rlineto
          0 -160 rlineto
          -20 0 rlineto
          endchar
        </CharString>
        <CharString name="seen-ar.init.5">
          360 0 70 hstem
          0 80 40 80 40 80 vstem
          -20 0 rmoveto
          319 0 rlineto
          6 0 15 0 0 11 rrcurveto
          0 259 rlineto
          -80 -20 rlineto
          0 -180 rlineto
          -22 0 -18 18 0 22 rrcurveto
          0 160 rlineto
          -80 -20 rlineto
          0 -180 rlineto
          -22 0 -18 18 0 22 rrcurveto
          0 160 rlineto
          -80 -20 rlineto
          0 -180 rlineto
          -20 0 rlineto
          endchar
        </CharString>
        <CharString name="seen-ar.init.6">
          340 0 70 hstem
          220 80 vstem
          -20 0 rmoveto
          299 0 rlineto
          6 0 15 0 0 11 rrcurveto
          0 166 rlineto
          -80 -20 rlineto
          0 -87 rlineto
          -70 70 rlineto
          -40 -70 rlineto
          -70 70 rlineto
          -40 -70 rlineto
          -20 0 rlineto
          endchar
        </CharString>
        <CharString name="seen-ar.medi">
          360 0 70 170 -20 hstem
          0 80 40 80 40 80 vstem
          -20 0 rmoveto
          380 0 rlineto
          0 70 rlineto
          -22 0 -18 18 0 22 rrcurveto
          0 160 rlineto
          -80 -20 rlineto
          0 -180 rlineto
          -22 0 -18 18 0 22 rrcurveto
          0 130 rlineto
          -80 -20 rlineto
          0 -150 rlineto
          -22 0 -18 18 0 22 rrcurveto
          0 100 rlineto
          -80 -20 rlineto
          0 -120 rlineto
          -20 0 rlineto
          endchar
        </CharString>
        <CharString name="seen-ar.medi.1">
          360 0 70 160 -20 30 -20 hstemhm
          0 80 40 80 40 80 hintmask 10111100
          -20 0 rmoveto
          380 0 rlineto
          0 70 rlineto
          -22 0 -18 18 0 22 rrcurveto
          0 180 rlineto
          -80 -20 rlineto
          0 -200 rlineto
          -22 0 -18 18 0 22 rrcurveto
          0 150 rlineto
          -80 -20 rlineto
          0 -170 rlineto
          -22 0 -18 18 0 22 rrcurveto
          hintmask 11011100
          0 120 rlineto
          -80 -20 rlineto
          0 -140 rlineto
          -20 0 rlineto
          endchar
        </CharString>
        <CharString name="seen-ar.medi.2">
          360 0 70 160 -20 hstem
          0 80 40 80 40 80 vstem
          -20 0 rmoveto
          380 0 rlineto
          0 70 rlineto
          -22 0 -18 18 0 22 rrcurveto
          0 200 rlineto
          -80 -20 rlineto
          0 -220 rlineto
          -22 0 -18 18 0 22 rrcurveto
          0 170 rlineto
          -80 -20 rlineto
          0 -190 rlineto
          -22 0 -18 18 0 22 rrcurveto
          0 140 rlineto
          -80 -20 rlineto
          0 -160 rlineto
          -20 0 rlineto
          endchar
        </CharString>
        <CharString name="seen-ar.medi.3">
          360 0 70 160 -20 hstem
          0 80 40 80 40 80 vstem
          -20 0 rmoveto
          380 0 rlineto
          0 70 rlineto
          -22 0 -18 18 0 22 rrcurveto
          0 120 rlineto
          -80 -20 rlineto
          0 -140 rlineto
          -22 0 -18 18 0 22 rrcurveto
          0 120 rlineto
          -80 -20 rlineto
          0 -140 rlineto
          -22 0 -18 18 0 22 rrcurveto
          0 120 rlineto
          -80 -20 rlineto
          0 -140 rlineto
          -20 0 rlineto
          endchar
        </CharString>
        <CharString name="seen-ar.medi.4">
          360 0 70 160 -20 hstem
          0 80 40 80 40 80 vstem
          -20 0 rmoveto
          380 0 rlineto
          0 70 rlineto
          -22 0 -18 18 0 22 rrcurveto
          0 140 rlineto
          -80 -20 rlineto
          0 -160 rlineto
          -22 0 -18 18 0 22 rrcurveto
          0 140 rlineto
          -80 -20 rlineto
          0 -160 rlineto
          -22 0 -18 18 0 22 rrcurveto
          0 140 rlineto
          -80 -20 rlineto
          0 -160 rlineto
          -20 0 rlineto
          endchar
        </CharString>
        <CharString name="seen-ar.medi.5">
          360 0 70 hstem
          0 80 40 80 40 80 vstem
          -20 0 rmoveto
          380 0 rlineto
          0 70 rlineto
          -22 0 -18 18 0 22 rrcurveto
          0 160 rlineto
          -80 -20 rlineto
          0 -180 rlineto
          -22 0 -18 18 0 22 rrcurveto
          0 160 rlineto
          -80 -20 rlineto
          0 -180 rlineto
          -22 0 -18 18 0 22 rrcurveto
          0 160 rlineto
          -80 -20 rlineto
          0 -180 rlineto
          -20 0 rlineto
          endchar
        </CharString>
        <CharString name="seen-ar.medi.6">
          370 0 70 hstem
          -20 390 vstem
          -20 0 rmoveto
          390 0 rlineto
          0 70 rlineto
          -40 0 rlineto
          -70 70 rlineto
          -40 -70 rlineto
          -70 70 rlineto
          -40 -70 rlineto
          -70 70 rlineto
          -40 -70 rlineto
          -20 0 rlineto
          endchar
        </CharString>
        <CharString name="seven">
          250 21 -21 280 70 hstem
          140 70 vstem
          210 350 rmoveto
          -210 0 rlineto
          0 -70 rlineto
          140 0 rlineto
          0 -280 rlineto
          70 0 rlineto
          endchar
        </CharString>
        <CharString name="seven-ar">
          250 0 70 hstem
          0 70 70 70 vstem
          0 0 rmoveto
          210 0 rlineto
          0 350 rlineto
          -70 0 rlineto
          0 -280 rlineto
          -70 0 rlineto
          0 280 rlineto
          -70 0 rlineto
          endchar
        </CharString>
        <CharString name="seven-ar.1">
          346 21 -21 hstem
          0 306 vstem
          153 112 rmoveto
          -87 238 rlineto
          -66 -23 rlineto
          120 -327 rlineto
          66 0 rlineto
          120 327 rlineto
          -66 23 rlineto
          -87 -238 rlineto
          endchar
        </CharString>
        <CharString name="seven-ar.2">
          366 21 -21 hstem
          0 326 vstem
          163 165 rmoveto
          -86 185 rlineto
          -77 0 rlineto
          163 -350 rlineto
          163 350 rlineto
          -78 0 rlineto
          -85 -185 rlineto
          endchar
        </CharString>
        <CharString name="seven-persian">
          250 0 70 hstem
          0 70 70 70 vstem
          0 0 rmoveto
          210 0 rlineto
          0 350 rlineto
          -70 0 rlineto
          0 -280 rlineto
          -70 0 rlineto
          0 280 rlineto
          -70 0 rlineto
          endchar
        </CharString>
        <CharString name="seven-persian.urdu">
          250 0 70 hstem
          0 70 vstem
          0 0 rmoveto
          210 0 rlineto
          0 70 rlineto
          -140 0 rlineto
          0 280 rlineto
          -70 0 rlineto
          endchar
        </CharString>
        <CharString name="sheen-ar">
          430 -250 70 180 70 160 -20 hstem
          70 80 40 80 40 80 vstem
          -130 -250 rmoveto
          242 0 rlineto
          23 0 15 15 0 25 rrcurveto
          0 210 rlineto
          219 0 rlineto
          6 0 15 0 0 11 rrcurveto
          0 219 rlineto
          -80 -20 rlineto
          0 -140 rlineto
          -22 0 -18 18 0 22 rrcurveto
          0 120 rlineto
          -80 -20 rlineto
          0 -140 rlineto
          -22 0 -18 18 0 22 rrcurveto
          0 120 rlineto
          -80 -20 rlineto
          0 -390 rlineto
          -100 0 rlineto
          -20 0 -17 5 -11 15 rrcurveto
          250 460 rmoveto
          47 79 rlineto
          -17 10 rlineto
          -47 -79 rlineto
          63 -10 rmoveto
          47 79 rlineto
          -17 10 rlineto
          -47 -79 rlineto
          63 -10 rmoveto
          47 79 rlineto
          -17 10 rlineto
          -47 -79 rlineto
          endchar
        </CharString>
        <CharString name="six">
          250 0 70 70 70 70 70 hstem
          0 70 70 70 vstem
          210 280 rmoveto
          0 70 rlineto
          -210 0 rlineto
          0 -350 rlineto
          210 0 rlineto
          0 210 rlineto
          -140 0 rlineto
          0 70 rlineto
          0 -210 rmoveto
          0 70 rlineto
          70 0 rlineto
          0 -70 rlineto
          -70 0 rlineto
          endchar
        </CharString>
        <CharString name="six-ar">
          250 21 -21 189 70 hstem
          0 70 70 70 vstem
          70 350 rmoveto
          -70 0 rlineto
          0 -161 rlineto
          140 0 rlineto
          0 -189 rlineto
          70 0 rlineto
          0 350 rlineto
          -70 0 rlineto
          0 -91 rlineto
          -70 0 rlineto
          endchar
        </CharString>
        <CharString name="six-ar.1">
          250 21 -21 280 70 hstem
          140 70 vstem
          210 350 rmoveto
          -210 0 rlineto
          0 -70 rlineto
          140 0 rlineto
          0 -280 rlineto
          70 0 rlineto
          endchar
        </CharString>
        <CharString name="six-ar.osf">
          250 189 70 hstem
          0 70 70 70 vstem
          70 350 rmoveto
          -70 0 rlineto
          0 -161 rlineto
          140 0 rlineto
          0 -299 rlineto
          70 0 rlineto
          0 460 rlineto
          -70 0 rlineto
          0 -91 rlineto
          -70 0 rlineto
          endchar
        </CharString>
        <CharString name="six-ar.osf.1">
          250 280 70 hstemhm
          0 210 -70 70 hintmask 10100000
          210 350 rmoveto
          hintmask 11000000
          -210 0 rlineto
          0 -70 rlineto
          hintmask 10100000
          140 0 rlineto
          0 -390 rlineto
          70 0 rlineto
          endchar
        </CharString>
        <CharString name="six-persian">
          250 21 -21 189 70 hstem
          0 70 70 70 vstem
          70 350 rmoveto
          -70 0 rlineto
          0 -161 rlineto
          140 0 rlineto
          0 -189 rlineto
          70 0 rlineto
          0 350 rlineto
          -70 0 rlineto
          0 -91 rlineto
          -70 0 rlineto
          endchar
        </CharString>
        <CharString name="space">
          0 endchar
        </CharString>
        <CharString name="space.alt">
          40 endchar
        </CharString>
        <CharString name="space.latn">
          80 endchar
        </CharString>
        <CharString name="t">
          200 0 43 117 19 61 -20 hstem
          0 80 vstem
          80 80 rmoveto
          0 80 rlineto
          80 0 rlineto
          0 19 rlineto
          -80 0 rlineto
          0 81 rlineto
          -80 -20 rlineto
          0 -61 rlineto
          -20 0 rlineto
          0 -19 rlineto
          20 0 rlineto
          0 -80 rlineto
          0 -50 37 -30 40 0 rrcurveto
          30 0 31 16 22 34 rrcurveto
          -9 -4 -12 -3 -12 0 rrcurveto
          -24 0 -23 11 0 26 rrcurveto
          endchar
        </CharString>
        <CharString name="tah-ar">
          750 0 70 40 70 380 -20 hstem
          80 80 466 84 vstem
          0 0 rmoveto
          689 0 rlineto
          6 0 15 0 0 21 rrcurveto
          0 139 -70 20 -44 0 rrcurveto
          -436 0 rlineto
          0 380 rlineto
          -80 -20 rlineto
          0 -470 rlineto
          -40 0 rlineto
          120 0 rmoveto
          0 40 rlineto
          426 0 rlineto
          22 0 18 -18 0 -22 rrcurveto
          -466 0 rlineto
          endchar
        </CharString>
        <CharString name="tah-ar.fina">
          750 0 70 40 70 380 -20 hstem
          80 80 466 124 vstem
          0 0 rmoveto
          750 0 rlineto
          0 70 rlineto
          -43 0 rlineto
          -15 95 -58 15 -38 0 rrcurveto
          -436 0 rlineto
          0 380 rlineto
          -80 -20 rlineto
          0 -470 rlineto
          -40 0 rlineto
          120 0 rmoveto
          0 40 rlineto
          426 0 rlineto
          22 0 18 -18 0 -22 rrcurveto
          -466 0 rlineto
          endchar
        </CharString>
        <CharString name="tah-ar.init">
          670 0 70 40 70 380 -20 hstem
          0 80 466 84 vstem
          -20 0 rmoveto
          629 0 rlineto
          6 0 15 0 0 21 rrcurveto
          0 139 -70 20 -44 0 rrcurveto
          -436 0 rlineto
          0 380 rlineto
          -80 -20 rlineto
          0 -470 rlineto
          -20 0 rlineto
          100 0 rmoveto
          0 40 rlineto
          426 0 rlineto
          22 0 18 -18 0 -22 rrcurveto
          -466 0 rlineto
          endchar
        </CharString>
        <CharString name="tah-ar.init.short">
          670 0 70 40 70 hstem
          0 80 466 84 vstem
          -20 0 rmoveto
          629 0 rlineto
          6 0 15 0 0 21 rrcurveto
          0 139 -70 20 -44 0 rrcurveto
          -436 0 rlineto
          0 270 rlineto
          -80 -20 rlineto
          0 -360 rlineto
          -20 0 rlineto
          100 0 rmoveto
          0 40 rlineto
          426 0 rlineto
          22 0 18 -18 0 -22 rrcurveto
          -466 0 rlineto
          endchar
        </CharString>
        <CharString name="tah-ar.init.short2">
          670 0 70 40 70 hstem
          0 80 466 84 vstem
          -20 0 rmoveto
          629 0 rlineto
          6 0 15 0 0 21 rrcurveto
          0 139 -70 20 -44 0 rrcurveto
          -436 0 rlineto
          0 160 rlineto
          -80 -20 rlineto
          0 -250 rlineto
          -20 0 rlineto
          100 0 rmoveto
          0 40 rlineto
          426 0 rlineto
          22 0 18 -18 0 -22 rrcurveto
          -466 0 rlineto
          endchar
        </CharString>
        <CharString name="tah-ar.medi">
          670 0 70 40 70 380 -20 hstem
          0 80 466 124 vstem
          -20 0 rmoveto
          690 0 rlineto
          0 70 rlineto
          -43 0 rlineto
          -15 95 -58 15 -38 0 rrcurveto
          -436 0 rlineto
          0 380 rlineto
          -80 -20 rlineto
          0 -470 rlineto
          -20 0 rlineto
          100 0 rmoveto
          0 40 rlineto
          426 0 rlineto
          22 0 18 -18 0 -22 rrcurveto
          -466 0 rlineto
          endchar
        </CharString>
        <CharString name="tah-ar.medi.short">
          670 0 70 40 70 hstem
          0 80 466 124 vstem
          -20 0 rmoveto
          690 0 rlineto
          0 70 rlineto
          -43 0 rlineto
          -15 95 -58 15 -38 0 rrcurveto
          -436 0 rlineto
          0 270 rlineto
          -80 -20 rlineto
          0 -360 rlineto
          -20 0 rlineto
          100 0 rmoveto
          0 40 rlineto
          426 0 rlineto
          22 0 18 -18 0 -22 rrcurveto
          -466 0 rlineto
          endchar
        </CharString>
        <CharString name="tah-ar.medi.short2">
          670 0 70 40 70 hstem
          0 80 466 124 vstem
          -20 0 rmoveto
          690 0 rlineto
          0 70 rlineto
          -43 0 rlineto
          -15 95 -58 15 -38 0 rrcurveto
          -436 0 rlineto
          0 160 rlineto
          -80 -20 rlineto
          0 -250 rlineto
          -20 0 rlineto
          100 0 rmoveto
          0 40 rlineto
          426 0 rlineto
          22 0 18 -18 0 -22 rrcurveto
          -466 0 rlineto
          endchar
        </CharString>
        <CharString name="tahabove-ar">
          0 0 21 14 24 hstemhm
          25 25 73 25 hintmask 10110000
          0 0 rmoveto
          142 0 rlineto
          4 0 2 0 0 6 rrcurveto
          hintmask 11110000
          0 44 -21 9 -14 0 rrcurveto
          -63 0 rlineto
          hintmask 10110000
          0 56 rlineto
          -25 -6 rlineto
          0 -88 rlineto
          -13 0 rlineto
          38 0 rmoveto
          hintmask 11110000
          0 14 rlineto
          59 0 rlineto
          4 0 4 -1 2 -3 rrcurveto
          3 -2 1 -4 0 -4 rrcurveto
          hintmask 10110000
          -73 0 rlineto
          endchar
        </CharString>
        <CharString name="tcheh-ar">
          640 -110 70 40 70 hstem
          0 80 vstem
          90 -110 rmoveto
          405 0 rlineto
          41 70 rlineto
          -436 0 rlineto
          -11 0 -9 9 0 11 rrcurveto
          0 11 9 9 11 0 rrcurveto
          459 0 rlineto
          41 70 rlineto
          -137 0 rlineto
          -58 0 -61 65 -61 75 rrcurveto
          -43 -70 rlineto
          19 -28 28 -29 15 -13 rrcurveto
          -212 0 rlineto
          -50 0 -40 -40 0 -50 rrcurveto
          0 -50 40 -40 50 0 rrcurveto
          192 -124 rmoveto
          47 79 rlineto
          -17 10 rlineto
          -47 -79 rlineto
          63 -10 rmoveto
          47 79 rlineto
          -17 10 rlineto
          -47 -79 rlineto
          63 -10 rmoveto
          47 79 rlineto
          -17 10 rlineto
          -47 -79 rlineto
          endchar
        </CharString>
        <CharString name="teh-ar">
          600 0 70 160 -20 hstem
          480 80 vstem
          0 0 rmoveto
          539 0 rlineto
          6 0 15 0 0 11 rrcurveto
          0 219 rlineto
          -80 -20 rlineto
          0 -140 rlineto
          -380 0 rlineto
          -22 0 -16 7 -10 13 rrcurveto
          190 110 rmoveto
          47 79 rlineto
          -17 10 rlineto
          -47 -79 rlineto
          63 -10 rmoveto
          47 79 rlineto
          -17 10 rlineto
          -47 -79 rlineto
          endchar
        </CharString>
        <CharString name="tehMarbuta-ar">
          240 0 70 40 70 65 -20 hstem
          0 80 40 80 vstem
          100 0 rmoveto
          65 0 35 30 0 60 rrcurveto
          0 130 rlineto
          -20 -35 -40 -5 -40 0 rrcurveto
          -55 0 -45 -40 0 -50 rrcurveto
          0 -60 45 -30 55 0 rrcurveto
          0 70 rmoveto
          -11 0 -9 9 0 11 rrcurveto
          0 11 9 9 11 0 rrcurveto
          11 0 9 -9 0 -11 rrcurveto
          0 -11 -9 -9 -11 0 rrcurveto
          -38 165 rmoveto
          47 79 rlineto
          -17 10 rlineto
          -47 -79 rlineto
          63 -10 rmoveto
          47 79 rlineto
          -17 10 rlineto
          -47 -79 rlineto
          endchar
        </CharString>
        <CharString name="tehMarbutagoal-ar">
          240 0 70 40 70 65 -20 hstem
          0 80 40 80 vstem
          100 0 rmoveto
          65 0 35 30 0 60 rrcurveto
          0 130 rlineto
          -20 -35 -40 -5 -40 0 rrcurveto
          -55 0 -45 -40 0 -50 rrcurveto
          0 -60 45 -30 55 0 rrcurveto
          0 70 rmoveto
          -11 0 -9 9 0 11 rrcurveto
          0 11 9 9 11 0 rrcurveto
          11 0 9 -9 0 -11 rrcurveto
          0 -11 -9 -9 -11 0 rrcurveto
          -38 165 rmoveto
          47 79 rlineto
          -17 10 rlineto
          -47 -79 rlineto
          63 -10 rmoveto
          47 79 rlineto
          -17 10 rlineto
          -47 -79 rlineto
          endchar
        </CharString>
        <CharString name="thal-ar">
          600 0 70 40 70 hstem
          476 84 vstem
          0 0 rmoveto
          539 0 rlineto
          6 0 15 0 0 21 rrcurveto
          0 139 -70 20 -44 0 rrcurveto
          -326 0 rlineto
          27 70 rlineto
          -3 0 rlineto
          -80 -140 rlineto
          372 0 rlineto
          22 0 18 -18 0 -22 rrcurveto
          -436 0 rlineto
          240 185 rmoveto
          47 79 rlineto
          -17 10 rlineto
          -47 -79 rlineto
          endchar
        </CharString>
        <CharString name="theh-ar">
          600 0 70 160 -20 hstem
          480 80 vstem
          0 0 rmoveto
          539 0 rlineto
          6 0 15 0 0 11 rrcurveto
          0 219 rlineto
          -80 -20 rlineto
          0 -140 rlineto
          -380 0 rlineto
          -22 0 -16 7 -10 13 rrcurveto
          167 110 rmoveto
          47 79 rlineto
          -17 10 rlineto
          -47 -79 rlineto
          63 -10 rmoveto
          47 79 rlineto
          -17 10 rlineto
          -47 -79 rlineto
          63 -10 rmoveto
          47 79 rlineto
          -17 10 rlineto
          -47 -79 rlineto
          endchar
        </CharString>
        <CharString name="three">
          250 0 70 70 70 70 70 hstemhm
          0 210 -70 70 hintmask 11101000
          210 0 rmoveto
          0 350 rlineto
          hintmask 11110000
          -210 0 rlineto
          0 -70 rlineto
          hintmask 11101000
          140 0 rlineto
          0 -70 rlineto
          hintmask 11110000
          -140 0 rlineto
          0 -70 rlineto
          hintmask 11101000
          140 0 rlineto
          0 -70 rlineto
          hintmask 11110000
          -140 0 rlineto
          0 -70 rlineto
          endchar
        </CharString>
        <CharString name="three-ar">
          350 0 70 70 70 -70 210 hstemhm
          0 70 50 70 50 70 hintmask 10111100
          120 350 rmoveto
          hintmask 11011100
          0 -140 rlineto
          -50 0 rlineto
          hintmask 10111100
          0 140 rlineto
          -70 0 rlineto
          0 -350 rlineto
          310 0 rlineto
          0 70 rlineto
          -240 0 rlineto
          hintmask 11011100
          0 70 rlineto
          240 0 rlineto
          hintmask 10111100
          0 210 rlineto
          -70 0 rlineto
          hintmask 11011100
          0 -140 rlineto
          -50 0 rlineto
          hintmask 10111100
          0 140 rlineto
          endchar
        </CharString>
        <CharString name="three-ar.1">
          350 21 -21 140 70 -70 210 hstemhm
          0 70 50 70 50 70 hintmask 10111100
          120 350 rmoveto
          hintmask 11011100
          0 -140 rlineto
          -50 0 rlineto
          hintmask 10111100
          0 140 rlineto
          -70 0 rlineto
          0 -350 rlineto
          70 0 rlineto
          hintmask 11011100
          0 140 rlineto
          240 0 rlineto
          hintmask 10111100
          0 210 rlineto
          -70 0 rlineto
          hintmask 11011100
          0 -140 rlineto
          -50 0 rlineto
          hintmask 10111100
          0 140 rlineto
          endchar
        </CharString>
        <CharString name="three-ar.osf">
          350 0 70 70 70 -70 210 hstemhm
          0 70 50 70 50 70 hintmask 10111100
          120 350 rmoveto
          hintmask 11011100
          0 -140 rlineto
          -50 0 rlineto
          hintmask 10111100
          0 140 rlineto
          -70 0 rlineto
          0 -350 rlineto
          310 0 rlineto
          0 70 rlineto
          -240 0 rlineto
          hintmask 11011100
          0 70 rlineto
          240 0 rlineto
          hintmask 10111100
          0 210 rlineto
          -70 0 rlineto
          hintmask 11011100
          0 -140 rlineto
          -50 0 rlineto
          hintmask 10111100
          0 140 rlineto
          endchar
        </CharString>
        <CharString name="three-ar.osf.1">
          350 140 70 -70 210 hstemhm
          0 70 50 70 50 70 hintmask 01111000
          120 350 rmoveto
          hintmask 10111000
          0 -140 rlineto
          -50 0 rlineto
          hintmask 01111000
          0 140 rlineto
          -70 0 rlineto
          0 -460 rlineto
          70 0 rlineto
          hintmask 10111000
          0 250 rlineto
          240 0 rlineto
          hintmask 01111000
          0 210 rlineto
          -70 0 rlineto
          hintmask 10111000
          0 -140 rlineto
          -50 0 rlineto
          hintmask 01111000
          0 140 rlineto
          endchar
        </CharString>
        <CharString name="three-persian">
          350 0 70 70 70 -70 210 hstemhm
          0 70 50 70 50 70 hintmask 10111100
          120 350 rmoveto
          hintmask 11011100
          0 -140 rlineto
          -50 0 rlineto
          hintmask 10111100
          0 140 rlineto
          -70 0 rlineto
          0 -350 rlineto
          310 0 rlineto
          0 70 rlineto
          -240 0 rlineto
          hintmask 11011100
          0 70 rlineto
          240 0 rlineto
          hintmask 10111100
          0 210 rlineto
          -70 0 rlineto
          hintmask 11011100
          0 -140 rlineto
          -50 0 rlineto
          hintmask 10111100
          0 140 rlineto
          endchar
        </CharString>
        <CharString name="threedotsdownbelow-ar">
          0 21 -21 hstem
          0 156 vstem
          17 0 rmoveto
          47 79 rlineto
          -17 10 rlineto
          -47 -79 rlineto
          63 -10 rmoveto
          47 79 rlineto
          -17 10 rlineto
          -47 -79 rlineto
          63 -10 rmoveto
          47 79 rlineto
          -17 10 rlineto
          -47 -79 rlineto
          endchar
        </CharString>
        <CharString name="threedotsdownbelow-ar.alt1">
          0 0 58 12 58 hstemhm
          0 58 -19 58 -15 58 hintmask 10010000
          68 58 rmoveto
          -16 0 -13 -13 0 -16 rrcurveto
          0 -16 13 -13 16 0 rrcurveto
          16 0 13 13 0 16 rrcurveto
          0 16 -13 13 -16 0 rrcurveto
          hintmask 11100000
          -39 70 rmoveto
          -16 0 -13 -13 0 -16 rrcurveto
          0 -16 13 -13 16 0 rrcurveto
          16 0 13 13 0 16 rrcurveto
          0 16 -13 13 -16 0 rrcurveto
          hintmask 11101000
          82 0 rmoveto
          -16 0 -13 -13 0 -16 rrcurveto
          0 -16 13 -13 16 0 rrcurveto
          16 0 13 13 0 16 rrcurveto
          0 16 -13 13 -16 0 rrcurveto
          endchar
        </CharString>
        <CharString name="threedotsupabove-ar">
          0 21 -21 hstem
          0 156 vstem
          17 0 rmoveto
          47 79 rlineto
          -17 10 rlineto
          -47 -79 rlineto
          63 -10 rmoveto
          47 79 rlineto
          -17 10 rlineto
          -47 -79 rlineto
          63 -10 rmoveto
          47 79 rlineto
          -17 10 rlineto
          -47 -79 rlineto
          endchar
        </CharString>
        <CharString name="threedotsupabove-ar.alt1">
          0 0 58 12 58 hstemhm
          0 58 -19 58 -15 58 hintmask 10100000
          29 0 rmoveto
          16 0 13 13 0 16 rrcurveto
          0 16 -13 13 -16 0 rrcurveto
          -16 0 -13 -13 0 -16 rrcurveto
          0 -16 13 -13 16 0 rrcurveto
          hintmask 10101000
          82 0 rmoveto
          16 0 13 13 0 16 rrcurveto
          0 16 -13 13 -16 0 rrcurveto
          -16 0 -13 -13 0 -16 rrcurveto
          0 -16 13 -13 16 0 rrcurveto
          hintmask 11010000
          -43 70 rmoveto
          16 0 13 13 0 16 rrcurveto
          0 16 -13 13 -16 0 rrcurveto
          -16 0 -13 -13 0 -16 rrcurveto
          0 -16 13 -13 16 0 rrcurveto
          endchar
        </CharString>
        <CharString name="tteh-ar">
          600 0 70 130 21 9 -20 25 24 hstemhm
          231 25 73 25 126 80 hintmask 11001010
          0 0 rmoveto
          539 0 rlineto
          6 0 15 0 0 11 rrcurveto
          hintmask 10101010
          0 219 rlineto
          -80 -20 rlineto
          0 -140 rlineto
          -380 0 rlineto
          -22 0 -16 7 -10 13 rrcurveto
          hintmask 11001110
          154 110 rmoveto
          142 0 rlineto
          4 0 2 0 0 6 rrcurveto
          hintmask 11011110
          0 44 -21 9 -14 0 rrcurveto
          -63 0 rlineto
          hintmask 11001010
          0 56 rlineto
          -25 -6 rlineto
          0 -88 rlineto
          -13 0 rlineto
          38 0 rmoveto
          hintmask 11011110
          0 14 rlineto
          59 0 rlineto
          4 0 4 -1 2 -3 rrcurveto
          3 -2 1 -4 0 -4 rrcurveto
          hintmask 11001010
          -73 0 rlineto
          endchar
        </CharString>
        <CharString name="two">
          250 0 70 70 70 70 70 hstem
          0 70 70 70 vstem
          210 0 rmoveto
          0 70 rlineto
          -140 0 rlineto
          0 70 rlineto
          140 0 rlineto
          0 210 rlineto
          -210 0 rlineto
          0 -70 rlineto
          140 0 rlineto
          0 -70 rlineto
          -140 0 rlineto
          0 -210 rlineto
          endchar
        </CharString>
        <CharString name="two-ar">
          250 21 -21 189 70 hstem
          0 70 70 70 vstem
          140 350 rmoveto
          0 -91 rlineto
          -70 0 rlineto
          0 91 rlineto
          -70 0 rlineto
          0 -350 rlineto
          70 0 rlineto
          0 189 rlineto
          140 0 rlineto
          0 161 rlineto
          endchar
        </CharString>
        <CharString name="two-ar.1">
          250 21 -21 280 70 hstem
          0 70 vstem
          0 350 rmoveto
          0 -350 rlineto
          70 0 rlineto
          0 280 rlineto
          140 0 rlineto
          0 70 rlineto
          endchar
        </CharString>
        <CharString name="two-ar.osf">
          250 189 70 hstem
          0 70 70 70 vstem
          140 350 rmoveto
          0 -91 rlineto
          -70 0 rlineto
          0 91 rlineto
          -70 0 rlineto
          0 -460 rlineto
          70 0 rlineto
          0 299 rlineto
          140 0 rlineto
          0 161 rlineto
          endchar
        </CharString>
        <CharString name="two-ar.osf.1">
          250 280 70 hstemhm
          0 70 -70 210 hintmask 11000000
          0 350 rmoveto
          0 -460 rlineto
          70 0 rlineto
          0 390 rlineto
          hintmask 10100000
          140 0 rlineto
          0 70 rlineto
          endchar
        </CharString>
        <CharString name="two-persian">
          250 21 -21 189 70 hstem
          0 70 70 70 vstem
          140 350 rmoveto
          0 -91 rlineto
          -70 0 rlineto
          0 91 rlineto
          -70 0 rlineto
          0 -350 rlineto
          70 0 rlineto
          0 189 rlineto
          140 0 rlineto
          0 161 rlineto
          endchar
        </CharString>
        <CharString name="twodotshorizontalabove-ar">
          0 21 -21 hstem
          0 110 vstem
          17 0 rmoveto
          47 79 rlineto
          -17 10 rlineto
          -47 -79 rlineto
          63 -10 rmoveto
          47 79 rlineto
          -17 10 rlineto
          -47 -79 rlineto
          endchar
        </CharString>
        <CharString name="twodotshorizontalabove-ar.alt1">
          0 0 58 hstemhm
          0 58 24 58 hintmask 11000000
          29 0 rmoveto
          16 0 13 13 0 16 rrcurveto
          0 16 -13 13 -16 0 rrcurveto
          -16 0 -13 -13 0 -16 rrcurveto
          0 -16 13 -13 16 0 rrcurveto
          hintmask 11100000
          82 0 rmoveto
          16 0 13 13 0 16 rrcurveto
          0 16 -13 13 -16 0 rrcurveto
          -16 0 -13 -13 0 -16 rrcurveto
          0 -16 13 -13 16 0 rrcurveto
          endchar
        </CharString>
        <CharString name="twodotshorizontalbelow-ar">
          0 21 -21 hstem
          0 110 vstem
          17 0 rmoveto
          47 79 rlineto
          -17 10 rlineto
          -47 -79 rlineto
          63 -10 rmoveto
          47 79 rlineto
          -17 10 rlineto
          -47 -79 rlineto
          endchar
        </CharString>
        <CharString name="twodotshorizontalbelow-ar.alt1">
          0 0 58 hstemhm
          0 58 24 58 hintmask 11000000
          29 0 rmoveto
          16 0 13 13 0 16 rrcurveto
          0 16 -13 13 -16 0 rrcurveto
          -16 0 -13 -13 0 -16 rrcurveto
          0 -16 13 -13 16 0 rrcurveto
          hintmask 11100000
          82 0 rmoveto
          16 0 13 13 0 16 rrcurveto
          0 16 -13 13 -16 0 rrcurveto
          -16 0 -13 -13 0 -16 rrcurveto
          0 -16 13 -13 16 0 rrcurveto
          endchar
        </CharString>
        <CharString name="twodotsverticalabove-ar">
          0 21 -21 hstem
          0 76 vstem
          29 0 rmoveto
          47 79 rlineto
          -17 10 rlineto
          -47 -79 rlineto
          5 47 rmoveto
          47 79 rlineto
          -17 10 rlineto
          -47 -79 rlineto
          endchar
        </CharString>
        <CharString name="twodotsverticalabove-ar.alt1">
          0 0 58 22 58 hstemhm
          0 58 hintmask 10100000
          29 0 rmoveto
          16 0 13 13 0 16 rrcurveto
          0 16 -13 13 -16 0 rrcurveto
          -16 0 -13 -13 0 -16 rrcurveto
          0 -16 13 -13 16 0 rrcurveto
          hintmask 11100000
          0 80 rmoveto
          16 0 13 13 0 16 rrcurveto
          0 16 -13 13 -16 0 rrcurveto
          -16 0 -13 -13 0 -16 rrcurveto
          0 -16 13 -13 16 0 rrcurveto
          endchar
        </CharString>
        <CharString name="twodotsverticalbelow-ar">
          0 21 -21 hstem
          0 76 vstem
          29 0 rmoveto
          47 79 rlineto
          -17 10 rlineto
          -47 -79 rlineto
          5 47 rmoveto
          47 79 rlineto
          -17 10 rlineto
          -47 -79 rlineto
          endchar
        </CharString>
        <CharString name="twodotsverticalbelow-ar.alt1">
          0 0 58 22 58 hstemhm
          0 58 hintmask 10100000
          29 0 rmoveto
          16 0 13 13 0 16 rrcurveto
          0 16 -13 13 -16 0 rrcurveto
          -16 0 -13 -13 0 -16 rrcurveto
          0 -16 13 -13 16 0 rrcurveto
          hintmask 11100000
          0 80 rmoveto
          16 0 13 13 0 16 rrcurveto
          0 16 -13 13 -16 0 rrcurveto
          -16 0 -13 -13 0 -16 rrcurveto
          0 -16 13 -13 16 0 rrcurveto
          endchar
        </CharString>
        <CharString name="u">
          240 0 70 hstem
          0 80 40 80 vstem
          100 0 rmoveto
          40 0 40 -5 20 -35 rrcurveto
          0 240 rlineto
          -80 -20 rlineto
          0 -90 rlineto
          0 -11 -9 -9 -11 0 rrcurveto
          -11 0 -9 9 0 11 rrcurveto
          0 110 rlineto
          -80 -20 rlineto
          0 -90 rlineto
          0 -50 45 -40 55 0 rrcurveto
          endchar
        </CharString>
        <CharString name="u.1">
          240 0 70 -70 180 hstemhm
          0 80 40 80 hintmask 01110000
          200 180 rmoveto
          -80 0 rlineto
          hintmask 10110000
          0 -90 rlineto
          0 -11 -9 -9 -11 0 rrcurveto
          -11 0 -9 9 0 11 rrcurveto
          hintmask 01110000
          0 90 rlineto
          -80 0 rlineto
          0 -90 rlineto
          0 -50 45 -40 55 0 rrcurveto
          40 0 40 -5 20 -35 rrcurveto
          endchar
        </CharString>
        <CharString name="v">
          214 21 -21 230 -20 hstem
          -20 214 vstem
          117 230 rmoveto
          -30 -65 rlineto
          -30 65 rlineto
          -77 0 rlineto
          107 -230 rlineto
          107 230 rlineto
          endchar
        </CharString>
        <CharString name="veh-ar">
          613 0 70 40 70 40 70 hstem
          360 80 52 81 vstem
          0 0 rmoveto
          536 0 rlineto
          24 0 13 37 0 65 rrcurveto
          0 77 -19 111 -93 0 rrcurveto
          -56 0 -45 -40 0 -50 rrcurveto
          0 -50 45 -40 55 0 rrcurveto
          10 0 10 1 10 3 rrcurveto
          2 -7 0 -8 0 -7 rrcurveto
          0 -7 0 -8 -2 -7 rrcurveto
          -390 0 rlineto
          -22 0 -16 7 -10 13 rrcurveto
          408 90 rmoveto
          -11 0 -9 9 0 11 rrcurveto
          0 11 9 9 11 0 rrcurveto
          11 0 9 -9 0 -11 rrcurveto
          0 -11 -9 -9 -11 0 rrcurveto
          -61 155 rmoveto
          47 79 rlineto
          -17 10 rlineto
          -47 -79 rlineto
          63 -10 rmoveto
          47 79 rlineto
          -17 10 rlineto
          -47 -79 rlineto
          63 -10 rmoveto
          47 79 rlineto
          -17 10 rlineto
          -47 -79 rlineto
          endchar
        </CharString>
        <CharString name="w">
          351 21 -21 147 83 0 -20 hstemhm
          -20 351 hintmask 10110000
          117 230 rmoveto
          -30 -65 rlineto
          -30 65 rlineto
          -77 0 rlineto
          107 -230 rlineto
          hintmask 11010000
          69 147 rlineto
          68 -147 rlineto
          107 230 rlineto
          -77 0 rlineto
          -30 -65 rlineto
          -30 65 rlineto
          endchar
        </CharString>
        <CharString name="waw-ar">
          270 -110 70 40 70 40 70 hstem
          30 80 52 81 vstem
          -50 -110 rmoveto
          243 0 rlineto
          31 0 9 14 5 24 rrcurveto
          4 17 1 22 0 26 rrcurveto
          0 36 -4 37 -6 25 rrcurveto
          -15 56 -38 33 -50 0 rrcurveto
          -55 0 -45 -40 0 -50 rrcurveto
          0 -50 45 -40 55 0 rrcurveto
          10 0 10 1 10 3 rrcurveto
          2 -7 0 -8 0 -7 rrcurveto
          0 -7 0 -8 -2 -7 rrcurveto
          -110 0 rlineto
          -22 0 -16 7 -10 13 rrcurveto
          128 90 rmoveto
          -11 0 -9 9 0 11 rrcurveto
          0 11 9 9 11 0 rrcurveto
          11 0 9 -9 0 -11 rrcurveto
          0 -11 -9 -9 -11 0 rrcurveto
          endchar
        </CharString>
        <CharString name="waw-ar.1">
          270 -110 70 40 70 40 70 hstem
          30 80 40 80 vstem
          130 0 rmoveto
          7 0 7 1 6 1 rrcurveto
          0 -42 rlineto
          -100 0 rlineto
          -22 0 -16 7 -10 13 rrcurveto
          -52 -90 rlineto
          242 0 rlineto
          23 0 15 15 0 25 rrcurveto
          0 160 rlineto
          0 50 -45 40 -55 0 rrcurveto
          -55 0 -45 -40 0 -50 rrcurveto
          0 -50 45 -40 55 0 rrcurveto
          0 70 rmoveto
          -11 0 -9 9 0 11 rrcurveto
          0 11 9 9 11 0 rrcurveto
          11 0 9 -9 0 -11 rrcurveto
          0 -11 -9 -9 -11 0 rrcurveto
          endchar
        </CharString>
        <CharString name="waw-ar.2">
          333 0 70 40 70 40 70 hstem
          80 80 52 81 vstem
          0 0 rmoveto
          243 0 rlineto
          31 0 9 14 5 24 rrcurveto
          4 17 1 22 0 26 rrcurveto
          0 36 -4 37 -6 25 rrcurveto
          -15 56 -38 33 -50 0 rrcurveto
          -55 0 -45 -40 0 -50 rrcurveto
          0 -50 45 -40 55 0 rrcurveto
          10 0 10 1 10 3 rrcurveto
          2 -7 0 -8 0 -7 rrcurveto
          0 -7 0 -8 -2 -7 rrcurveto
          -110 0 rlineto
          -22 0 -16 7 -10 13 rrcurveto
          128 90 rmoveto
          -11 0 -9 9 0 11 rrcurveto
          0 11 9 9 11 0 rrcurveto
          11 0 9 -9 0 -11 rrcurveto
          0 -11 -9 -9 -11 0 rrcurveto
          endchar
        </CharString>
        <CharString name="waw-ar.3">
          320 0 70 40 70 40 70 hstem
          80 80 40 80 vstem
          180 110 rmoveto
          7 0 7 1 6 1 rrcurveto
          0 -42 rlineto
          -100 0 rlineto
          -22 0 -16 7 -10 13 rrcurveto
          -52 -90 rlineto
          242 0 rlineto
          23 0 15 15 0 25 rrcurveto
          0 160 rlineto
          0 50 -45 40 -55 0 rrcurveto
          -55 0 -45 -40 0 -50 rrcurveto
          0 -50 45 -40 55 0 rrcurveto
          0 70 rmoveto
          -11 0 -9 9 0 11 rrcurveto
          0 11 9 9 11 0 rrcurveto
          11 0 9 -9 0 -11 rrcurveto
          0 -11 -9 -9 -11 0 rrcurveto
          endchar
        </CharString>
        <CharString name="waw-ar.fina">
          280 -110 70 40 70 40 70 hstemhm
          30 80 40 130 -118 81 -81 118 hintmask 11110100
          130 0 rmoveto
          31 0 rlineto
          1 -6 0 -6 0 -6 rrcurveto
          0 -7 0 -8 -2 -7 rrcurveto
          -110 0 rlineto
          -22 0 -16 7 -10 13 rrcurveto
          -52 -90 rlineto
          243 0 rlineto
          31 0 9 14 5 24 rrcurveto
          4 17 1 22 0 26 rrcurveto
          0 7 rlineto
          hintmask 11110010
          37 0 rlineto
          0 70 rlineto
          -43 0 rlineto
          -1 7 -2 7 -1 7 rrcurveto
          -15 56 -38 33 -50 0 rrcurveto
          -55 0 -45 -40 0 -50 rrcurveto
          hintmask 11110100
          0 -50 45 -40 55 0 rrcurveto
          hintmask 11111000
          0 70 rmoveto
          -11 0 -9 9 0 11 rrcurveto
          0 11 9 9 11 0 rrcurveto
          11 0 9 -9 0 -11 rrcurveto
          0 -11 -9 -9 -11 0 rrcurveto
          endchar
        </CharString>
        <CharString name="waw-ar.fina.1">
          270 -110 70 40 70 40 70 hstem
          30 80 40 80 vstem
          130 0 rmoveto
          20 0 rlineto
          0 -40 rlineto
          -100 0 rlineto
          -22 0 -16 7 -10 13 rrcurveto
          -52 -90 rlineto
          242 0 rlineto
          23 0 15 15 0 25 rrcurveto
          0 70 rlineto
          40 0 rlineto
          0 70 rlineto
          -40 0 rlineto
          0 20 rlineto
          0 50 -45 40 -55 0 rrcurveto
          -55 0 -45 -40 0 -50 rrcurveto
          0 -50 45 -40 55 0 rrcurveto
          0 70 rmoveto
          -11 0 -9 9 0 11 rrcurveto
          0 11 9 9 11 0 rrcurveto
          11 0 9 -9 0 -11 rrcurveto
          0 -11 -9 -9 -11 0 rrcurveto
          endchar
        </CharString>
        <CharString name="wawHamzaabove-ar">
          270 -110 70 40 70 40 70 50 29 33 25 hstem
          30 80 52 81 vstem
          -50 -110 rmoveto
          243 0 rlineto
          31 0 9 14 5 24 rrcurveto
          4 17 1 22 0 26 rrcurveto
          0 36 -4 37 -6 25 rrcurveto
          -15 56 -38 33 -50 0 rrcurveto
          -55 0 -45 -40 0 -50 rrcurveto
          0 -50 45 -40 55 0 rrcurveto
          10 0 10 1 10 3 rrcurveto
          2 -7 0 -8 0 -7 rrcurveto
          0 -7 0 -8 -2 -7 rrcurveto
          -110 0 rlineto
          -22 0 -16 7 -10 13 rrcurveto
          140 279 rmoveto
          -8 0 -5 7 0 8 rrcurveto
          0 9 7 9 15 0 rrcurveto
          5 0 7 -1 7 -3 rrcurveto
          -6 18 -14 11 -14 0 rrcurveto
          -32 0 -14 -33 8 -25 rrcurveto
          -11 0 rlineto
          -17 -29 rlineto
          108 0 rlineto
          17 29 rlineto
          -53 0 rlineto
          -12 -189 rmoveto
          -11 0 -9 9 0 11 rrcurveto
          0 11 9 9 11 0 rrcurveto
          11 0 9 -9 0 -11 rrcurveto
          0 -11 -9 -9 -11 0 rrcurveto
          endchar
        </CharString>
        <CharString name="x">
          254 21 -21 230 -20 hstem
          0 214 vstem
          137 230 rmoveto
          -30 -65 rlineto
          -30 65 rlineto
          -77 0 rlineto
          53 -115 rlineto
          -53 -115 rlineto
          77 0 rlineto
          30 65 rlineto
          30 -65 rlineto
          77 0 rlineto
          -54 115 rlineto
          54 115 rlineto
          endchar
        </CharString>
        <CharString name="y">
          240 -250 70 180 70 hstem
          0 80 40 80 vstem
          -50 -250 rmoveto
          212 0 rlineto
          23 0 15 15 0 25 rrcurveto
          0 410 rlineto
          -80 -20 rlineto
          0 -90 rlineto
          0 -11 -9 -9 -11 0 rrcurveto
          -11 0 -9 9 0 11 rrcurveto
          0 110 rlineto
          -80 -20 rlineto
          0 -90 rlineto
          0 -50 45 -40 55 0 rrcurveto
          7 0 6 0 7 -1 rrcurveto
          0 -179 rlineto
          -70 0 rlineto
          -20 0 -17 5 -11 15 rrcurveto
          endchar
        </CharString>
        <CharString name="y.1">
          240 -250 70 180 70 -70 180 hstemhm
          0 80 40 80 hintmask 10111000
          -50 -250 rmoveto
          212 0 rlineto
          23 0 15 15 0 25 rrcurveto
          0 390 rlineto
          -80 0 rlineto
          hintmask 11011000
          0 -90 rlineto
          0 -11 -9 -9 -11 0 rrcurveto
          -11 0 -9 9 0 11 rrcurveto
          hintmask 10111000
          0 90 rlineto
          -80 0 rlineto
          0 -90 rlineto
          0 -50 45 -40 55 0 rrcurveto
          7 0 6 0 7 -1 rrcurveto
          0 -179 rlineto
          -70 0 rlineto
          -20 0 -17 5 -11 15 rrcurveto
          endchar
        </CharString>
        <CharString name="yeh-ar">
          247 -220 70 40 67 64 -21 70 83 hstem
          0 42 85 80 vstem
          -33 -220 rmoveto
          202 0 rlineto
          23 0 15 15 0 25 rrcurveto
          0 96 rlineto
          0 25 -13 16 -35 0 rrcurveto
          -32 0 -22 6 -23 23 rrcurveto
          -31 31 rlineto
          -17 17 9 47 14 -14 rrcurveto
          52 -52 rlineto
          10 -10 9 -5 12 0 rrcurveto
          16 0 36 10 10 80 rrcurveto
          -3 -15 -14 -5 -9 0 rrcurveto
          -9 0 -5 5 -4 4 rrcurveto
          -64 64 rlineto
          -50 50 -44 -149 0 -49 rrcurveto
          0 -83 55 -20 72 -2 rrcurveto
          0 -40 rlineto
          -60 0 rlineto
          -20 0 -17 5 -11 15 rrcurveto
          endchar
        </CharString>
        <CharString name="yeh-farsi">
          247 -220 70 40 67 64 -21 70 83 hstem
          0 42 85 80 vstem
          -33 -220 rmoveto
          202 0 rlineto
          23 0 15 15 0 25 rrcurveto
          0 96 rlineto
          0 25 -13 16 -35 0 rrcurveto
          -32 0 -22 6 -23 23 rrcurveto
          -31 31 rlineto
          -17 17 9 47 14 -14 rrcurveto
          52 -52 rlineto
          10 -10 9 -5 12 0 rrcurveto
          16 0 36 10 10 80 rrcurveto
          -3 -15 -14 -5 -9 0 rrcurveto
          -9 0 -5 5 -4 4 rrcurveto
          -64 64 rlineto
          -50 50 -44 -149 0 -49 rrcurveto
          0 -83 55 -20 72 -2 rrcurveto
          0 -40 rlineto
          -60 0 rlineto
          -20 0 -17 5 -11 15 rrcurveto
          endchar
        </CharString>
        <CharString name="yehHamzaabove-ar">
          247 -220 70 40 67 64 -21 70 83 45 29 33 25 hstem
          0 42 85 80 vstem
          -33 -220 rmoveto
          202 0 rlineto
          23 0 15 15 0 25 rrcurveto
          0 96 rlineto
          0 25 -13 16 -35 0 rrcurveto
          -32 0 -22 6 -23 23 rrcurveto
          -31 31 rlineto
          -17 17 9 47 14 -14 rrcurveto
          52 -52 rlineto
          10 -10 9 -5 12 0 rrcurveto
          16 0 36 10 10 80 rrcurveto
          -3 -15 -14 -5 -9 0 rrcurveto
          -9 0 -5 5 -4 4 rrcurveto
          -64 64 rlineto
          -50 50 -44 -149 0 -49 rrcurveto
          0 -83 55 -20 72 -2 rrcurveto
          0 -40 rlineto
          -60 0 rlineto
          -20 0 -17 5 -11 15 rrcurveto
          51 357 rmoveto
          -8 0 -5 7 0 8 rrcurveto
          0 9 7 9 15 0 rrcurveto
          5 0 7 -1 7 -3 rrcurveto
          -6 18 -14 11 -14 0 rrcurveto
          -32 0 -14 -33 8 -25 rrcurveto
          -11 0 rlineto
          -17 -29 rlineto
          108 0 rlineto
          17 29 rlineto
          -53 0 rlineto
          endchar
        </CharString>
        <CharString name="yehbarree-ar">
          242 -110 70 61 -21 70 83 hstem
          0 42 vstem
          131 -110 rmoveto
          45 0 rlineto
          31 0 101 47 54 23 rrcurveto
          -213 0 rlineto
          -32 0 -12 3 -23 23 rrcurveto
          -31 31 rlineto
          -17 17 9 47 14 -14 rrcurveto
          52 -52 rlineto
          10 -10 9 -5 12 0 rrcurveto
          16 0 36 10 10 80 rrcurveto
          -3 -15 -14 -5 -9 0 rrcurveto
          -9 0 -5 5 -4 4 rrcurveto
          -64 64 rlineto
          -50 50 -44 -149 0 -49 rrcurveto
          0 -85 57 -19 74 -1 rrcurveto
          endchar
        </CharString>
        <CharString name="yehbarreeHamzaabove-ar">
          242 -110 70 61 -21 70 83 45 29 33 25 hstem
          0 42 vstem
          131 -110 rmoveto
          45 0 rlineto
          31 0 101 47 54 23 rrcurveto
          -213 0 rlineto
          -32 0 -12 3 -23 23 rrcurveto
          -31 31 rlineto
          -17 17 9 47 14 -14 rrcurveto
          52 -52 rlineto
          10 -10 9 -5 12 0 rrcurveto
          16 0 36 10 10 80 rrcurveto
          -3 -15 -14 -5 -9 0 rrcurveto
          -9 0 -5 5 -4 4 rrcurveto
          -64 64 rlineto
          -50 50 -44 -149 0 -49 rrcurveto
          0 -85 57 -19 74 -1 rrcurveto
          -61 337 rmoveto
          -8 0 -5 7 0 8 rrcurveto
          0 9 7 9 15 0 rrcurveto
          5 0 7 -1 7 -3 rrcurveto
          -6 18 -14 11 -14 0 rrcurveto
          -32 0 -14 -33 8 -25 rrcurveto
          -11 0 rlineto
          -17 -29 rlineto
          108 0 rlineto
          17 29 rlineto
          -53 0 rlineto
          endchar
        </CharString>
        <CharString name="z">
          318 0 70 128 70 hstem
          0 278 vstem
          38 0 rmoveto
          232 0 rlineto
          -52 90 rlineto
          -11 -15 -17 -5 -20 0 rrcurveto
          -73 0 rlineto
          181 198 rlineto
          -1 0 rlineto
          1 0 rlineto
          -256 0 rlineto
          -22 -70 rlineto
          111 0 rlineto
          -71 -72 -40 -49 0 -37 rrcurveto
          0 -25 15 -15 23 0 rrcurveto
          endchar
        </CharString>
        <CharString name="zah-ar">
          750 0 70 40 70 380 -20 hstem
          80 80 466 84 vstem
          0 0 rmoveto
          689 0 rlineto
          6 0 15 0 0 21 rrcurveto
          0 139 -70 20 -44 0 rrcurveto
          -436 0 rlineto
          0 380 rlineto
          -80 -20 rlineto
          0 -470 rlineto
          -40 0 rlineto
          120 0 rmoveto
          0 40 rlineto
          426 0 rlineto
          22 0 18 -18 0 -22 rrcurveto
          -466 0 rlineto
          230 185 rmoveto
          47 79 rlineto
          -17 10 rlineto
          -47 -79 rlineto
          endchar
        </CharString>
        <CharString name="zain-ar">
          312 -110 70 40 140 -119 -21 hstemhm
          213 84 hintmask 10110000
          -63 -110 rmoveto
          339 0 rlineto
          6 0 15 0 0 21 rrcurveto
          hintmask 11010000
          0 139 -69 43 -147 47 rrcurveto
          -81 -140 rlineto
          173 0 rlineto
          22 0 18 -18 0 -22 rrcurveto
          -236 0 rlineto
          140 255 rmoveto
          47 79 rlineto
          -17 10 rlineto
          -47 -79 rlineto
          endchar
        </CharString>
        <CharString name="zero">
          250 0 70 210 70 hstem
          0 70 70 70 vstem
          0 350 rmoveto
          0 -350 rlineto
          210 0 rlineto
          0 350 rlineto
          -140 -280 rmoveto
          0 210 rlineto
          70 0 rlineto
          0 -210 rlineto
          -70 0 rlineto
          endchar
        </CharString>
        <CharString name="zero-ar">
          110 140 70 hstem
          0 70 vstem
          0 210 rmoveto
          0 -70 rlineto
          70 0 rlineto
          0 70 rlineto
          endchar
        </CharString>
        <CharString name="zero-persian">
          110 140 70 hstem
          0 70 vstem
          0 210 rmoveto
          0 -70 rlineto
          70 0 rlineto
          0 70 rlineto
          endchar
        </CharString>
</ttFont>
